<svg width="113" height="113" viewBox="0 0 113 113" fill="none" xmlns="http://www.w3.org/2000/svg">
<g clip-path="url(#clip0_3911_19066)">
<rect width="160" height="100" transform="translate(-0.289062) rotate(45)" fill="#07235B"/>
<path d="M5.80593 42.4158L3.02624 45.1955C2.91152 45.3102 2.85747 45.415 2.86409 45.5098C2.87291 45.6025 2.95674 45.7525 3.11558 45.9599L2.831 46.2445L0.885208 44.2987L1.1698 44.0141C1.37717 44.1729 1.52719 44.2568 1.61984 44.2656C1.7147 44.2722 1.81949 44.2182 1.93421 44.1034L3.89655 42.1411C3.99803 42.0396 4.05539 41.958 4.06862 41.8962C4.08406 41.8322 4.05759 41.7396 3.9892 41.6183L3.83698 41.3469L4.10171 41.0822L5.80593 42.4158ZM5.67026 41.3138C5.50921 41.1528 5.42317 40.963 5.41214 40.7446C5.40552 40.5262 5.48163 40.3376 5.64047 40.1788C5.79931 40.0199 5.98794 39.9438 6.20634 39.9504C6.42695 39.9593 6.61778 40.0442 6.77883 40.2052C6.93987 40.3663 7.0237 40.556 7.03032 40.7744C7.03915 40.995 6.96414 41.1848 6.8053 41.3436C6.64646 41.5024 6.45673 41.5774 6.23612 41.5686C6.01992 41.5598 5.8313 41.4749 5.67026 41.3138ZM5.31393 47.3442C5.22127 47.4368 5.1595 47.5207 5.12861 47.5957C5.09993 47.6685 5.10545 47.7534 5.14516 47.8505C5.18707 47.9453 5.26539 48.07 5.38011 48.2244L5.09552 48.509L2.94126 46.3547L3.22584 46.0701C3.39351 46.1981 3.52698 46.283 3.62625 46.3249C3.72773 46.3691 3.81708 46.3746 3.8943 46.3415C3.97372 46.3106 4.06196 46.2466 4.15903 46.1496L7.51452 42.7941C7.61379 42.6948 7.67887 42.6077 7.70976 42.5326C7.74285 42.4554 7.73734 42.3661 7.69321 42.2646C7.64909 42.1631 7.56305 42.0285 7.4351 41.8609L7.71969 41.5763L9.87395 43.7306L9.58936 44.0151C9.43493 43.9004 9.30919 43.8232 9.21212 43.7835C9.11726 43.7416 9.03342 43.735 8.96062 43.7637C8.88782 43.7923 8.80399 43.8541 8.70913 43.949L5.31393 47.3442ZM8.43777 50.4283C8.3385 50.5276 8.27342 50.6169 8.24253 50.6963C8.21165 50.7758 8.21827 50.8662 8.26239 50.9677C8.30872 51.067 8.39476 51.1993 8.5205 51.3648L8.23592 51.6494L6.08165 49.4951L6.36624 49.2105C6.52067 49.3297 6.64421 49.4091 6.73687 49.4488C6.83393 49.4885 6.91887 49.494 6.99167 49.4653C7.06668 49.4345 7.15161 49.3716 7.24648 49.2767L10.6417 45.8815C10.7387 45.7844 10.8016 45.6995 10.8303 45.6267C10.8612 45.5517 10.8557 45.4668 10.8138 45.3719C10.774 45.2792 10.6946 45.1557 10.5755 45.0013L10.8601 44.7167L13.0143 46.871L12.7298 47.1555C12.5643 47.0298 12.4308 46.9449 12.3293 46.9007C12.2301 46.8544 12.1407 46.8467 12.0613 46.8776C11.9841 46.9063 11.8947 46.9713 11.7933 47.0728L8.43777 50.4283ZM6.30006 45.1866L6.65083 44.8358L9.75151 47.9365L9.40074 48.2873L6.30006 45.1866ZM10.1066 50.211C10.4596 49.858 10.8424 49.623 11.2549 49.5061C11.6719 49.3892 12.0866 49.3892 12.4992 49.5061C12.9117 49.623 13.2912 49.8547 13.6375 50.201C13.9574 50.5209 14.1703 50.8529 14.2762 51.1971C14.3843 51.5434 14.3887 51.8854 14.2894 52.2229C14.1946 52.5605 13.9993 52.877 13.7037 53.1727C13.6508 53.2256 13.5989 53.2752 13.5482 53.3216C13.4974 53.3679 13.4522 53.4043 13.4125 53.4308L10.828 50.8463L11.1523 50.522L12.8698 52.2262L12.6977 52.2395C12.7286 52.213 12.7595 52.1843 12.7904 52.1534C12.8257 52.1225 12.8676 52.0828 12.9161 52.0343C13.2007 51.7497 13.375 51.4806 13.439 51.2269C13.5074 50.9732 13.45 50.7548 13.2669 50.5717C13.0617 50.3665 12.808 50.2959 12.5058 50.3599C12.208 50.4238 11.8848 50.6301 11.5362 50.9787C11.2207 51.2942 11.0034 51.6196 10.8843 51.9549C10.7674 52.288 10.7464 52.6112 10.8214 52.9245C10.8986 53.2399 11.0696 53.53 11.3343 53.7948C11.4888 53.9492 11.6609 54.0727 11.8506 54.1654C12.0447 54.2581 12.2278 54.3088 12.3999 54.3176L12.1153 54.6022C11.8175 54.6353 11.4976 54.5779 11.1557 54.4301C10.8159 54.2801 10.4916 54.0507 10.1828 53.7418C9.84743 53.4065 9.61138 53.0337 9.4746 52.6233C9.34223 52.213 9.32458 51.7983 9.42165 51.3791C9.51872 50.9599 9.74705 50.5706 10.1066 50.211ZM12.9205 56.4796C12.6227 56.1817 12.4594 55.8641 12.4307 55.5265C12.4043 55.1868 12.5135 54.8945 12.7583 54.6496C12.9304 54.4775 13.129 54.3694 13.354 54.3253C13.5812 54.279 13.8482 54.3077 14.1548 54.4113C14.4637 54.5128 14.8233 54.6981 15.2336 54.9673L16.5242 55.8078L16.2065 56.1255L15.4255 55.6291C15.088 55.4151 14.8089 55.3059 14.5883 55.3015C14.3677 55.2971 14.1736 55.3787 14.0059 55.5464C13.8427 55.7096 13.7643 55.8828 13.771 56.0659C13.7798 56.2468 13.8548 56.4079 13.996 56.5491C14.1173 56.6704 14.2486 56.7531 14.3898 56.7972C14.5354 56.8414 14.6744 56.8458 14.8067 56.8105L16.3488 55.2684C16.6356 54.9816 16.7702 54.7103 16.7525 54.4544C16.7371 54.1962 16.6091 53.947 16.3686 53.7065C16.223 53.5609 16.0653 53.4473 15.8954 53.3656C15.73 53.284 15.5678 53.2388 15.409 53.23C15.2524 53.2234 15.1101 53.2598 14.9821 53.3392L14.7769 53.134C14.9203 52.9906 15.0847 52.9101 15.27 52.8924C15.4575 52.8726 15.6097 52.9211 15.7267 53.038C15.8524 53.1638 15.9153 53.3171 15.9153 53.498C15.9175 53.6767 15.8546 53.83 15.7267 53.958C15.5921 54.0926 15.431 54.1565 15.2435 54.1499C15.056 54.1433 14.8894 54.0672 14.7438 53.9216C14.6004 53.7782 14.5221 53.616 14.5089 53.4351C14.5001 53.2542 14.5629 53.0965 14.6975 52.9619C14.8564 52.8031 15.0637 52.7237 15.3196 52.7237C15.5778 52.7215 15.8601 52.7987 16.1668 52.9553C16.4756 53.1097 16.7845 53.3414 17.0933 53.6502C17.5655 54.1223 17.8412 54.5856 17.9206 55.0401C18.0001 55.4945 17.8368 55.9247 17.4309 56.3307L15.9351 57.8264C15.7962 57.9654 15.7289 58.0966 15.7333 58.2202C15.7377 58.3437 15.7851 58.4507 15.8756 58.5412C15.9351 58.6007 15.9914 58.6438 16.0443 58.6702L15.7763 58.9383C15.6594 58.9184 15.5237 58.8666 15.3693 58.7827C15.2126 58.7011 15.0604 58.5864 14.9126 58.4386C14.778 58.304 14.6732 58.1573 14.5982 57.9985C14.5254 57.8418 14.4879 57.683 14.4857 57.522C14.4857 57.3631 14.5276 57.2131 14.6115 57.0719C14.3644 57.1469 14.0875 57.1348 13.7809 57.0355C13.4786 56.9362 13.1918 56.7509 12.9205 56.4796ZM22.1773 55.6633L17.8357 60.0049C17.7209 60.1196 17.6669 60.2244 17.6735 60.3193C17.6823 60.4119 17.7662 60.5619 17.925 60.7693L17.6404 61.0539L15.6946 59.1081L15.9792 58.8235C16.1866 58.9824 16.3366 59.0662 16.4293 59.075C16.5241 59.0816 16.6289 59.0276 16.7436 58.9129L20.2679 55.3886C20.3694 55.2871 20.4267 55.2055 20.44 55.1437C20.4554 55.0797 20.4289 54.9871 20.3605 54.8658L20.2116 54.5911L20.4731 54.3297L22.1773 55.6633ZM19.1339 60.5089L21.0532 58.5896L20.6396 58.176L20.8845 57.9311L23.1082 58.262L23.3233 58.4771L22.5159 59.2845L23.4524 60.1549L23.0354 60.5718L22.1651 59.6353L20.312 61.4884C20.0605 61.7399 19.9303 61.965 19.9215 62.1635C19.9171 62.3621 19.9943 62.5408 20.1531 62.6996C20.2348 62.7812 20.3241 62.8485 20.4212 62.9015C20.5204 62.9522 20.612 62.9842 20.6958 62.9974L20.4112 63.282C20.2392 63.2864 20.0252 63.2313 19.7693 63.1166C19.5134 63.0018 19.2828 62.8419 19.0777 62.6367C18.8923 62.4514 18.7556 62.244 18.6673 62.0146C18.5813 61.7874 18.5702 61.5469 18.6342 61.2932C18.7004 61.0373 18.867 60.7759 19.1339 60.5089ZM26.6501 60.1294L24.4892 62.2705C24.7517 62.1844 25.0418 62.1833 25.3595 62.2672C25.6794 62.3532 25.9838 62.5407 26.2728 62.8297C26.6192 63.1761 26.8045 63.5489 26.8288 63.9482C26.8575 64.3475 26.6964 64.7226 26.3456 65.0733L24.6249 66.7941C24.5477 66.8713 24.4969 66.9419 24.4726 67.0059C24.4528 67.0699 24.4605 67.1438 24.4958 67.2276C24.5355 67.3114 24.6083 67.4217 24.7142 67.5585L24.4296 67.8431L22.55 65.9635L22.8346 65.6789C23.0133 65.8135 23.1435 65.8819 23.2251 65.8841C23.3067 65.8863 23.4027 65.8322 23.513 65.7219L25.1212 64.1137C25.3419 63.8931 25.4533 63.6713 25.4555 63.4485C25.4577 63.2257 25.3606 63.0161 25.1643 62.8198C25.0209 62.6764 24.8675 62.5804 24.7043 62.5319C24.5454 62.4834 24.3998 62.4767 24.2675 62.512L22.2853 64.4942C22.175 64.6045 22.1209 64.7005 22.1231 64.7821C22.1253 64.8637 22.1937 64.9939 22.3283 65.1726L22.0437 65.4572L20.1641 63.5776L20.4487 63.293C20.6561 63.4518 20.8061 63.5357 20.8988 63.5445C20.9936 63.5511 21.0984 63.4971 21.2131 63.3823L24.7374 59.8581C24.8389 59.7566 24.8962 59.675 24.9095 59.6132C24.9249 59.5492 24.8984 59.4566 24.83 59.3352L24.6811 59.0606L24.9425 58.7992L26.6501 60.1294ZM26.8971 70.4561C26.5992 70.1583 26.436 69.8406 26.4073 69.5031C26.3808 69.1634 26.49 68.8711 26.7349 68.6262C26.907 68.4541 27.1055 68.346 27.3306 68.3019C27.5578 68.2556 27.8247 68.2842 28.1314 68.3879C28.4402 68.4894 28.7998 68.6747 29.2102 68.9439L30.5007 69.7844L30.1831 70.1021L29.4021 69.6057C29.0646 69.3917 28.7855 69.2825 28.5649 69.2781C28.3443 69.2737 28.1501 69.3553 27.9825 69.523C27.8192 69.6862 27.7409 69.8594 27.7475 70.0425C27.7564 70.2234 27.8314 70.3844 27.9725 70.5256C28.0939 70.647 28.2251 70.7297 28.3663 70.7738C28.5119 70.8179 28.6509 70.8224 28.7833 70.7871L30.3254 69.245C30.6122 68.9582 30.7467 68.6868 30.7291 68.4309C30.7136 68.1728 30.5857 67.9235 30.3452 67.6831C30.1996 67.5375 30.0419 67.4238 29.872 67.3422C29.7066 67.2606 29.5444 67.2154 29.3856 67.2065C29.2289 67.1999 29.0866 67.2363 28.9587 67.3157L28.7535 67.1106C28.8969 66.9672 29.0613 66.8867 29.2466 66.869C29.4341 66.8492 29.5863 66.8977 29.7032 67.0146C29.829 67.1404 29.8919 67.2937 29.8919 67.4746C29.8941 67.6533 29.8312 67.8066 29.7032 67.9346C29.5687 68.0691 29.4076 68.1331 29.2201 68.1265C29.0326 68.1199 28.866 68.0438 28.7204 67.8982C28.577 67.7548 28.4987 67.5926 28.4855 67.4117C28.4766 67.2308 28.5395 67.0731 28.6741 66.9385C28.8329 66.7797 29.0403 66.7002 29.2962 66.7002C29.5543 66.698 29.8367 66.7753 30.1434 66.9319C30.4522 67.0863 30.7611 67.318 31.0699 67.6268C31.542 68.0989 31.8178 68.5622 31.8972 69.0167C31.9766 69.4711 31.8134 69.9013 31.4075 70.3072L29.9117 71.803C29.7727 71.942 29.7054 72.0732 29.7099 72.1968C29.7143 72.3203 29.7617 72.4273 29.8522 72.5178C29.9117 72.5773 29.968 72.6203 30.0209 72.6468L29.7529 72.9149C29.636 72.895 29.5003 72.8432 29.3459 72.7593C29.1892 72.6777 29.037 72.563 28.8892 72.4152C28.7546 72.2806 28.6498 72.1339 28.5748 71.975C28.502 71.8184 28.4645 71.6596 28.4623 71.4985C28.4623 71.3397 28.5042 71.1897 28.5881 71.0485C28.341 71.1235 28.0641 71.1114 27.7575 71.0121C27.4552 70.9128 27.1684 70.7275 26.8971 70.4561ZM34.5787 71.1885L33.983 71.7842C34.2456 71.6937 34.5379 71.6904 34.86 71.7742C35.1821 71.8581 35.4887 72.0456 35.7799 72.3368C36.1263 72.6832 36.3116 73.056 36.3359 73.4553C36.3645 73.8546 36.2035 74.2296 35.8527 74.5804L34.132 76.3012C34.0547 76.3784 34.004 76.449 33.9797 76.513C33.9599 76.5769 33.9676 76.6509 34.0029 76.7347C34.0426 76.8185 34.1154 76.9288 34.2213 77.0656L33.9367 77.3502L32.0571 75.4706L32.3417 75.186C32.5204 75.3206 32.6506 75.389 32.7322 75.3912C32.8138 75.3934 32.9098 75.3393 33.0201 75.229L34.6283 73.6208C34.8489 73.4002 34.9604 73.1784 34.9626 72.9556C34.9648 72.7328 34.8677 72.5232 34.6714 72.3269C34.528 72.1835 34.3746 72.0875 34.2114 72.039C34.0525 71.9904 33.9069 71.9838 33.7746 72.0191L31.7924 74.0013C31.6821 74.1116 31.628 74.2076 31.6302 74.2892C31.6324 74.3708 31.7008 74.501 31.8354 74.6797L31.5508 74.9643L29.6712 73.0847L29.9558 72.8001C30.1632 72.9589 30.3132 73.0428 30.4058 73.0516C30.5007 73.0582 30.6055 73.0042 30.7202 72.8894L32.6825 70.9271C32.784 70.8256 32.8414 70.744 32.8546 70.6822C32.8701 70.6182 32.8436 70.5256 32.7752 70.4043L32.623 70.1329L32.8877 69.8682L34.5787 71.1885ZM35.738 75.8754C36.1108 75.5025 36.5002 75.2521 36.9061 75.1242C37.3142 74.9984 37.7069 74.9808 38.0842 75.0712C38.4636 75.1639 38.7956 75.3525 39.0802 75.6371C39.2699 75.8268 39.4111 76.0386 39.5038 76.2725C39.5987 76.5041 39.6328 76.7148 39.6064 76.9045L40.6951 75.8158C40.7966 75.7143 40.8528 75.6316 40.8639 75.5676C40.8793 75.5036 40.855 75.4132 40.7911 75.2963L40.6388 75.0183L40.9003 74.7569L42.6012 76.0938L38.3985 80.2964C38.2993 80.3957 38.2419 80.4773 38.2265 80.5413C38.2154 80.6053 38.243 80.699 38.3092 80.8226L38.4614 81.0939L38.1967 81.3586L36.5222 80.0217L37.1179 79.4261C36.8443 79.5276 36.552 79.5375 36.241 79.4559C35.9299 79.3742 35.6464 79.2055 35.3905 78.9496C35.1368 78.6959 34.9735 78.398 34.9007 78.0561C34.8324 77.7142 34.8654 77.3546 35 76.9773C35.1346 76.6001 35.3806 76.2328 35.738 75.8754ZM36.9491 76.9078C36.5498 77.3071 36.3116 77.6866 36.2343 78.0462C36.1615 78.4058 36.2387 78.6992 36.466 78.9264C36.5961 79.0566 36.7373 79.1426 36.8896 79.1845C37.0418 79.2264 37.1896 79.2242 37.333 79.1779L39.2688 77.242C39.3063 77.1251 39.303 76.9917 39.2589 76.8416C39.217 76.6938 39.1321 76.5559 39.0041 76.428C38.7703 76.1941 38.4713 76.1136 38.1073 76.1864C37.7433 76.2592 37.3572 76.4997 36.9491 76.9078ZM43.8277 79.6102C43.9512 79.3764 44.0317 79.1877 44.0692 79.0443C44.109 78.9032 44.109 78.7752 44.0692 78.6605C44.0339 78.5458 43.9633 78.42 43.8575 78.2832L44.142 77.9987L46.4022 80.2588L46.1176 80.5434C45.9367 80.4066 45.79 80.3239 45.6775 80.2952C45.5672 80.2643 45.4657 80.293 45.3731 80.3812C45.2826 80.4717 45.1745 80.6261 45.0488 80.8445L42.9805 84.5541L42.9342 84.5078L46.6504 82.3998C46.8666 82.2807 47.0166 82.177 47.1004 82.0888C47.1887 82.0005 47.2174 81.9035 47.1865 81.7976C47.16 81.6917 47.0795 81.5494 46.9449 81.3707L47.2295 81.0861L49.3904 83.247L49.1058 83.5316C48.9293 83.3992 48.787 83.3187 48.6789 83.29C48.5752 83.2613 48.4793 83.2933 48.391 83.386C48.305 83.4764 48.2002 83.6297 48.0766 83.8459L45.9952 87.5687L45.9455 87.5191L49.6121 85.4476C49.8415 85.3196 50.0015 85.2082 50.0919 85.1133C50.1846 85.0207 50.2166 84.9181 50.1879 84.8056C50.1614 84.6953 50.0798 84.5497 49.943 84.3688L50.2276 84.0842L51.7399 85.5965L51.4553 85.8811C51.3075 85.7686 51.1751 85.6936 51.0582 85.6561C50.9435 85.6208 50.81 85.6263 50.6578 85.6726C50.5078 85.7167 50.3048 85.805 50.0489 85.9373L45.1017 88.5218L44.2082 87.6283L46.9284 82.6116L47.1468 82.83L42.0804 85.5005L41.2101 84.6302L43.8277 79.6102ZM47.9883 88.0926C48.3413 87.7397 48.7241 87.5047 49.1366 87.3878C49.5536 87.2709 49.9683 87.2709 50.3809 87.3878C50.7934 87.5047 51.1729 87.7364 51.5192 88.0827C51.8391 88.4026 52.052 88.7346 52.1579 89.0788C52.266 89.4251 52.2704 89.7671 52.1711 90.1046C52.0763 90.4422 51.881 90.7587 51.5854 91.0543C51.5325 91.1073 51.4806 91.1569 51.4299 91.2033C51.3791 91.2496 51.3339 91.286 51.2942 91.3125L48.7097 88.728L49.034 88.4037L50.7515 90.1079L50.5794 90.1212C50.6103 90.0947 50.6412 90.066 50.6721 90.0351C50.7074 90.0042 50.7493 89.9645 50.7978 89.916C51.0824 89.6314 51.2567 89.3623 51.3207 89.1086C51.3891 88.8549 51.3317 88.6365 51.1486 88.4533C50.9434 88.2482 50.6897 88.1776 50.3875 88.2416C50.0897 88.3055 49.7665 88.5118 49.4179 88.8604C49.1024 89.1758 48.8851 89.5012 48.766 89.8366C48.6491 90.1697 48.6281 90.4929 48.7031 90.8062C48.7803 91.1216 48.9513 91.4117 49.216 91.6765C49.3705 91.8309 49.5425 91.9544 49.7323 92.0471C49.9264 92.1398 50.1095 92.1905 50.2816 92.1993L49.997 92.4839C49.6992 92.517 49.3793 92.4596 49.0373 92.3118C48.6976 92.1618 48.3733 91.9324 48.0645 91.6235C47.7291 91.2882 47.4931 90.9154 47.3563 90.505C47.2239 90.0947 47.2063 89.6799 47.3033 89.2608C47.4004 88.8416 47.6287 88.4522 47.9883 88.0926ZM56.3053 89.7913L51.9637 94.1329C51.849 94.2476 51.7949 94.3524 51.8016 94.4473C51.8104 94.54 51.8942 94.69 52.0531 94.8973L51.7685 95.1819L49.8227 93.2361L50.1073 92.9516C50.3146 93.1104 50.4647 93.1942 50.5573 93.2031C50.6522 93.2097 50.757 93.1556 50.8717 93.0409L54.3959 89.5166C54.4974 89.4152 54.5548 89.3335 54.568 89.2718C54.5835 89.2078 54.557 89.1151 54.4886 88.9938L54.3397 88.7191L54.6011 88.4577L56.3053 89.7913ZM58.3581 91.8441L54.0164 96.1857C53.9017 96.3004 53.8477 96.4052 53.8543 96.5C53.8631 96.5927 53.947 96.7427 54.1058 96.9501L53.8212 97.2347L51.8754 95.2889L52.16 95.0043C52.3674 95.1631 52.5174 95.247 52.6101 95.2558C52.7049 95.2624 52.8097 95.2084 52.9244 95.0937L56.4487 91.5694C56.5502 91.4679 56.6075 91.3863 56.6208 91.3245C56.6362 91.2605 56.6097 91.1679 56.5413 91.0465L56.3924 90.7719L56.6539 90.5105L58.3581 91.8441ZM58.8356 95.4455L58.24 96.0411C58.5025 95.9507 58.7948 95.9474 59.1169 96.0312C59.439 96.115 59.7457 96.3026 60.0369 96.5938C60.3832 96.9401 60.5685 97.3129 60.5928 97.7123C60.6215 98.1116 60.4604 98.4866 60.1097 98.8374L58.3889 100.558C58.3117 100.635 58.261 100.706 58.2367 100.77C58.2168 100.834 58.2246 100.908 58.2599 100.992C58.2996 101.075 58.3724 101.186 58.4783 101.323L58.1937 101.607L56.3141 99.7275L56.5987 99.4429C56.7773 99.5775 56.9075 99.6459 56.9891 99.6481C57.0708 99.6503 57.1667 99.5963 57.277 99.486L58.8853 97.8777C59.1059 97.6571 59.2173 97.4354 59.2195 97.2126C59.2217 96.9898 59.1246 96.7802 58.9283 96.5838C58.7849 96.4404 58.6316 96.3445 58.4683 96.2959C58.3095 96.2474 58.1639 96.2408 58.0315 96.2761L56.0493 98.2583C55.939 98.3686 55.885 98.4645 55.8872 98.5462C55.8894 98.6278 55.9578 98.7579 56.0924 98.9366L55.8078 99.2212L53.9282 97.3416L54.2127 97.057C54.4201 97.2159 54.5701 97.2997 54.6628 97.3085C54.7577 97.3152 54.8624 97.2611 54.9772 97.1464L56.9395 95.1841C57.041 95.0826 57.0983 95.0009 57.1116 94.9392C57.127 94.8752 57.1005 94.7825 57.0322 94.6612L56.8799 94.3899L57.1447 94.1251L58.8356 95.4455ZM60.0115 100.116C60.3644 99.7628 60.7472 99.5278 61.1597 99.4109C61.5767 99.294 61.9914 99.294 62.404 99.4109C62.8165 99.5278 63.196 99.7595 63.5423 100.106C63.8622 100.426 64.0751 100.758 64.181 101.102C64.2891 101.448 64.2935 101.79 64.1942 102.128C64.0994 102.465 63.9041 102.782 63.6085 103.077C63.5556 103.13 63.5037 103.18 63.453 103.226C63.4022 103.273 63.357 103.309 63.3173 103.336L60.7329 100.751L61.0572 100.427L62.7746 102.131L62.6025 102.144C62.6334 102.118 62.6643 102.089 62.6952 102.058C62.7305 102.027 62.7724 101.988 62.8209 101.939C63.1055 101.655 63.2798 101.385 63.3438 101.132C63.4122 100.878 63.3548 100.66 63.1717 100.476C62.9665 100.271 62.7128 100.201 62.4106 100.265C62.1128 100.329 61.7896 100.535 61.441 100.883C61.1255 101.199 60.9082 101.524 60.7891 101.86C60.6722 102.193 60.6512 102.516 60.7262 102.829C60.8034 103.145 60.9744 103.435 61.2392 103.7C61.3936 103.854 61.5657 103.978 61.7554 104.07C61.9495 104.163 62.1326 104.214 62.3047 104.222L62.0201 104.507C61.7223 104.54 61.4024 104.483 61.0605 104.335C60.7207 104.185 60.3964 103.955 60.0876 103.647C59.7522 103.311 59.5162 102.938 59.3794 102.528C59.247 102.118 59.2294 101.703 59.3265 101.284C59.4235 100.865 59.6519 100.475 60.0115 100.116ZM64.2879 103.002C64.5108 102.78 64.7645 102.649 65.0491 102.612C65.3359 102.577 65.6381 102.632 65.9558 102.777C66.2757 102.921 66.5977 103.155 66.922 103.479C67.1846 103.741 67.3908 103.994 67.5409 104.237C67.6931 104.482 67.7946 104.687 67.8453 104.852L67.0015 105.736L66.7334 105.468C66.8989 105.183 66.9695 104.903 66.9452 104.627C66.9209 104.351 66.7963 104.101 66.5713 103.876C66.386 103.691 66.2029 103.583 66.022 103.552C65.8455 103.521 65.6954 103.567 65.5719 103.691C65.4506 103.812 65.402 103.955 65.4263 104.121C65.455 104.286 65.5355 104.488 65.6679 104.726L65.8896 105.114C66.1411 105.546 66.2668 105.934 66.2668 106.278C66.269 106.62 66.1289 106.933 65.8466 107.215C65.6237 107.438 65.3645 107.565 65.0689 107.596C64.7733 107.626 64.4622 107.567 64.1357 107.417C63.8114 107.269 63.4949 107.041 63.186 106.732C62.9191 106.465 62.6973 106.19 62.5209 105.908C62.3466 105.623 62.2297 105.367 62.1701 105.14L63.0437 104.214L63.3117 104.482C63.1926 104.68 63.1176 104.888 63.0867 105.104C63.0558 105.32 63.0746 105.533 63.143 105.742C63.2158 105.952 63.3415 106.146 63.5202 106.325C63.7166 106.521 63.9096 106.635 64.0993 106.666C64.2913 106.694 64.4512 106.645 64.5792 106.517C64.6983 106.398 64.7512 106.259 64.738 106.1C64.727 105.939 64.652 105.734 64.513 105.484L64.2913 105.097C64.064 104.693 63.9361 104.314 63.9074 103.959C63.8787 103.604 64.0056 103.285 64.2879 103.002ZM67.4658 106.18C67.6886 105.957 67.9423 105.827 68.2269 105.79C68.5137 105.754 68.8159 105.81 69.1336 105.955C69.4535 106.099 69.7756 106.332 70.0999 106.657C70.3624 106.919 70.5687 107.172 70.7187 107.415C70.8709 107.659 70.9724 107.865 71.0232 108.03L70.1793 108.914L69.9113 108.646C70.0767 108.361 70.1473 108.081 70.1231 107.805C70.0988 107.529 69.9742 107.279 69.7491 107.054C69.5638 106.869 69.3807 106.76 69.1998 106.73C69.0233 106.699 68.8733 106.745 68.7498 106.869C68.6284 106.99 68.5799 107.133 68.6042 107.299C68.6328 107.464 68.7134 107.666 68.8457 107.904L69.0674 108.292C69.3189 108.724 69.4447 109.112 69.4447 109.456C69.4469 109.798 69.3068 110.11 69.0244 110.393C68.8016 110.616 68.5424 110.742 68.2468 110.773C67.9512 110.804 67.6401 110.745 67.3136 110.595C66.9893 110.447 66.6727 110.219 66.3639 109.91C66.0969 109.643 65.8752 109.368 65.6987 109.086C65.5244 108.801 65.4075 108.545 65.3479 108.318L66.2216 107.391L66.4896 107.659C66.3705 107.858 66.2955 108.065 66.2646 108.282C66.2337 108.498 66.2524 108.711 66.3208 108.92C66.3936 109.13 66.5194 109.324 66.6981 109.503C66.8944 109.699 67.0875 109.813 67.2772 109.844C67.4691 109.872 67.6291 109.823 67.757 109.695C67.8761 109.575 67.9291 109.436 67.9159 109.278C67.9048 109.117 67.8298 108.911 67.6908 108.662L67.4691 108.275C67.2419 107.871 67.1139 107.492 67.0853 107.137C67.0566 106.781 67.1834 106.463 67.4658 106.18Z" fill="white"/>
<path d="M17.2831 65.5056L16.4677 66.3724L16.3041 66.2089C16.4007 66.0562 16.4685 65.9199 16.5074 65.8C16.5479 65.6816 16.5588 65.5695 16.5401 65.4636C16.523 65.3592 16.477 65.2525 16.4023 65.1435C16.3291 65.0329 16.2278 64.9083 16.0986 64.7697L15.5215 64.1553L14.1688 65.508L14.7972 66.1364C14.8502 66.1894 14.9031 66.2221 14.9561 66.2346C15.0106 66.2455 15.0838 66.2299 15.1757 66.1878C15.2692 66.1442 15.3992 66.0671 15.5659 65.9565L15.7201 66.1107L14.5636 67.2672L14.4094 67.113C14.5231 66.9557 14.601 66.8311 14.643 66.7392C14.6867 66.6457 14.7022 66.571 14.6898 66.5149C14.6789 66.4573 14.6454 66.4004 14.5893 66.3444L13.9608 65.7159L12.8464 66.8303C12.7717 66.9051 12.7226 66.9728 12.6992 67.0336C12.6774 67.0959 12.6876 67.1683 12.7296 67.2508C12.7748 67.3334 12.8573 67.4471 12.9773 67.5919L12.7997 67.7695L11.44 66.4098L11.6175 66.2322C11.753 66.3459 11.8582 66.423 11.9329 66.4635C12.0077 66.504 12.0716 66.5134 12.1245 66.4916C12.179 66.4713 12.2413 66.4261 12.3114 66.356L14.7599 63.9076C14.8299 63.8375 14.8751 63.7752 14.8954 63.7207C14.9172 63.6677 14.9078 63.6039 14.8673 63.5291C14.8268 63.4544 14.7497 63.3492 14.636 63.2137L14.8136 63.0362L17.2831 65.5056ZM15.0637 70.1363C14.8425 69.9151 14.6945 69.6643 14.6198 69.384C14.5466 69.1052 14.5497 68.8233 14.6291 68.5382C14.7086 68.2532 14.8666 67.9923 15.1034 67.7556C15.3464 67.5126 15.6127 67.3522 15.9024 67.2743C16.1937 67.1949 16.4818 67.1933 16.7668 67.2696C17.0534 67.3475 17.312 67.5017 17.5425 67.7322C17.7652 67.9549 17.9132 68.2057 17.9864 68.4845C18.0611 68.7649 18.0588 69.0476 17.9794 69.3326C17.8999 69.6176 17.7418 69.8785 17.5051 70.1152C17.2637 70.3567 16.9973 70.5171 16.7061 70.5965C16.4148 70.676 16.1259 70.6767 15.8393 70.5989C15.5527 70.521 15.2942 70.3668 15.0637 70.1363ZM15.344 69.9307C15.5574 70.1441 15.8066 70.2251 16.0916 70.1737C16.3782 70.1238 16.6671 69.9533 16.9584 69.662C17.1656 69.4549 17.3135 69.2446 17.4023 69.0312C17.4942 68.8178 17.5277 68.6161 17.5028 68.4261C17.4794 68.2376 17.3992 68.0749 17.2621 67.9378C17.0503 67.726 16.8011 67.645 16.5145 67.6948C16.2295 67.7431 15.9406 67.9137 15.6477 68.2065C15.4406 68.4136 15.2911 68.6239 15.1992 68.8373C15.1104 69.0507 15.0785 69.2524 15.1034 69.4424C15.1283 69.6324 15.2085 69.7952 15.344 69.9307ZM19.727 69.9682L18.2108 71.4844C18.013 71.6822 17.9109 71.8824 17.9047 72.0848C17.9016 72.2873 17.988 72.4766 18.164 72.6526C18.2902 72.7787 18.4234 72.8605 18.5635 72.8979C18.7068 72.9353 18.8361 72.9399 18.9514 72.9119L20.3251 71.5381C20.389 71.4743 20.4232 71.4213 20.4279 71.3793C20.4341 71.3388 20.4116 71.2773 20.3602 71.1947L20.2153 70.9611L20.3718 70.8045L21.2736 71.5148L19.3719 73.4165C19.3096 73.4788 19.2753 73.5318 19.2691 73.5754C19.2644 73.6175 19.2878 73.6813 19.3392 73.767L19.4794 73.9959L19.3252 74.1501L18.4304 73.4516L18.7855 73.0965C18.6095 73.1385 18.4202 73.1315 18.2178 73.0754C18.0184 73.0194 17.8292 72.9018 17.65 72.7227C17.4133 72.4859 17.2879 72.2266 17.2739 71.9447C17.2614 71.6612 17.3775 71.3972 17.622 71.1527L18.7808 69.9939C18.8447 69.93 18.8789 69.877 18.8836 69.835C18.8898 69.7945 18.8665 69.7322 18.8135 69.6481L18.671 69.4168L18.8275 69.2603L19.727 69.9682ZM22.5961 72.8372L22.241 73.1923C22.4185 73.1518 22.6093 73.162 22.8134 73.2227C23.0205 73.2835 23.2144 73.4042 23.3951 73.5848C23.6365 73.8263 23.7666 74.0887 23.7853 74.3722C23.8055 74.6541 23.6965 74.9142 23.4582 75.1525L22.2013 76.4094C22.1545 76.4562 22.1249 76.4998 22.1125 76.5403C22.1031 76.5808 22.1156 76.6322 22.1499 76.6945C22.1857 76.7552 22.2495 76.8424 22.3414 76.9561L22.1639 77.1337L21.0378 76.0076L21.2153 75.83C21.3742 75.9577 21.4825 76.0271 21.5401 76.038C21.5993 76.0504 21.6623 76.0232 21.7293 75.9562L22.8671 74.8184C23.0587 74.6268 23.1537 74.4306 23.1521 74.2297C23.1537 74.0287 23.0688 73.8426 22.8975 73.6713C22.7604 73.5342 22.6187 73.4439 22.4723 73.4003C22.3274 73.3582 22.1958 73.3512 22.0774 73.3792L20.6149 74.8418C20.5479 74.9087 20.5207 74.9718 20.5331 75.031C20.5456 75.0902 20.6157 75.1992 20.7434 75.3581L20.5658 75.5356L19.4397 74.4096L19.6173 74.232C19.7855 74.3691 19.9008 74.4438 19.9631 74.4563C20.0269 74.4703 20.0939 74.4423 20.164 74.3722L21.6616 72.8746C21.7254 72.8107 21.7597 72.7578 21.7644 72.7157C21.7706 72.6752 21.7472 72.6129 21.6943 72.5288L21.5518 72.2975L21.7083 72.141L22.5961 72.8372ZM23.5634 76.253C23.8111 76.0053 24.0774 75.8371 24.3624 75.7483C24.6506 75.6596 24.9309 75.6471 25.2035 75.711C25.4776 75.7733 25.7183 75.908 25.9254 76.1151C26.0562 76.246 26.1528 76.3877 26.2151 76.5404C26.279 76.6945 26.3117 76.841 26.3132 76.9796L27.145 76.1479C27.2088 76.084 27.2431 76.031 27.2478 75.989C27.2555 75.9469 27.2337 75.8846 27.1823 75.8021L27.0375 75.5685L27.1917 75.4143L28.0958 76.1222L25.0867 79.1313C25.0244 79.1936 24.9901 79.2466 24.9839 79.2902C24.9792 79.3322 25.0033 79.3969 25.0563 79.4841L25.1941 79.7107L25.04 79.8649L24.1475 79.1687L24.5283 78.7879C24.3445 78.8439 24.142 78.8377 23.9209 78.7692C23.7013 78.6991 23.505 78.5776 23.3321 78.4047C23.1608 78.2334 23.0494 78.027 22.998 77.7856C22.9482 77.5457 22.9677 77.2926 23.0564 77.0263C23.1452 76.76 23.3142 76.5022 23.5634 76.253ZM24.0844 76.6899C23.7916 76.9827 23.6257 77.2778 23.5868 77.5753C23.5509 77.8728 23.6413 78.1298 23.8578 78.3463C23.9808 78.4694 24.114 78.5542 24.2573 78.601C24.4021 78.6493 24.5439 78.6524 24.6825 78.6103L26.0609 77.2319C26.0889 77.126 26.0804 77.0022 26.0352 76.8604C25.9916 76.7202 25.9052 76.5855 25.7759 76.4562C25.5641 76.2444 25.304 76.1556 24.9956 76.1899C24.6872 76.2242 24.3834 76.3908 24.0844 76.6899ZM25.8648 80.9374C25.6669 80.7396 25.5571 80.5176 25.5353 80.2715C25.5151 80.027 25.5914 79.8183 25.7643 79.6454C25.8936 79.5161 26.0353 79.4351 26.1895 79.4024C26.3453 79.3713 26.522 79.3892 26.7198 79.4561C26.9192 79.5216 27.1458 79.636 27.3997 79.7996L28.3342 80.3977L28.1193 80.6126L27.4301 80.1664C27.1544 79.9904 26.9301 79.8923 26.7572 79.872C26.5859 79.8533 26.4379 79.9063 26.3133 80.0309C26.1856 80.1586 26.1288 80.3011 26.1428 80.4584C26.1568 80.6157 26.23 80.7606 26.3624 80.893C26.4761 81.0067 26.6015 81.0869 26.7385 81.1336C26.8772 81.1819 27.0111 81.1944 27.1404 81.171L28.2618 80.0496C28.4705 79.8409 28.5624 79.6431 28.5375 79.4561C28.5126 79.2692 28.4168 79.0925 28.2501 78.9258C28.1489 78.8246 28.0422 78.7444 27.93 78.6852C27.821 78.626 27.7104 78.5933 27.5983 78.587C27.4877 78.5793 27.3802 78.6026 27.2759 78.6571L27.1567 78.538C27.2377 78.457 27.3288 78.411 27.4301 78.4001C27.5329 78.3877 27.6154 78.4126 27.6777 78.4749C27.7416 78.5388 27.772 78.619 27.7688 78.7155C27.7657 78.8121 27.7299 78.8947 27.6614 78.9632C27.5897 79.0348 27.5048 79.0683 27.4067 79.0636C27.3101 79.0605 27.2237 79.0208 27.1474 78.9445C27.0726 78.8697 27.0329 78.7817 27.0282 78.6805C27.0251 78.5808 27.0617 78.4928 27.138 78.4165C27.2471 78.3075 27.3865 78.2568 27.5562 78.2646C27.726 78.2724 27.9067 78.3269 28.0983 78.4282C28.293 78.5294 28.4775 78.6673 28.652 78.8417C28.9167 79.1065 29.067 79.3752 29.1029 79.6477C29.1402 79.9218 29.0336 80.1843 28.7828 80.4351L27.6193 81.5985C27.515 81.7029 27.4667 81.801 27.4745 81.8929C27.4838 81.9864 27.5235 82.0681 27.5936 82.1382C27.6512 82.1958 27.7042 82.2332 27.7525 82.2504L27.5889 82.4139C27.5235 82.4014 27.4464 82.3742 27.3577 82.3321C27.2689 82.2901 27.1832 82.2278 27.1007 82.1452C27.0228 82.0674 26.9652 81.9848 26.9278 81.8976C26.8919 81.8119 26.8772 81.7239 26.8834 81.6336C26.8912 81.5448 26.9215 81.4568 26.9745 81.3696C26.8156 81.3914 26.6334 81.368 26.4278 81.2995C26.2238 81.2294 26.0361 81.1087 25.8648 80.9374ZM28.589 82.2551L30.0305 80.8136L29.7104 80.4936L29.8342 80.3697L31.0888 80.5122L31.1706 80.594L30.722 81.0426L31.4766 81.7692L31.2313 82.0145L30.5001 81.2645L29.1637 82.6009C28.9534 82.8112 28.8491 82.995 28.8506 83.1523C28.8538 83.308 28.9153 83.4459 29.0352 83.5658C29.1037 83.6343 29.1793 83.6912 29.2618 83.7363C29.3459 83.78 29.4238 83.8111 29.4955 83.8298L29.3179 84.0074C29.2104 83.9996 29.0796 83.9575 28.9254 83.8812C28.7712 83.8049 28.6373 83.7099 28.5236 83.5962C28.4176 83.4903 28.3367 83.3672 28.2806 83.227C28.2245 83.0869 28.2167 82.9342 28.2572 82.7691C28.2993 82.6056 28.4099 82.4342 28.589 82.2551ZM32.4813 82.7225L30.4978 84.706C30.4277 84.7761 30.3989 84.8423 30.4114 84.9046C30.4254 84.9684 30.5009 85.0845 30.638 85.2527L30.4604 85.4303L29.3133 84.2831L29.4909 84.1056C29.6591 84.2426 29.7744 84.3174 29.8367 84.3299C29.9005 84.3439 29.9675 84.3158 30.0376 84.2458L31.5351 82.7482C31.599 82.6843 31.6333 82.6314 31.6379 82.5893C31.6442 82.5488 31.6208 82.4865 31.5679 82.4024L31.4253 82.1711L31.5819 82.0146L32.4813 82.7225ZM32.6916 81.9515C32.6075 81.8674 32.5647 81.7685 32.5631 81.6548C32.5616 81.5411 32.6021 81.443 32.6846 81.3604C32.7672 81.2779 32.8645 81.2382 32.9766 81.2413C33.0903 81.2428 33.1892 81.2857 33.2734 81.3698C33.3575 81.4539 33.4003 81.5528 33.4018 81.6665C33.405 81.7786 33.3652 81.876 33.2827 81.9585C33.2001 82.0411 33.102 82.0816 32.9883 82.08C32.8746 82.0784 32.7757 82.0356 32.6916 81.9515ZM31.8506 86.9232C31.6295 86.7021 31.4815 86.4513 31.4067 86.171C31.3335 85.8922 31.3367 85.6102 31.4161 85.3252C31.4955 85.0402 31.6536 84.7793 31.8904 84.5426C32.1333 84.2996 32.3997 84.1392 32.6894 84.0613C32.9806 83.9818 33.2688 83.9803 33.5538 84.0566C33.8404 84.1345 34.0989 84.2887 34.3295 84.5192C34.5522 84.7419 34.7001 84.9927 34.7734 85.2715C34.8481 85.5518 34.8458 85.8345 34.7663 86.1196C34.6869 86.4046 34.5288 86.6655 34.2921 86.9022C34.0507 87.1436 33.7843 87.3041 33.4931 87.3835C33.2018 87.4629 32.9129 87.4637 32.6263 87.3858C32.3397 87.308 32.0812 87.1538 31.8506 86.9232ZM32.131 86.7176C32.3444 86.931 32.5936 87.012 32.8786 86.9606C33.1652 86.9108 33.4541 86.7402 33.7454 86.449C33.9525 86.2418 34.1005 86.0316 34.1893 85.8182C34.2812 85.6048 34.3147 85.4031 34.2897 85.2131C34.2664 85.0246 34.1862 84.8618 34.0491 84.7248C33.8373 84.513 33.5881 84.432 33.3015 84.4818C33.0165 84.5301 32.7275 84.7006 32.4347 84.9935C32.2276 85.2006 32.078 85.4109 31.9861 85.6243C31.8974 85.8376 31.8654 86.0393 31.8904 86.2294C31.9153 86.4194 31.9955 86.5821 32.131 86.7176ZM36.5677 86.8089L36.2126 87.164C36.3902 87.1235 36.581 87.1336 36.785 87.1943C36.9921 87.2551 37.1861 87.3758 37.3667 87.5565C37.6082 87.7979 37.7382 88.0603 37.7569 88.3438C37.7771 88.6257 37.6681 88.8858 37.4298 89.1241L36.1729 90.3811C36.1262 90.4278 36.0966 90.4714 36.0841 90.5119C36.0748 90.5524 36.0872 90.6038 36.1215 90.6661C36.1573 90.7268 36.2212 90.8141 36.3131 90.9278L36.1355 91.1053L35.0094 89.9792L35.187 89.8017C35.3458 89.9294 35.4541 89.9987 35.5117 90.0096C35.5709 90.022 35.634 89.9948 35.701 89.9278L36.8387 88.79C37.0303 88.5985 37.1253 88.4022 37.1238 88.2013C37.1253 88.0004 37.0404 87.8142 36.8691 87.6429C36.732 87.5059 36.5903 87.4155 36.4439 87.3719C36.299 87.3299 36.1674 87.3228 36.0491 87.3509L34.5865 88.8134C34.5196 88.8804 34.4923 88.9435 34.5048 89.0026C34.5172 89.0618 34.5873 89.1709 34.715 89.3297L34.5375 89.5073L33.4114 88.3812L33.5889 88.2036C33.7572 88.3407 33.8724 88.4155 33.9347 88.4279C33.9986 88.4419 34.0655 88.4139 34.1356 88.3438L35.6332 86.8462C35.6971 86.7824 35.7313 86.7294 35.736 86.6874C35.7422 86.6469 35.7189 86.5846 35.6659 86.5005L35.5234 86.2692L35.6799 86.1126L36.5677 86.8089ZM35.8552 92.1474L35.937 91.9301C36.0772 91.9924 36.2143 92.0236 36.3482 92.0236C36.4821 92.0236 36.5927 91.98 36.68 91.8927C36.7687 91.804 36.8092 91.6996 36.8014 91.5797C36.7952 91.4582 36.7446 91.3421 36.6496 91.2316C36.7617 91.1194 36.8855 91.0517 37.0211 91.0283C37.1581 91.0034 37.2812 91.0454 37.3902 91.1545C37.5023 91.2666 37.5452 91.3982 37.5187 91.5493C37.4953 91.7004 37.4167 91.8429 37.2827 91.9768C37.1425 92.117 36.9883 92.2105 36.8201 92.2572C36.6519 92.3039 36.4837 92.3148 36.3155 92.2899C36.1488 92.2665 35.9954 92.219 35.8552 92.1474ZM39.979 94.0236C39.9089 94.0937 39.863 94.1552 39.8412 94.2082C39.8209 94.2627 39.831 94.3274 39.8715 94.4021C39.9136 94.4784 39.9907 94.5836 40.1028 94.7175L39.9253 94.8951L38.6029 93.5727L38.7805 93.3952C38.916 93.5089 39.0211 93.586 39.0959 93.6265C39.1706 93.667 39.2345 93.6763 39.2875 93.6545C39.342 93.6343 39.4043 93.5891 39.4744 93.519L41.9228 91.0706C41.9929 91.0005 42.0381 90.9382 42.0583 90.8836C42.0801 90.8307 42.0708 90.7668 42.0303 90.6921C41.9898 90.6173 41.9127 90.5122 41.799 90.3767L41.9765 90.1991L43.2989 91.5215L43.1213 91.699C42.9874 91.5869 42.8822 91.5098 42.8059 91.4677C42.7312 91.4272 42.6665 91.4171 42.612 91.4374C42.5591 91.4592 42.4975 91.5051 42.4274 91.5752L39.979 94.0236ZM43.3013 93.5424L42.9462 93.8976C43.1237 93.8571 43.3145 93.8672 43.5186 93.9279C43.7257 93.9887 43.9196 94.1094 44.1003 94.2901C44.3417 94.5315 44.4718 94.7939 44.4905 95.0774C44.5107 95.3593 44.4017 95.6194 44.1634 95.8577L42.9065 97.1146C42.8597 97.1614 42.8302 97.205 42.8177 97.2455C42.8083 97.286 42.8208 97.3374 42.8551 97.3997C42.8909 97.4604 42.9548 97.5476 43.0467 97.6613L42.8691 97.8389L41.743 96.7128L41.9206 96.5352C42.0794 96.663 42.1877 96.7323 42.2453 96.7432C42.3045 96.7556 42.3676 96.7284 42.4345 96.6614L43.5723 95.5236C43.7639 95.332 43.8589 95.1358 43.8573 94.9349C43.8589 94.734 43.774 94.5478 43.6027 94.3765C43.4656 94.2394 43.3239 94.1491 43.1775 94.1055C43.0326 94.0634 42.901 94.0564 42.7826 94.0845L41.3201 95.547C41.2532 95.614 41.2259 95.677 41.2384 95.7362C41.2508 95.7954 41.3209 95.9044 41.4486 96.0633L41.2711 96.2409L40.145 95.1148L40.3225 94.9372C40.4907 95.0743 40.606 95.149 40.6683 95.1615C40.7322 95.1755 40.7991 95.1475 40.8692 95.0774L42.3668 93.5798C42.4306 93.516 42.4649 93.463 42.4696 93.421C42.4758 93.3805 42.4525 93.3182 42.3995 93.2341L42.257 93.0028L42.4135 92.8462L43.3013 93.5424ZM44.2219 99.2945C44.0085 99.0811 43.8645 98.8389 43.7897 98.5679C43.7149 98.2969 43.7165 98.0197 43.7944 97.7362C43.8738 97.4543 44.0358 97.1911 44.2803 96.9465C44.5389 96.688 44.8153 96.5221 45.1097 96.4489C45.4072 96.3757 45.6953 96.3804 45.9741 96.4629C46.256 96.5455 46.5029 96.6927 46.7147 96.9045C46.9873 97.177 47.1329 97.4333 47.1516 97.6731C47.1703 97.913 47.1049 98.1077 46.9554 98.2572C46.8744 98.3382 46.7817 98.3795 46.6774 98.381C46.5746 98.381 46.485 98.3429 46.4087 98.2665C46.3324 98.1902 46.2942 98.1007 46.2942 97.9979C46.2958 97.8966 46.3339 97.8086 46.4087 97.7339C46.4788 97.6638 46.5613 97.6264 46.6563 97.6217C46.7545 97.617 46.8362 97.6474 46.9016 97.7128C46.9639 97.7751 46.992 97.8546 46.9857 97.9511C46.9826 98.0477 46.9468 98.1303 46.8783 98.1988L46.7451 98.0656C46.8261 97.9099 46.8463 97.7635 46.8059 97.6264C46.7654 97.4893 46.6688 97.3445 46.5162 97.1918C46.376 97.0517 46.2132 96.9605 46.0279 96.9185C45.8441 96.8749 45.6509 96.8873 45.4485 96.9559C45.246 97.0244 45.049 97.1545 44.8574 97.346C44.6549 97.5485 44.5155 97.7627 44.4392 97.9885C44.366 98.2144 44.3566 98.4371 44.4111 98.6567C44.4672 98.8748 44.5864 99.0749 44.7686 99.2571C44.8839 99.3724 45.017 99.4651 45.1681 99.5351C45.3223 99.6052 45.4703 99.6442 45.612 99.652L45.4344 99.8295C45.2553 99.8435 45.0575 99.8077 44.841 99.7221C44.6261 99.6348 44.4197 99.4923 44.2219 99.2945ZM45.7569 100.802C45.6993 100.744 45.6604 100.677 45.6401 100.601C45.623 100.524 45.6238 100.447 45.6425 100.369C45.6643 100.291 45.704 100.224 45.7616 100.166C45.8224 100.105 45.8909 100.065 45.9672 100.045C46.0451 100.026 46.1214 100.026 46.1962 100.045C46.2725 100.065 46.3395 100.104 46.3971 100.161C46.4547 100.219 46.4929 100.285 46.5116 100.36C46.5318 100.436 46.5318 100.513 46.5116 100.589C46.4929 100.667 46.4532 100.736 46.3924 100.797C46.3348 100.854 46.2663 100.893 46.1868 100.914C46.1105 100.934 46.0334 100.935 45.9555 100.916C45.8808 100.897 45.8146 100.859 45.7569 100.802Z" fill="white"/>
<mask id="mask0_3911_19066" style="mask-type:luminance" maskUnits="userSpaceOnUse" x="50" y="57" width="6" height="5">
<path d="M54.5864 57.7797C54.2672 57.4606 53.8606 57.2432 53.4179 57.1551C52.9752 57.0671 52.5163 57.1123 52.0993 57.285C51.6823 57.4577 51.3259 57.7502 51.0752 58.1255C50.8244 58.5008 50.6905 58.942 50.6905 59.3934C50.6905 59.8448 50.8244 60.286 51.0752 60.6613C51.3259 61.0366 51.6823 61.3291 52.0993 61.5018C52.5163 61.6745 52.9752 61.7197 53.4179 61.6317C53.8606 61.5436 54.2672 61.3263 54.5864 61.0071C54.7983 60.7952 54.9664 60.5436 55.0811 60.2667C55.1957 59.9899 55.2548 59.6931 55.2548 59.3934C55.2548 59.0937 55.1957 58.797 55.0811 58.5201C54.9664 58.2432 54.7983 57.9916 54.5864 57.7797Z" fill="white"/>
</mask>
<g mask="url(#mask0_3911_19066)">
<path d="M56.2 59.3934L52.9727 56.166L49.7453 59.3934L52.9727 62.6208L56.2 59.3934Z" fill="white"/>
</g>
<path d="M48.7736 63.342L48.7736 60.852C48.7736 60.7462 48.8051 60.6428 48.8639 60.5549C48.9227 60.467 49.0062 60.3985 49.1039 60.358C49.2016 60.3176 49.3092 60.307 49.4129 60.3276C49.5166 60.3482 49.6119 60.3991 49.6868 60.4739L51.8918 62.6789C51.9665 62.7537 52.0174 62.849 52.0381 62.9527C52.0587 63.0565 52.0481 63.164 52.0076 63.2617C51.9672 63.3594 51.8987 63.443 51.8107 63.5018C51.7228 63.5606 51.6195 63.592 51.5137 63.5921L49.0236 63.5921C48.9908 63.5921 48.9583 63.5857 48.9279 63.5731C48.8976 63.5605 48.87 63.5421 48.8468 63.5189C48.8235 63.4957 48.8051 63.4681 48.7926 63.4377C48.78 63.4074 48.7735 63.3748 48.7736 63.342Z" fill="white"/>
<path d="M59.435 65.7567C59.4393 65.0817 58.9902 64.5758 58.3723 64.5599C57.7347 64.5433 57.2822 64.998 57.2492 65.6889C57.1612 67.5163 55.8575 68.7573 54.0277 68.7576C53.0223 68.7578 52.0168 68.7586 51.0113 68.76C50.3367 68.7595 49.6622 68.7686 48.9877 68.7461C48.7795 68.7438 48.5807 68.6596 48.4342 68.5117C48.2877 68.3638 48.2054 68.1641 48.2051 67.956C48.1954 67.5023 48.5121 67.1503 48.9767 67.1072C49.108 67.0948 49.2402 67.1026 49.3735 67.1018C50.9346 67.1015 52.4963 67.1088 54.0574 67.0989C54.881 67.0935 55.4207 66.5651 55.4119 65.8104C55.4033 65.0801 54.8569 64.5653 54.0532 64.5632C52.0703 64.5583 50.0871 64.5414 48.1043 64.5661C48.061 64.5667 48.018 64.5586 47.9779 64.5423C47.9378 64.526 47.9014 64.5018 47.8708 64.4712C47.8402 64.4406 47.816 64.4041 47.7997 64.364C47.7834 64.3239 47.7753 64.281 47.7759 64.2377C47.8003 62.2551 47.7834 60.2719 47.7788 58.2888C47.7775 57.4858 47.2616 56.9389 46.5316 56.9301C45.7769 56.9212 45.2493 57.4617 45.2431 58.2845C45.2329 59.8459 45.2402 61.4071 45.2402 62.9685C45.2402 63.1009 45.2471 63.2339 45.2348 63.3653C45.1916 63.8299 44.8396 64.1465 44.386 64.1369C44.1778 64.1366 43.9782 64.0543 43.8303 63.9078C43.6824 63.7613 43.5982 63.5624 43.5959 63.3543C43.5734 62.6798 43.5825 62.0052 43.582 61.3307C43.5811 60.3253 43.5819 59.3198 43.5844 58.3143C43.5846 56.4845 44.8262 55.1807 46.653 55.0928C47.3442 55.0595 47.7986 54.6073 47.782 53.9697C47.7662 53.3517 47.26 52.9024 46.5852 52.907C43.7787 52.9252 41.4179 55.2775 41.398 58.1151C41.3782 60.8931 41.3948 63.6712 41.3951 66.4495C41.3951 67.3241 41.401 69.478 41.4034 70.4488C41.4042 70.5784 41.456 70.7025 41.5477 70.7942C41.6394 70.8859 41.7635 70.9378 41.8932 70.9386C42.8643 70.9413 45.0179 70.9469 45.8924 70.9469C48.6705 70.9469 51.4488 70.9633 54.2269 70.944C57.0639 70.9246 59.4162 68.5643 59.435 65.7567Z" fill="white"/>
</g>
<defs>
<clipPath id="clip0_3911_19066">
<rect width="160" height="100" fill="white" transform="translate(-0.289062) rotate(45)"/>
</clipPath>
</defs>
</svg>
