<svg width="107" height="96" viewBox="0 0 107 96" fill="none" xmlns="http://www.w3.org/2000/svg">
<g clip-path="url(#clip0_855_6259)">
<path fill-rule="evenodd" clip-rule="evenodd" d="M43.5 23C44.5609 23 45.5783 22.5786 46.3284 21.8284C47.0786 21.0783 47.5 20.0609 47.5 19C47.5 17.9391 47.0786 16.9217 46.3284 16.1716C45.5783 15.4214 44.5609 15 43.5 15C42.4391 15 41.4217 15.4214 40.6716 16.1716C39.9214 16.9217 39.5 17.9391 39.5 19C39.5 20.0609 39.9214 21.0783 40.6716 21.8284C41.4217 22.5786 42.4391 23 43.5 23ZM43.5 25C45.0913 25 46.6174 24.3679 47.7426 23.2426C48.8679 22.1174 49.5 20.5913 49.5 19C49.5 17.4087 48.8679 15.8826 47.7426 14.7574C46.6174 13.6321 45.0913 13 43.5 13C41.9087 13 40.3826 13.6321 39.2574 14.7574C38.1321 15.8826 37.5 17.4087 37.5 19C37.5 20.5913 38.1321 22.1174 39.2574 23.2426C40.3826 24.3679 41.9087 25 43.5 25Z" fill="#07235B"/>
<path fill-rule="evenodd" clip-rule="evenodd" d="M41.208 22.7922C41.3011 22.8851 41.375 22.9955 41.4254 23.117C41.4758 23.2384 41.5018 23.3687 41.5018 23.5002C41.5018 23.6318 41.4758 23.762 41.4254 23.8835C41.375 24.005 41.3011 24.1153 41.208 24.2082L40.532 24.8822C39.2311 26.1835 38.5002 27.9482 38.5 29.7882V33.5002C38.5 33.7654 38.3946 34.0198 38.2071 34.2073C38.0196 34.3949 37.7652 34.5002 37.5 34.5002C37.2348 34.5002 36.9804 34.3949 36.7929 34.2073C36.6054 34.0198 36.5 33.7654 36.5 33.5002V29.7882C36.5003 27.4178 37.442 25.1445 39.118 23.4682L39.792 22.7922C39.8849 22.6991 39.9952 22.6252 40.1167 22.5748C40.2382 22.5244 40.3685 22.4984 40.5 22.4984C40.6315 22.4984 40.7618 22.5244 40.8833 22.5748C41.0048 22.6252 41.1151 22.6991 41.208 22.7922ZM64.792 22.1922C64.6989 22.2851 64.625 22.3955 64.5746 22.517C64.5242 22.6384 64.4982 22.7687 64.4982 22.9002C64.4982 23.0318 64.5242 23.162 64.5746 23.2835C64.625 23.405 64.6989 23.5153 64.792 23.6082L65.468 24.2822C66.1122 24.9265 66.6233 25.6914 66.9719 26.5331C67.3206 27.3749 67.5 28.2771 67.5 29.1882V33.5002C67.5 33.7654 67.6054 34.0198 67.7929 34.2073C67.9804 34.3949 68.2348 34.5002 68.5 34.5002C68.7652 34.5002 69.0196 34.3949 69.2071 34.2073C69.3946 34.0198 69.5 33.7654 69.5 33.5002V29.1882C69.4997 26.8178 68.558 24.5445 66.882 22.8682L66.208 22.1922C66.1151 22.0991 66.0048 22.0252 65.8833 21.9748C65.7618 21.9244 65.6315 21.8984 65.5 21.8984C65.3685 21.8984 65.2382 21.9244 65.1167 21.9748C64.9952 22.0252 64.8849 22.0991 64.792 22.1922Z" fill="#07235B"/>
<path fill-rule="evenodd" clip-rule="evenodd" d="M61.5 23C60.4391 23 59.4217 22.5786 58.6716 21.8284C57.9214 21.0783 57.5 20.0609 57.5 19C57.5 17.9391 57.9214 16.9217 58.6716 16.1716C59.4217 15.4214 60.4391 15 61.5 15C62.5609 15 63.5783 15.4214 64.3284 16.1716C65.0786 16.9217 65.5 17.9391 65.5 19C65.5 20.0609 65.0786 21.0783 64.3284 21.8284C63.5783 22.5786 62.5609 23 61.5 23ZM61.5 25C59.9087 25 58.3826 24.3679 57.2574 23.2426C56.1321 22.1174 55.5 20.5913 55.5 19C55.5 17.4087 56.1321 15.8826 57.2574 14.7574C58.3826 13.6321 59.9087 13 61.5 13C63.0913 13 64.6174 13.6321 65.7426 14.7574C66.8679 15.8826 67.5 17.4087 67.5 19C67.5 20.5913 66.8679 22.1174 65.7426 23.2426C64.6174 24.3679 63.0913 25 61.5 25ZM52.5 31.5C51.1739 31.5 49.9021 32.0268 48.9645 32.9645C48.0268 33.9021 47.5 35.1739 47.5 36.5V39.1C47.5 39.3652 47.3946 39.6196 47.2071 39.8071C47.0196 39.9946 46.7652 40.1 46.5 40.1C46.2348 40.1 45.9804 39.9946 45.7929 39.8071C45.6054 39.6196 45.5 39.3652 45.5 39.1V36.5C45.5 34.6435 46.2375 32.863 47.5503 31.5503C48.863 30.2375 50.6435 29.5 52.5 29.5C54.3565 29.5 56.137 30.2375 57.4497 31.5503C58.7625 32.863 59.5 34.6435 59.5 36.5V39.1C59.5 39.3652 59.3946 39.6196 59.2071 39.8071C59.0196 39.9946 58.7652 40.1 58.5 40.1C58.2348 40.1 57.9804 39.9946 57.7929 39.8071C57.6054 39.6196 57.5 39.3652 57.5 39.1V36.5C57.5 35.1739 56.9732 33.9021 56.0355 32.9645C55.0979 32.0268 53.8261 31.5 52.5 31.5Z" fill="#07235B"/>
<path fill-rule="evenodd" clip-rule="evenodd" d="M52.5 28.5C53.5609 28.5 54.5783 28.0786 55.3284 27.3284C56.0786 26.5783 56.5 25.5609 56.5 24.5C56.5 23.4391 56.0786 22.4217 55.3284 21.6716C54.5783 20.9214 53.5609 20.5 52.5 20.5C51.4391 20.5 50.4217 20.9214 49.6716 21.6716C48.9214 22.4217 48.5 23.4391 48.5 24.5C48.5 25.5609 48.9214 26.5783 49.6716 27.3284C50.4217 28.0786 51.4391 28.5 52.5 28.5ZM52.5 30.5C54.0913 30.5 55.6174 29.8679 56.7426 28.7426C57.8679 27.6174 58.5 26.0913 58.5 24.5C58.5 22.9087 57.8679 21.3826 56.7426 20.2574C55.6174 19.1321 54.0913 18.5 52.5 18.5C50.9087 18.5 49.3826 19.1321 48.2574 20.2574C47.1321 21.3826 46.5 22.9087 46.5 24.5C46.5 26.0913 47.1321 27.6174 48.2574 28.7426C49.3826 29.8679 50.9087 30.5 52.5 30.5Z" fill="#07235B"/>
<path fill-rule="evenodd" clip-rule="evenodd" d="M53.5 48C66.202 48 76.5 37.702 76.5 25C76.5 12.298 66.202 2 53.5 2C40.798 2 30.5 12.298 30.5 25C30.5 37.702 40.798 48 53.5 48ZM53.5 50C67.308 50 78.5 38.808 78.5 25C78.5 11.192 67.308 0 53.5 0C39.692 0 28.5 11.192 28.5 25C28.5 38.808 39.692 50 53.5 50Z" fill="#07235B"/>
</g>
<path d="M5.25 72.625L7.92969 63.625H10.5391L6.57812 75H4.85938L5.25 72.625ZM2.78125 63.625L5.45312 72.625L5.85938 75H4.125L0.1875 63.625H2.78125ZM13.8359 66.5469V75H11.5781V66.5469H13.8359ZM11.4375 64.3438C11.4375 64.0156 11.5521 63.7448 11.7812 63.5312C12.0104 63.3177 12.3177 63.2109 12.7031 63.2109C13.0833 63.2109 13.388 63.3177 13.6172 63.5312C13.8516 63.7448 13.9688 64.0156 13.9688 64.3438C13.9688 64.6719 13.8516 64.9427 13.6172 65.1562C13.388 65.3698 13.0833 65.4766 12.7031 65.4766C12.3177 65.4766 12.0104 65.3698 11.7812 65.1562C11.5521 64.9427 11.4375 64.6719 11.4375 64.3438ZM19.5859 75.1562C18.9297 75.1562 18.3411 75.0521 17.8203 74.8438C17.2995 74.6302 16.8568 74.3359 16.4922 73.9609C16.1328 73.5859 15.8568 73.151 15.6641 72.6562C15.4714 72.1562 15.375 71.625 15.375 71.0625V70.75C15.375 70.1094 15.4661 69.5234 15.6484 68.9922C15.8307 68.4609 16.0911 68 16.4297 67.6094C16.7734 67.2188 17.1901 66.9193 17.6797 66.7109C18.1693 66.4974 18.7214 66.3906 19.3359 66.3906C19.9349 66.3906 20.4661 66.4896 20.9297 66.6875C21.3932 66.8854 21.7812 67.1667 22.0938 67.5312C22.4115 67.8958 22.651 68.3333 22.8125 68.8438C22.974 69.349 23.0547 69.9115 23.0547 70.5312V71.4688H16.3359V69.9688H20.8438V69.7969C20.8438 69.4844 20.7865 69.2057 20.6719 68.9609C20.5625 68.7109 20.3958 68.513 20.1719 68.3672C19.9479 68.2214 19.6615 68.1484 19.3125 68.1484C19.0156 68.1484 18.7604 68.2135 18.5469 68.3438C18.3333 68.474 18.1589 68.6562 18.0234 68.8906C17.8932 69.125 17.7943 69.401 17.7266 69.7188C17.6641 70.0312 17.6328 70.375 17.6328 70.75V71.0625C17.6328 71.401 17.6797 71.7135 17.7734 72C17.8724 72.2865 18.0104 72.5339 18.1875 72.7422C18.3698 72.9505 18.5885 73.112 18.8438 73.2266C19.1042 73.3411 19.3984 73.3984 19.7266 73.3984C20.1328 73.3984 20.5104 73.3203 20.8594 73.1641C21.2135 73.0026 21.5182 72.7604 21.7734 72.4375L22.8672 73.625C22.6901 73.8802 22.4479 74.125 22.1406 74.3594C21.8385 74.5938 21.474 74.7865 21.0469 74.9375C20.6198 75.0833 20.1328 75.1562 19.5859 75.1562ZM26.75 72.8125L28.5078 66.5469H29.9375L29.4766 69.0078L27.7188 75H26.5234L26.75 72.8125ZM25.8594 66.5469L27.1172 72.8047L27.2344 75H25.8281L23.6875 66.5469H25.8594ZM31.5469 72.7031L32.7734 66.5469H34.9531L32.8125 75H31.4141L31.5469 72.7031ZM30.1328 66.5469L31.8828 72.7656L32.125 75H30.9219L29.1641 69.0156L28.7188 66.5469H30.1328ZM39.7109 70.8594V70.6953C39.7109 70.0755 39.7995 69.5052 39.9766 68.9844C40.1536 68.4583 40.4115 68.0026 40.75 67.6172C41.0885 67.2318 41.5052 66.9323 42 66.7188C42.4948 66.5 43.0625 66.3906 43.7031 66.3906C44.3438 66.3906 44.9141 66.5 45.4141 66.7188C45.9141 66.9323 46.3333 67.2318 46.6719 67.6172C47.0156 68.0026 47.276 68.4583 47.4531 68.9844C47.6302 69.5052 47.7188 70.0755 47.7188 70.6953V70.8594C47.7188 71.474 47.6302 72.0443 47.4531 72.5703C47.276 73.0911 47.0156 73.5469 46.6719 73.9375C46.3333 74.3229 45.9167 74.6224 45.4219 74.8359C44.9271 75.0495 44.3594 75.1562 43.7188 75.1562C43.0781 75.1562 42.5078 75.0495 42.0078 74.8359C41.513 74.6224 41.0938 74.3229 40.75 73.9375C40.4115 73.5469 40.1536 73.0911 39.9766 72.5703C39.7995 72.0443 39.7109 71.474 39.7109 70.8594ZM41.9609 70.6953V70.8594C41.9609 71.2135 41.9922 71.5443 42.0547 71.8516C42.1172 72.1589 42.2161 72.4297 42.3516 72.6641C42.4922 72.8932 42.6745 73.0729 42.8984 73.2031C43.1224 73.3333 43.3958 73.3984 43.7188 73.3984C44.0312 73.3984 44.2995 73.3333 44.5234 73.2031C44.7474 73.0729 44.9271 72.8932 45.0625 72.6641C45.1979 72.4297 45.2969 72.1589 45.3594 71.8516C45.4271 71.5443 45.4609 71.2135 45.4609 70.8594V70.6953C45.4609 70.3516 45.4271 70.0286 45.3594 69.7266C45.2969 69.4193 45.1953 69.1484 45.0547 68.9141C44.9193 68.6745 44.7396 68.487 44.5156 68.3516C44.2917 68.2161 44.0208 68.1484 43.7031 68.1484C43.3854 68.1484 43.1146 68.2161 42.8906 68.3516C42.6719 68.487 42.4922 68.6745 42.3516 68.9141C42.2161 69.1484 42.1172 69.4193 42.0547 69.7266C41.9922 70.0286 41.9609 70.3516 41.9609 70.6953ZM54.1016 72.9766V66.5469H56.3516V75H54.2344L54.1016 72.9766ZM54.3516 71.2422L55.0156 71.2266C55.0156 71.7891 54.9505 72.3125 54.8203 72.7969C54.6901 73.276 54.4948 73.6927 54.2344 74.0469C53.974 74.3958 53.6458 74.6693 53.25 74.8672C52.8542 75.0599 52.388 75.1562 51.8516 75.1562C51.4401 75.1562 51.0599 75.099 50.7109 74.9844C50.3672 74.8646 50.0703 74.6797 49.8203 74.4297C49.5755 74.1745 49.3828 73.849 49.2422 73.4531C49.1068 73.0521 49.0391 72.5703 49.0391 72.0078V66.5469H51.2891V72.0234C51.2891 72.2734 51.3177 72.4844 51.375 72.6562C51.4375 72.8281 51.5234 72.9688 51.6328 73.0781C51.7422 73.1875 51.8698 73.2656 52.0156 73.3125C52.1667 73.3594 52.3333 73.3828 52.5156 73.3828C52.9792 73.3828 53.3438 73.2891 53.6094 73.1016C53.8802 72.9141 54.0703 72.6589 54.1797 72.3359C54.2943 72.0078 54.3516 71.6432 54.3516 71.2422ZM60.3203 68.3906V75H58.0703V66.5469H60.1875L60.3203 68.3906ZM62.8672 66.4922L62.8281 68.5781C62.7188 68.5625 62.5859 68.5495 62.4297 68.5391C62.2786 68.5234 62.1406 68.5156 62.0156 68.5156C61.6979 68.5156 61.4219 68.5573 61.1875 68.6406C60.9583 68.7188 60.7656 68.8359 60.6094 68.9922C60.4583 69.1484 60.3438 69.3385 60.2656 69.5625C60.1927 69.7865 60.151 70.0417 60.1406 70.3281L59.6875 70.1875C59.6875 69.6406 59.7422 69.138 59.8516 68.6797C59.9609 68.2161 60.1198 67.8125 60.3281 67.4688C60.5417 67.125 60.8021 66.8594 61.1094 66.6719C61.4167 66.4844 61.7682 66.3906 62.1641 66.3906C62.2891 66.3906 62.4167 66.401 62.5469 66.4219C62.6771 66.4375 62.7839 66.4609 62.8672 66.4922ZM72.7188 63.625V75H70.3828V63.625H72.7188ZM76.2188 63.625V65.4609H66.9375V63.625H76.2188ZM80.5703 75.1562C79.9141 75.1562 79.3255 75.0521 78.8047 74.8438C78.2839 74.6302 77.8411 74.3359 77.4766 73.9609C77.1172 73.5859 76.8411 73.151 76.6484 72.6562C76.4557 72.1562 76.3594 71.625 76.3594 71.0625V70.75C76.3594 70.1094 76.4505 69.5234 76.6328 68.9922C76.8151 68.4609 77.0755 68 77.4141 67.6094C77.7578 67.2188 78.1745 66.9193 78.6641 66.7109C79.1536 66.4974 79.7057 66.3906 80.3203 66.3906C80.9193 66.3906 81.4505 66.4896 81.9141 66.6875C82.3776 66.8854 82.7656 67.1667 83.0781 67.5312C83.3958 67.8958 83.6354 68.3333 83.7969 68.8438C83.9583 69.349 84.0391 69.9115 84.0391 70.5312V71.4688H77.3203V69.9688H81.8281V69.7969C81.8281 69.4844 81.7708 69.2057 81.6562 68.9609C81.5469 68.7109 81.3802 68.513 81.1562 68.3672C80.9323 68.2214 80.6458 68.1484 80.2969 68.1484C80 68.1484 79.7448 68.2135 79.5312 68.3438C79.3177 68.474 79.1432 68.6562 79.0078 68.8906C78.8776 69.125 78.7786 69.401 78.7109 69.7188C78.6484 70.0312 78.6172 70.375 78.6172 70.75V71.0625C78.6172 71.401 78.6641 71.7135 78.7578 72C78.8568 72.2865 78.9948 72.5339 79.1719 72.7422C79.3542 72.9505 79.5729 73.112 79.8281 73.2266C80.0885 73.3411 80.3828 73.3984 80.7109 73.3984C81.1172 73.3984 81.4948 73.3203 81.8438 73.1641C82.1979 73.0026 82.5026 72.7604 82.7578 72.4375L83.8516 73.625C83.6745 73.8802 83.4323 74.125 83.125 74.3594C82.8229 74.5938 82.4583 74.7865 82.0312 74.9375C81.6042 75.0833 81.1172 75.1562 80.5703 75.1562ZM89.8828 73.0938V69.3281C89.8828 69.0573 89.8385 68.8255 89.75 68.6328C89.6615 68.4349 89.5234 68.2812 89.3359 68.1719C89.1536 68.0625 88.9167 68.0078 88.625 68.0078C88.375 68.0078 88.1589 68.0521 87.9766 68.1406C87.7943 68.224 87.6536 68.3464 87.5547 68.5078C87.4557 68.6641 87.4062 68.849 87.4062 69.0625H85.1562C85.1562 68.7031 85.2396 68.362 85.4062 68.0391C85.5729 67.7161 85.8151 67.4323 86.1328 67.1875C86.4505 66.9375 86.8281 66.7422 87.2656 66.6016C87.7083 66.4609 88.2031 66.3906 88.75 66.3906C89.4062 66.3906 89.9896 66.5 90.5 66.7188C91.0104 66.9375 91.4115 67.2656 91.7031 67.7031C92 68.1406 92.1484 68.6875 92.1484 69.3438V72.9609C92.1484 73.4245 92.1771 73.8047 92.2344 74.1016C92.2917 74.3932 92.375 74.6484 92.4844 74.8672V75H90.2109C90.1016 74.7708 90.0182 74.4844 89.9609 74.1406C89.9089 73.7917 89.8828 73.4427 89.8828 73.0938ZM90.1797 69.8516L90.1953 71.125H88.9375C88.6406 71.125 88.3828 71.1589 88.1641 71.2266C87.9453 71.2943 87.7656 71.3906 87.625 71.5156C87.4844 71.6354 87.3802 71.776 87.3125 71.9375C87.25 72.099 87.2188 72.276 87.2188 72.4688C87.2188 72.6615 87.263 72.8359 87.3516 72.9922C87.4401 73.1432 87.5677 73.263 87.7344 73.3516C87.901 73.4349 88.0964 73.4766 88.3203 73.4766C88.6589 73.4766 88.9531 73.4089 89.2031 73.2734C89.4531 73.138 89.6458 72.9714 89.7812 72.7734C89.9219 72.5755 89.9948 72.388 90 72.2109L90.5938 73.1641C90.5104 73.3776 90.3958 73.599 90.25 73.8281C90.1094 74.0573 89.9297 74.2734 89.7109 74.4766C89.4922 74.6745 89.2292 74.8385 88.9219 74.9688C88.6146 75.0938 88.25 75.1562 87.8281 75.1562C87.2917 75.1562 86.8047 75.0495 86.3672 74.8359C85.9349 74.6172 85.5911 74.3177 85.3359 73.9375C85.0859 73.5521 84.9609 73.1146 84.9609 72.625C84.9609 72.1823 85.0443 71.7891 85.2109 71.4453C85.3776 71.1016 85.6224 70.8125 85.9453 70.5781C86.2734 70.3385 86.6823 70.1589 87.1719 70.0391C87.6615 69.9141 88.2292 69.8516 88.875 69.8516H90.1797ZM96.1328 68.2969V75H93.875V66.5469H95.9922L96.1328 68.2969ZM95.8203 70.4766H95.1953C95.1953 69.888 95.2656 69.3464 95.4062 68.8516C95.5521 68.3516 95.763 67.9193 96.0391 67.5547C96.3203 67.1849 96.6667 66.8984 97.0781 66.6953C97.4896 66.4922 97.9661 66.3906 98.5078 66.3906C98.8828 66.3906 99.2266 66.4479 99.5391 66.5625C99.8516 66.6719 100.12 66.8464 100.344 67.0859C100.573 67.3203 100.75 67.6276 100.875 68.0078C101 68.3828 101.062 68.8333 101.062 69.3594V75H98.8125V69.6094C98.8125 69.224 98.7604 68.9271 98.6562 68.7188C98.5521 68.5104 98.4036 68.3646 98.2109 68.2812C98.0234 68.1979 97.7969 68.1562 97.5312 68.1562C97.2396 68.1562 96.9844 68.2161 96.7656 68.3359C96.5521 68.4557 96.375 68.6224 96.2344 68.8359C96.0938 69.0443 95.9896 69.2891 95.9219 69.5703C95.8542 69.8516 95.8203 70.1536 95.8203 70.4766ZM100.852 70.2188L100.047 70.3203C100.047 69.7682 100.115 69.2552 100.25 68.7812C100.391 68.3073 100.596 67.8906 100.867 67.5312C101.143 67.1719 101.484 66.8932 101.891 66.6953C102.297 66.4922 102.766 66.3906 103.297 66.3906C103.703 66.3906 104.073 66.4505 104.406 66.5703C104.74 66.6849 105.023 66.8698 105.258 67.125C105.497 67.375 105.68 67.7031 105.805 68.1094C105.935 68.5156 106 69.013 106 69.6016V75H103.742V69.6016C103.742 69.2109 103.69 68.9141 103.586 68.7109C103.487 68.5026 103.341 68.3594 103.148 68.2812C102.961 68.1979 102.737 68.1562 102.477 68.1562C102.206 68.1562 101.969 68.2109 101.766 68.3203C101.562 68.4245 101.393 68.5703 101.258 68.7578C101.122 68.9453 101.021 69.1641 100.953 69.4141C100.885 69.6589 100.852 69.9271 100.852 70.2188Z" fill="#07235B"/>
<defs>
<clipPath id="clip0_855_6259">
<rect width="50" height="50" fill="white" transform="translate(28.5)"/>
</clipPath>
</defs>
</svg>
