<svg xmlns="http://www.w3.org/2000/svg" width="45" height="49" viewBox="0 0 45 49" fill="none">
<path fill-rule="evenodd" clip-rule="evenodd" d="M11.25 24.3767C11.25 23.3865 12.0055 22.5837 12.9375 22.5837H27.8728L23.0179 17.8996C22.3461 17.2133 22.3251 16.0782 22.9711 15.3645C23.6171 14.6507 24.6853 14.6284 25.3571 15.3147L33.2321 23.0843C33.563 23.4223 33.75 23.889 33.75 24.3767C33.75 24.8644 33.563 25.3311 33.2321 25.6691L25.3571 33.4387C24.6853 34.125 23.6171 34.1028 22.9711 33.389C22.3251 32.6752 22.3461 31.5401 23.0179 30.8538L27.8728 26.1697H12.9375C12.0055 26.1697 11.25 25.3669 11.25 24.3767Z" fill="currentColor"/>
</svg>