<svg width="46" height="61" viewBox="0 0 46 61" fill="none" xmlns="http://www.w3.org/2000/svg">
<rect x="1.5" width="44" height="44" rx="22" fill="#0D99FF"/>
<path d="M32.5752 15.5162L26.0934 21.998L32.5752 28.4799C32.919 28.8237 33.1121 29.29 33.1121 29.7762C33.1121 30.2625 32.919 30.7288 32.5752 31.0726C32.2314 31.4164 31.765 31.6096 31.2788 31.6096C30.7926 31.6096 30.3263 31.4164 29.9824 31.0726L23.5006 24.5908L17.0188 31.0726C16.675 31.4164 16.2087 31.6096 15.7225 31.6096C15.2362 31.6096 14.7699 31.4164 14.4261 31.0726C14.0823 30.7288 13.8891 30.2625 13.8891 29.7762C13.8891 29.29 14.0823 28.8237 14.4261 28.4799L20.9079 21.998L14.4261 15.5162C14.0823 15.1724 13.8891 14.7061 13.8891 14.2199C13.8891 13.7336 14.0823 13.2673 14.4261 12.9235C14.7699 12.5797 15.2362 12.3865 15.7225 12.3865C16.2087 12.3865 16.675 12.5797 17.0188 12.9235L23.5006 19.4053L29.9824 12.9235C30.3263 12.5797 30.7926 12.3865 31.2788 12.3865C31.765 12.3865 32.2314 12.5797 32.5752 12.9235C32.919 13.2673 33.1121 13.7336 33.1121 14.2199C33.1121 14.7061 32.919 15.1724 32.5752 15.5162Z" fill="white"/>
<path d="M12.2021 55.6611H13.5449C13.5091 56.1364 13.3773 56.5579 13.1494 56.9258C12.9215 57.2904 12.6042 57.5768 12.1973 57.7852C11.7904 57.9935 11.2972 58.0977 10.7178 58.0977C10.2718 58.0977 9.86979 58.0195 9.51172 57.8633C9.1569 57.7038 8.85254 57.4775 8.59863 57.1846C8.34798 56.8883 8.15592 56.5335 8.02246 56.1201C7.889 55.7035 7.82227 55.2363 7.82227 54.7188V54.1768C7.82227 53.6592 7.89062 53.1921 8.02734 52.7754C8.16406 52.3587 8.35938 52.0039 8.61328 51.7109C8.87044 51.4147 9.17806 51.1868 9.53613 51.0273C9.89746 50.8678 10.3011 50.7881 10.7471 50.7881C11.3265 50.7881 11.8164 50.8955 12.2168 51.1104C12.6172 51.3219 12.9281 51.6133 13.1494 51.9844C13.3708 52.3555 13.5042 52.7819 13.5498 53.2637H12.207C12.181 52.9642 12.1159 52.7103 12.0117 52.502C11.9108 52.2936 11.7578 52.1357 11.5527 52.0283C11.3509 51.9176 11.0824 51.8623 10.7471 51.8623C10.4867 51.8623 10.2572 51.9111 10.0586 52.0088C9.86328 52.1064 9.70052 52.2529 9.57031 52.4482C9.4401 52.6403 9.34245 52.8812 9.27734 53.1709C9.21224 53.4574 9.17969 53.7894 9.17969 54.167V54.7188C9.17969 55.0801 9.20898 55.404 9.26758 55.6904C9.32617 55.9769 9.41732 56.2194 9.54102 56.418C9.66471 56.6165 9.82422 56.7679 10.0195 56.8721C10.2148 56.9762 10.4476 57.0283 10.7178 57.0283C11.0465 57.0283 11.3135 56.9762 11.5186 56.8721C11.7269 56.7679 11.8848 56.6149 11.9922 56.4131C12.1029 56.2113 12.1729 55.9606 12.2021 55.6611ZM19.0967 56.9453V58H15.5225V56.9453H19.0967ZM15.9277 50.8906V58H14.585V50.8906H15.9277ZM25.4297 54.2646V54.6309C25.4297 55.168 25.3581 55.6514 25.2148 56.0811C25.0716 56.5075 24.8682 56.8704 24.6045 57.1699C24.3408 57.4694 24.0267 57.6989 23.6621 57.8584C23.2975 58.0179 22.8923 58.0977 22.4463 58.0977C22.0068 58.0977 21.6032 58.0179 21.2354 57.8584C20.8708 57.6989 20.555 57.4694 20.2881 57.1699C20.0212 56.8704 19.8145 56.5075 19.668 56.0811C19.5215 55.6514 19.4482 55.168 19.4482 54.6309V54.2646C19.4482 53.7243 19.5215 53.2409 19.668 52.8145C19.8145 52.388 20.0195 52.0251 20.2832 51.7256C20.5469 51.4229 20.861 51.1917 21.2256 51.0322C21.5934 50.8727 21.9971 50.793 22.4365 50.793C22.8825 50.793 23.2878 50.8727 23.6523 51.0322C24.0169 51.1917 24.3311 51.4229 24.5947 51.7256C24.8617 52.0251 25.0667 52.388 25.21 52.8145C25.3564 53.2409 25.4297 53.7243 25.4297 54.2646ZM24.0723 54.6309V54.2549C24.0723 53.8675 24.0365 53.5273 23.9648 53.2344C23.8932 52.9382 23.7874 52.6891 23.6475 52.4873C23.5075 52.2855 23.335 52.1341 23.1299 52.0332C22.9248 51.929 22.6937 51.877 22.4365 51.877C22.1761 51.877 21.945 51.929 21.7432 52.0332C21.5446 52.1341 21.3753 52.2855 21.2354 52.4873C21.0954 52.6891 20.988 52.9382 20.9131 53.2344C20.8415 53.5273 20.8057 53.8675 20.8057 54.2549V54.6309C20.8057 55.015 20.8415 55.3551 20.9131 55.6514C20.988 55.9476 21.0954 56.1982 21.2354 56.4033C21.3786 56.6051 21.5511 56.7581 21.7529 56.8623C21.9548 56.9665 22.1859 57.0186 22.4463 57.0186C22.7067 57.0186 22.9378 56.9665 23.1396 56.8623C23.3415 56.7581 23.5107 56.6051 23.6475 56.4033C23.7874 56.1982 23.8932 55.9476 23.9648 55.6514C24.0365 55.3551 24.0723 55.015 24.0723 54.6309ZM30.2881 56.1543C30.2881 56.0176 30.2669 55.8955 30.2246 55.7881C30.1855 55.6774 30.1123 55.5781 30.0049 55.4902C29.9007 55.3991 29.7526 55.3112 29.5605 55.2266C29.3717 55.1387 29.1276 55.0475 28.8281 54.9531C28.4961 54.849 28.1868 54.7318 27.9004 54.6016C27.6139 54.4714 27.3617 54.32 27.1436 54.1475C26.9287 53.9749 26.7611 53.7764 26.6406 53.5518C26.5202 53.3239 26.46 53.0602 26.46 52.7607C26.46 52.4678 26.5218 52.2008 26.6455 51.96C26.7725 51.7191 26.9515 51.5124 27.1826 51.3398C27.4137 51.1641 27.6855 51.029 27.998 50.9346C28.3138 50.8402 28.6621 50.793 29.043 50.793C29.5703 50.793 30.026 50.889 30.4102 51.0811C30.7975 51.2731 31.097 51.5335 31.3086 51.8623C31.5202 52.1911 31.626 52.5605 31.626 52.9707H30.2881C30.2881 52.7493 30.2409 52.554 30.1465 52.3848C30.0553 52.2155 29.9154 52.082 29.7266 51.9844C29.541 51.8867 29.3066 51.8379 29.0234 51.8379C28.75 51.8379 28.5221 51.8786 28.3398 51.96C28.1608 52.0413 28.0257 52.152 27.9346 52.292C27.8467 52.432 27.8027 52.5882 27.8027 52.7607C27.8027 52.891 27.8337 53.0081 27.8955 53.1123C27.9574 53.2132 28.0501 53.3092 28.1738 53.4004C28.2975 53.4883 28.4505 53.5713 28.6328 53.6494C28.8184 53.7243 29.0332 53.7992 29.2773 53.874C29.668 53.9912 30.0098 54.1214 30.3027 54.2646C30.599 54.4079 30.8447 54.5706 31.04 54.7529C31.2386 54.9352 31.3867 55.1403 31.4844 55.3682C31.5853 55.596 31.6357 55.8548 31.6357 56.1445C31.6357 56.4505 31.5755 56.724 31.4551 56.9648C31.3346 57.2057 31.1621 57.4108 30.9375 57.5801C30.7129 57.7493 30.4427 57.8779 30.127 57.9658C29.8145 58.0537 29.4645 58.0977 29.0771 58.0977C28.7321 58.0977 28.3903 58.0521 28.0518 57.9609C27.7165 57.8665 27.4121 57.7266 27.1387 57.541C26.8652 57.3522 26.6471 57.1146 26.4844 56.8281C26.3216 56.5384 26.2402 56.1999 26.2402 55.8125H27.5879C27.5879 56.0371 27.6237 56.2292 27.6953 56.3887C27.7702 56.5449 27.8743 56.6735 28.0078 56.7744C28.1445 56.8721 28.304 56.9437 28.4863 56.9893C28.6686 57.0348 28.8656 57.0576 29.0771 57.0576C29.3506 57.0576 29.5752 57.0202 29.751 56.9453C29.93 56.8672 30.0635 56.7598 30.1514 56.623C30.2425 56.4863 30.2881 56.3301 30.2881 56.1543ZM37.3828 56.9453V58H33.6035V56.9453H37.3828ZM34.0137 50.8906V58H32.6709V50.8906H34.0137ZM36.8896 53.8252V54.8555H33.6035V53.8252H36.8896ZM37.3682 50.8906V51.9502H33.6035V50.8906H37.3682Z" fill="#0D99FF"/>
</svg>
