<svg width="41" height="40" viewBox="0 0 41 40" fill="none" xmlns="http://www.w3.org/2000/svg">
<g clip-path="url(#clip0_17421_83810)">
<path d="M3.16406 34.1654V9.9987M3.16406 34.1654C3.16406 34.1654 3.16406 39.1654 0.664062 39.1654M3.16406 34.1654H38.1641M38.1641 34.1654C38.1641 34.1654 38.1641 39.1654 40.6641 39.1654M38.1641 34.1654V24.9987C38.1641 23.4516 37.5495 21.9679 36.4555 20.8739C35.3616 19.7799 33.8778 19.1654 32.3307 19.1654H18.1641V25.832M3.16406 29.1654H38.1641M18.1641 6.66536H20.7857C21.2503 6.66535 21.7056 6.53591 22.1007 6.29157C22.4957 6.04722 22.8149 5.69764 23.0224 5.28203L25.2474 0.832031H25.6641L31.4974 12.4987H31.9141L34.1391 8.0487C34.3465 7.63309 34.6657 7.2835 35.0608 7.03916C35.4559 6.79482 35.9112 6.66538 36.3757 6.66536H38.9974M14.8307 22.332C14.8307 22.332 13.1641 24.9987 11.0807 24.9987C10.3072 24.9987 9.56532 24.6914 9.01833 24.1444C8.47135 23.5974 8.16406 22.8556 8.16406 22.082C8.16406 20.472 9.47073 19.172 11.0807 19.172C13.1641 19.172 14.8307 21.832 14.8307 21.832V22.332Z" stroke="#07235B" stroke-width="2"/>
</g>
<defs>
<clipPath id="clip0_17421_83810">
<rect width="40" height="40" fill="white" transform="translate(0.664062)"/>
</clipPath>
</defs>
</svg>
