<svg width="41" height="40" viewBox="0 0 41 40" fill="none" xmlns="http://www.w3.org/2000/svg">
<g clip-path="url(#clip0_17421_83805)">
<path d="M4 39.168H37.3333M15.0767 25.0013C15.8679 25.8855 16.8575 26.5694 17.9644 26.9968C19.0713 27.4242 20.2638 27.5828 21.4439 27.4597C22.624 27.3367 23.7581 26.9353 24.7529 26.2888C25.7478 25.6422 26.575 24.7688 27.1667 23.7403C27.7584 22.7119 28.0977 21.5577 28.1566 20.3727C28.2155 19.1876 27.9924 18.0055 27.5057 16.9234C27.0189 15.8413 26.2824 14.8902 25.3566 14.1481C24.4308 13.406 23.3421 12.8942 22.18 12.6546M22.18 12.6546L18.1667 16.668L12.3333 10.8346L21.45 1.71797C21.7301 1.43778 22.0627 1.21551 22.4288 1.06387C22.7948 0.912229 23.1871 0.83418 23.5833 0.83418C23.9795 0.83418 24.3719 0.912229 24.7379 1.06387C25.104 1.21551 25.4365 1.43778 25.7167 1.71797L27.2833 3.28464C27.5635 3.56477 27.7858 3.89735 27.9374 4.26339C28.0891 4.62943 28.1671 5.02176 28.1671 5.41797C28.1671 5.81418 28.0891 6.2065 27.9374 6.57255C27.7858 6.93859 27.5635 7.27117 27.2833 7.5513L26.0967 8.73797M22.18 12.6546L26.0967 8.73797M9.20667 25.0013C9.94858 26.6965 11.0567 28.2063 12.4514 29.4224C13.8462 30.6385 15.4929 31.5306 17.2733 32.0346M17.2733 32.0346C18.2334 31.2571 19.4313 30.8329 20.6667 30.8329C21.9021 30.8329 23.1 31.2571 24.06 32.0346M17.2733 32.0346C16.6748 32.5195 16.1872 33.127 15.8433 33.8163L14.8333 35.8346C14.8333 35.8346 13.1667 39.168 9.83333 39.168H31.5C28.1667 39.168 26.5 35.8346 26.5 35.8346L25.49 33.8163C25.1461 33.1271 24.6585 32.5195 24.06 32.0346M11.5 15.8346L14 18.3346M4 22.5013H19M26.0967 8.73797C28.3823 9.84093 30.2782 11.6132 31.5326 13.8194C32.7869 16.0255 33.3404 18.5611 33.1193 21.0893C32.8983 23.6174 31.9133 26.0185 30.2952 27.9736C28.677 29.9286 26.5023 31.345 24.06 32.0346M26.5 2.5013L28.3333 0.667969" stroke="#07235B" stroke-width="2"/>
</g>
<defs>
<clipPath id="clip0_17421_83805">
<rect width="40" height="40" fill="white" transform="translate(0.664062)"/>
</clipPath>
</defs>
</svg>
