<svg width="41" height="40" viewBox="0 0 41 40" fill="none" xmlns="http://www.w3.org/2000/svg">
<path d="M27.8422 2.5371C28.1637 2.61741 28.4402 2.82211 28.6108 3.1062C28.7815 3.3903 28.8323 3.73053 28.7522 4.0521L28.1272 6.5521C28.0906 6.71462 28.0219 6.8682 27.9251 7.00379C27.8284 7.13939 27.7055 7.25428 27.5637 7.34171C27.4219 7.42913 27.264 7.48733 27.0994 7.51288C26.9348 7.53844 26.7667 7.53083 26.6051 7.4905C26.4435 7.45018 26.2915 7.37795 26.1582 7.27807C26.0249 7.17818 25.9129 7.05266 25.8287 6.90887C25.7446 6.76508 25.6901 6.60592 25.6684 6.44076C25.6466 6.2756 25.6581 6.10775 25.7022 5.9471L26.3272 3.4471C26.4075 3.12557 26.6122 2.84909 26.8963 2.67845C27.1804 2.50781 27.5206 2.45696 27.8422 2.5371ZM35.2997 5.3671C35.534 5.60151 35.6657 5.91939 35.6657 6.25085C35.6657 6.5823 35.534 6.90019 35.2997 7.1346L32.7997 9.6346C32.6844 9.75398 32.5464 9.84921 32.3939 9.91472C32.2414 9.98023 32.0774 10.0147 31.9114 10.0162C31.7455 10.0176 31.5809 9.98598 31.4272 9.92312C31.2736 9.86027 31.134 9.76746 31.0167 9.65009C30.8993 9.53272 30.8065 9.39316 30.7436 9.23954C30.6808 9.08592 30.6492 8.92132 30.6506 8.75535C30.6521 8.58937 30.6865 8.42535 30.752 8.27284C30.8176 8.12034 30.9128 7.98241 31.0322 7.8671L33.5322 5.3671C33.7666 5.13276 34.0845 5.00111 34.4159 5.00111C34.7474 5.00111 35.0653 5.13276 35.2997 5.3671ZM16.3747 32.5821C17.0021 33.6266 17.9893 34.4061 19.1509 34.7741C20.3125 35.1421 21.5684 35.0733 22.6828 34.5805C23.7972 34.0878 24.6934 33.2051 25.2029 32.0982C25.7123 30.9914 25.8001 29.7366 25.4497 28.5696L16.3747 32.5821ZM14.0747 33.5971L11.5797 34.7021C10.9341 34.9873 10.2175 35.0706 9.52372 34.9412C8.82997 34.8119 8.19153 34.4758 7.69218 33.9771L6.69218 32.9796C6.19283 32.4844 5.85547 31.8494 5.72469 31.1584C5.5939 30.4674 5.67584 29.753 5.95968 29.1096L15.6372 7.0896C15.8665 6.56961 16.219 6.11327 16.6641 5.76003C17.1093 5.40679 17.6338 5.16727 18.1923 5.06217C18.7508 4.95706 19.3265 4.98954 19.8697 5.15679C20.4128 5.32404 20.907 5.62103 21.3097 6.0221L34.6397 19.3121C35.0413 19.7126 35.3391 20.2051 35.5074 20.7467C35.6756 21.2883 35.7093 21.8628 35.6053 22.4204C35.5014 22.978 35.2631 23.5018 34.9109 23.9464C34.5588 24.3911 34.1036 24.7431 33.5847 24.9721L27.7472 27.5521C28.3642 29.3305 28.29 31.2759 27.5392 33.002C26.7884 34.7282 25.416 36.109 23.6944 36.8701C21.9727 37.6313 20.0278 37.7173 18.2458 37.1109C16.4637 36.5046 14.9748 35.2503 14.0747 33.5971ZM36.9147 12.4996H34.4147C34.0832 12.4996 33.7652 12.6313 33.5308 12.8657C33.2964 13.1001 33.1647 13.4181 33.1647 13.7496C33.1647 14.0811 33.2964 14.3991 33.5308 14.6335C33.7652 14.8679 34.0832 14.9996 34.4147 14.9996H36.9147C37.2462 14.9996 37.5641 14.8679 37.7986 14.6335C38.033 14.3991 38.1647 14.0811 38.1647 13.7496C38.1647 13.4181 38.033 13.1001 37.7986 12.8657C37.5641 12.6313 37.2462 12.4996 36.9147 12.4996ZM17.9272 8.0946L8.24718 30.1146C8.16573 30.2964 8.14195 30.4989 8.17905 30.6947C8.21615 30.8904 8.31234 31.0701 8.45468 31.2096L9.45718 32.2096C9.60003 32.3516 9.78243 32.4471 9.98049 32.4837C10.1785 32.5203 10.383 32.4962 10.5672 32.4146L32.5722 22.6846C32.7187 22.6198 32.8473 22.5202 32.9468 22.3946C33.0462 22.269 33.1137 22.121 33.1432 21.9635C33.1727 21.806 33.1635 21.6437 33.1163 21.4906C33.069 21.3375 32.9853 21.1981 32.8722 21.0846L19.5472 7.7896C19.4325 7.67555 19.2918 7.59103 19.1372 7.54329C18.9827 7.49556 18.8188 7.48603 18.6598 7.51553C18.5007 7.54503 18.3512 7.61268 18.224 7.71266C18.0969 7.81265 17.9959 7.94199 17.9297 8.0896" fill="#07235B"/>
</svg>
