<svg xmlns="http://www.w3.org/2000/svg" width="30" height="30" viewBox="0 0 30 30" fill="none">
  <path d="M15 30C23.2843 30 30 23.2843 30 15C30 6.71573 23.2843 0 15 0C6.71573 0 0 6.71573 0 15C0 23.2843 6.71573 30 15 30Z" fill="#EEBD60"/>
  <path d="M21.2455 22.8132C21.208 22.6641 20.2721 19.1641 15.008 19.1641C9.74296 19.1641 8.80796 22.6641 8.77046 22.8132C8.72463 22.9941 8.80629 23.1816 8.96796 23.2749C9.13046 23.3674 9.33379 23.3399 9.46796 23.2107C9.48379 23.1949 11.0963 21.6641 15.008 21.6641C18.9196 21.6641 20.533 23.1949 20.548 23.2099C20.628 23.2891 20.7346 23.3307 20.8413 23.3307C20.9113 23.3307 20.9821 23.3132 21.0463 23.2774C21.2096 23.1841 21.2913 22.9949 21.2455 22.8132Z" fill="#664500"/>
  <path d="M10.0052 14.1654C11.1558 14.1654 12.0885 12.8595 12.0885 11.2487C12.0885 9.63787 11.1558 8.33203 10.0052 8.33203C8.85462 8.33203 7.92188 9.63787 7.92188 11.2487C7.92188 12.8595 8.85462 14.1654 10.0052 14.1654Z" fill="#664500"/>
  <path d="M20.013 14.1654C21.1636 14.1654 22.0964 12.8595 22.0964 11.2487C22.0964 9.63787 21.1636 8.33203 20.013 8.33203C18.8624 8.33203 17.9297 9.63787 17.9297 11.2487C17.9297 12.8595 18.8624 14.1654 20.013 14.1654Z" fill="#664500"/>
</svg>