<svg xmlns="http://www.w3.org/2000/svg" width="50" height="50" viewBox="0 0 50 50" fill="none">
  <rect width="50" height="50" rx="15" fill="#F0F7FD"/>
  <path d="M24.9896 24.9948C27.1997 24.9948 29.3193 24.1168 30.8821 22.554C32.4449 20.9912 33.3229 18.8716 33.3229 16.6615C33.3229 14.4513 32.4449 12.3317 30.8821 10.7689C29.3193 9.2061 27.1997 8.32813 24.9896 8.32812C22.7794 8.32813 20.6598 9.2061 19.097 10.7689C17.5342 12.3317 16.6563 14.4513 16.6562 16.6615C16.6563 18.8716 17.5342 20.9912 19.097 22.554C20.6598 24.1168 22.7794 24.9948 24.9896 24.9948Z" stroke="#07235B" stroke-width="1.5" stroke-linecap="round" stroke-linejoin="round"/>
  <path d="M45.8254 35.994C45.8252 37.2476 45.3295 38.4502 44.4462 39.3398C42.4129 41.3898 40.44 43.5273 38.3296 45.5023C38.0939 45.7176 37.7844 45.834 37.4652 45.8274C37.146 45.8208 36.8416 45.6917 36.615 45.4669L30.5358 39.3419C29.6522 38.4517 29.1562 37.2483 29.1562 35.994C29.1562 34.7397 29.6522 33.5363 30.5358 32.6461C30.9768 32.2016 31.5014 31.8487 32.0794 31.608C32.6574 31.3672 33.2774 31.2432 33.9035 31.2432C34.5297 31.2432 35.1496 31.3672 35.7276 31.608C36.3057 31.8487 36.8303 32.2016 37.2712 32.6461L37.4921 32.869L37.7129 32.6461C38.3752 31.9781 39.2211 31.5221 40.1432 31.336C41.0652 31.1499 42.0218 31.2421 42.8913 31.6009C43.7608 31.9598 44.504 32.569 45.0265 33.3512C45.5489 34.1335 45.827 35.0534 45.8254 35.994Z" stroke="#07235B" stroke-width="1.5" stroke-linejoin="round"/>
  <path d="M10.4063 41.6619V39.5785C10.4057 37.1181 11.0278 34.6975 12.2144 32.5421C13.4011 30.3867 15.1138 28.5666 17.1932 27.2512C19.2725 25.9358 21.6509 25.1679 24.1068 25.0189C26.5628 24.87 29.0165 25.3449 31.2396 26.3994" stroke="#07235B" stroke-width="1.5" stroke-linecap="round" stroke-linejoin="round"/>
</svg>