<svg xmlns="http://www.w3.org/2000/svg" width="92" height="76" viewBox="0 0 92 76" fill="none">
  <path fill-rule="evenodd" clip-rule="evenodd" d="M0.3125 4.06719C0.3125 2.29989 1.73961 0.867188 3.5 0.867188H88.5C90.2604 0.867188 91.6875 2.29989 91.6875 4.06719V72.3338C91.6875 74.1011 90.2604 75.5339 88.5 75.5339H3.5C1.73961 75.5339 0.3125 74.1011 0.3125 72.3338V4.06719ZM6.6875 7.26719V17.9339H85.3125V7.26719H6.6875ZM65.3587 36.0864C66.5428 34.7787 66.4467 32.755 65.1441 31.5659C63.8415 30.3772 61.8257 30.4736 60.6413 31.7813L41.8545 52.528L33.5737 42.5521C32.4467 41.1944 30.4368 41.011 29.0844 42.1421C27.732 43.2736 27.5493 45.2913 28.6763 46.6489L39.3012 59.4489C39.8915 60.1602 40.7598 60.58 41.6811 60.5997C42.603 60.6197 43.4883 60.2378 44.1087 59.553L65.3587 36.0864Z" fill="#07235B"/>
</svg>