<svg width="15" height="16" viewBox="0 0 15 16" fill="none" xmlns="http://www.w3.org/2000/svg">
<path d="M1.9205 0.829505C1.48116 0.390165 0.768845 0.390165 0.329505 0.829505C-0.109835 1.26884 -0.109835 1.98116 0.329505 2.4205L5.90901 8L0.329505 13.5795C-0.109835 14.0188 -0.109835 14.7312 0.329505 15.1705C0.768845 15.6098 1.48116 15.6098 1.9205 15.1705L7.5 9.59099L13.0795 15.1705C13.5188 15.6098 14.2312 15.6098 14.6705 15.1705C15.1098 14.7312 15.1098 14.0188 14.6705 13.5795L9.09099 8L14.6705 2.4205C15.1098 1.98116 15.1098 1.26884 14.6705 0.829505C14.2312 0.390165 13.5188 0.390165 13.0795 0.829505L7.5 6.40901L1.9205 0.829505Z" fill="#00325D"/>
</svg>
