<svg width="41" height="41" viewBox="0 0 41 41" fill="none" xmlns="http://www.w3.org/2000/svg">
<g clip-path="url(#clip0_17421_83832)">
<path d="M9.29911 36.9263L3.83054 31.4578C2.75882 30.3864 2.15657 28.9332 2.15625 27.4178V15.4978C2.15625 14.74 2.45727 14.0133 2.99309 13.4775C3.52891 12.9416 4.25563 12.6406 5.01339 12.6406C5.77115 12.6406 6.49788 12.9416 7.0337 13.4775C7.56952 14.0133 7.87054 14.74 7.87054 15.4978V24.0692M32.0363 36.9263L37.5048 31.4578C38.5755 30.3859 39.1767 28.9328 39.1763 27.4178V15.4978C39.1763 14.74 38.8752 14.0133 38.3394 13.4775C37.8036 12.9416 37.0769 12.6406 36.3191 12.6406C35.5613 12.6406 34.8346 12.9416 34.2988 13.4775C33.763 14.0133 33.462 14.74 33.462 15.4978V24.0692" stroke="#07235B" stroke-width="2" stroke-linecap="round" stroke-linejoin="round"/>
<path d="M10.4861 29.2932L8.4661 27.2732C7.94565 26.7343 7.65766 26.0126 7.66417 25.2635C7.67068 24.5143 7.97116 23.7977 8.5009 23.268C9.03064 22.7382 9.74725 22.4378 10.4964 22.4312C11.2455 22.4247 11.9672 22.7127 12.5061 23.2332L16.2004 26.9275C17.271 27.9993 17.8722 29.4525 17.8718 30.9675V36.9275M30.8518 29.2932L32.8718 27.2732C33.3923 26.7343 33.6802 26.0126 33.6737 25.2635C33.6672 24.5143 33.3667 23.7977 32.837 23.268C32.3073 22.7382 31.5907 22.4378 30.8415 22.4312C30.0924 22.4247 29.3707 22.7127 28.8318 23.2332L25.1375 26.9275C24.0669 27.9993 23.4657 29.4525 23.4661 30.9675V36.9275M26.4432 15.2589C26.4432 12.0389 20.729 4.07031 20.729 4.07031C20.729 4.07031 15.0147 12.0417 15.0147 15.2589C15.0147 16.836 15.6175 18.3532 16.689 19.4703C17.7604 20.5846 19.2147 21.2132 20.729 21.2132C22.2432 21.2132 23.7004 20.5846 24.7718 19.4703C25.8503 18.334 26.4489 16.8255 26.4432 15.2589Z" stroke="#07235B" stroke-width="2" stroke-linecap="round" stroke-linejoin="round"/>
</g>
<defs>
<clipPath id="clip0_17421_83832">
<rect width="40" height="40" fill="white" transform="translate(0.664062 0.5)"/>
</clipPath>
</defs>
</svg>
