<svg width="41" height="40" viewBox="0 0 41 40" fill="none" xmlns="http://www.w3.org/2000/svg">
<g clip-path="url(#clip0_17421_83815)">
<path d="M29.2366 7.14397V21.4297M29.2366 7.14397L24.9509 1.42969M29.2366 7.14397L33.5223 1.42969M2.09375 31.4297L9.07661 37.2468C10.1035 38.1018 11.3975 38.5699 12.7338 38.5697H31.1395C32.4538 38.5697 33.5223 37.504 33.5223 36.1897C33.5223 33.5611 31.3909 31.4268 28.7595 31.4268H15.9623M39.2366 7.14397H19.2366V21.4297H39.2366V7.14397Z" stroke="#07235B" stroke-width="2" stroke-linecap="round" stroke-linejoin="round"/>
<path d="M10.6652 28.5725L12.808 30.7154C13.3764 31.2837 14.1472 31.603 14.9509 31.603C15.7546 31.603 16.5254 31.2837 17.0937 30.7154C17.6621 30.1471 17.9814 29.3763 17.9814 28.5725C17.9814 27.7688 17.6621 26.998 17.0937 26.4297L13.768 23.1011C13.2366 22.5703 12.6058 22.1495 11.9116 21.8627C11.2174 21.5759 10.4734 21.4287 9.72232 21.4297H2.09375" stroke="#07235B" stroke-width="2" stroke-linecap="round" stroke-linejoin="round"/>
</g>
<defs>
<clipPath id="clip0_17421_83815">
<rect width="40" height="40" fill="white" transform="translate(0.664062)"/>
</clipPath>
</defs>
</svg>
