<svg width="30" height="29" viewBox="0 0 30 29" fill="none" xmlns="http://www.w3.org/2000/svg">
<g id="LinkedIn - Original" clip-path="url(#clip0_775_4022)">
<path id="Vector" d="M27.3592 0H2.64076C2.073 0 1.52849 0.225544 1.12702 0.627016C0.725544 1.02849 0.5 1.573 0.5 2.14076V26.8592C0.5 27.427 0.725544 27.9715 1.12702 28.373C1.52849 28.7745 2.073 29 2.64076 29H27.3592C27.927 29 28.4715 28.7745 28.873 28.373C29.2745 27.9715 29.5 27.427 29.5 26.8592V2.14076C29.5 1.573 29.2745 1.02849 28.873 0.627016C28.4715 0.225544 27.927 0 27.3592 0ZM9.14361 24.7044H4.78354V10.8549H9.14361V24.7044ZM6.96056 8.93563C6.46598 8.93284 5.98331 8.78361 5.57347 8.50677C5.16363 8.22993 4.84497 7.83789 4.65773 7.38012C4.47048 6.92236 4.42303 6.41938 4.52137 5.93467C4.61971 5.44997 4.85943 5.00525 5.21027 4.65665C5.56111 4.30805 6.00736 4.0712 6.49269 3.97597C6.97802 3.88075 7.48068 3.93143 7.93723 4.12161C8.39379 4.31179 8.78378 4.63295 9.05798 5.04457C9.33218 5.45618 9.47831 5.93979 9.47792 6.43438C9.48258 6.7655 9.42054 7.09417 9.29547 7.40081C9.17041 7.70744 8.98489 7.98575 8.74998 8.21916C8.51507 8.45257 8.23557 8.6363 7.92814 8.75939C7.62071 8.88248 7.29164 8.94242 6.96056 8.93563ZM25.2144 24.7165H20.8564V17.1503C20.8564 14.9189 19.9079 14.2301 18.6834 14.2301C17.3905 14.2301 16.1217 15.2049 16.1217 17.2067V24.7165H11.7617V10.8649H15.9546V12.7842H16.011C16.4319 11.9323 17.906 10.4763 20.1556 10.4763C22.5883 10.4763 25.2165 11.9202 25.2165 16.1494L25.2144 24.7165Z" fill="#0A66C2"/>
</g>
<defs>
<clipPath id="clip0_775_4022">
<rect width="29" height="29" fill="white" transform="translate(0.5)"/>
</clipPath>
</defs>
</svg>
