<svg width="40" height="40" viewBox="0 0 40 40" fill="none" xmlns="http://www.w3.org/2000/svg">
<path d="M8.33594 26.6654L16.6693 21.6654M23.3359 18.332L31.6693 13.332M20.0026 8.33203V16.6654M20.0026 23.332V31.6654M8.33594 13.332L16.6693 18.332M23.3359 21.6654L31.6693 26.6654M34.1693 14.9987V24.1654M22.5026 34.1654L31.6693 29.1654M7.5026 29.1654L17.5026 34.1654M5.83594 24.9987V14.9987M7.5026 10.832L17.5026 5.83203M32.5026 10.832L22.5026 5.83203" stroke="#07235B" stroke-width="2" stroke-linecap="round" stroke-linejoin="round"/>
<path d="M20 8.33203C21.3807 8.33203 22.5 7.21274 22.5 5.83203C22.5 4.45132 21.3807 3.33203 20 3.33203C18.6193 3.33203 17.5 4.45132 17.5 5.83203C17.5 7.21274 18.6193 8.33203 20 8.33203Z" stroke="#07235B" stroke-width="2" stroke-linecap="round" stroke-linejoin="round"/>
<path d="M20 36.6641C21.3807 36.6641 22.5 35.5448 22.5 34.1641C22.5 32.7834 21.3807 31.6641 20 31.6641C18.6193 31.6641 17.5 32.7834 17.5 34.1641C17.5 35.5448 18.6193 36.6641 20 36.6641Z" stroke="#07235B" stroke-width="2" stroke-linecap="round" stroke-linejoin="round"/>
<path d="M5.83594 15C7.21665 15 8.33594 13.8807 8.33594 12.5C8.33594 11.1193 7.21665 10 5.83594 10C4.45523 10 3.33594 11.1193 3.33594 12.5C3.33594 13.8807 4.45523 15 5.83594 15Z" stroke="#07235B" stroke-width="2" stroke-linecap="round" stroke-linejoin="round"/>
<path d="M34.1719 15C35.5526 15 36.6719 13.8807 36.6719 12.5C36.6719 11.1193 35.5526 10 34.1719 10C32.7912 10 31.6719 11.1193 31.6719 12.5C31.6719 13.8807 32.7912 15 34.1719 15Z" stroke="#07235B" stroke-width="2" stroke-linecap="round" stroke-linejoin="round"/>
<path d="M34.1719 30C35.5526 30 36.6719 28.8807 36.6719 27.5C36.6719 26.1193 35.5526 25 34.1719 25C32.7912 25 31.6719 26.1193 31.6719 27.5C31.6719 28.8807 32.7912 30 34.1719 30Z" stroke="#07235B" stroke-width="2" stroke-linecap="round" stroke-linejoin="round"/>
<path d="M5.83594 30C7.21665 30 8.33594 28.8807 8.33594 27.5C8.33594 26.1193 7.21665 25 5.83594 25C4.45523 25 3.33594 26.1193 3.33594 27.5C3.33594 28.8807 4.45523 30 5.83594 30Z" stroke="#07235B" stroke-width="2" stroke-linecap="round" stroke-linejoin="round"/>
<path d="M20.0052 16.25L23.3385 18.125V21.875L20.0052 23.75L16.6719 21.875V18.125L20.0052 16.25Z" stroke="#07235B" stroke-width="2" stroke-linecap="round" stroke-linejoin="round"/>
</svg>
