<svg width="45" height="45" viewBox="0 0 45 45" fill="none" xmlns="http://www.w3.org/2000/svg">
<g id="ph:repeat-once-bold">
<path id="Vector" d="M3.45475 22.3139C3.45839 18.8506 4.83578 15.5302 7.28469 13.0813C9.73359 10.6324 13.054 9.25503 16.5173 9.25139H33.5329L32.9279 8.64811C32.736 8.45626 32.5838 8.22849 32.48 7.97783C32.3762 7.72716 32.3227 7.45849 32.3227 7.18717C32.3227 6.91585 32.3762 6.64719 32.48 6.39652C32.5838 6.14585 32.736 5.91809 32.9279 5.72623C33.1197 5.53438 33.3475 5.38219 33.5982 5.27836C33.8488 5.17453 34.1175 5.12109 34.3888 5.12109C34.6601 5.12109 34.9288 5.17453 35.1795 5.27836C35.4301 5.38219 35.6579 5.53438 35.8497 5.72623L39.9747 9.85123C40.167 10.0428 40.3196 10.2705 40.4237 10.5212C40.5278 10.7719 40.5814 11.0407 40.5814 11.3122C40.5814 11.5836 40.5278 11.8524 40.4237 12.1031C40.3196 12.3538 40.167 12.5815 39.9747 12.7731L35.8497 16.8981C35.4623 17.2856 34.9368 17.5033 34.3888 17.5033C33.8409 17.5033 33.3153 17.2856 32.9279 16.8981C32.5404 16.5106 32.3227 15.9851 32.3227 15.4372C32.3227 14.8892 32.5404 14.3637 32.9279 13.9762L33.5329 13.3764H16.5173C14.1477 13.3791 11.876 14.3216 10.2005 15.9971C8.52498 17.6727 7.58248 19.9444 7.57975 22.3139C7.57975 22.8609 7.36245 23.3855 6.97566 23.7723C6.58887 24.1591 6.06426 24.3764 5.51725 24.3764C4.97024 24.3764 4.44564 24.1591 4.05884 23.7723C3.67205 23.3855 3.45475 22.8609 3.45475 22.3139ZM38.5172 20.2514C37.9702 20.2514 37.4456 20.4687 37.0588 20.8555C36.672 21.2423 36.4547 21.7669 36.4547 22.3139C36.452 24.6834 35.5095 26.9551 33.834 28.6306C32.1585 30.3062 29.8868 31.2487 27.5172 31.2514H10.5016L11.1066 30.6481C11.2985 30.4563 11.4507 30.2285 11.5545 29.9778C11.6583 29.7272 11.7118 29.4585 11.7118 29.1872C11.7118 28.9159 11.6583 28.6472 11.5545 28.3965C11.4507 28.1459 11.2985 27.9181 11.1066 27.7262C10.9148 27.5344 10.687 27.3822 10.4363 27.2784C10.1857 27.1745 9.91701 27.1211 9.64569 27.1211C9.37437 27.1211 9.1057 27.1745 8.85503 27.2784C8.60437 27.3822 8.3766 27.5344 8.18475 27.7262L4.05975 31.8512C3.86747 32.0428 3.71491 32.2705 3.61081 32.5212C3.50671 32.7719 3.45313 33.0407 3.45312 33.3122C3.45312 33.5836 3.50671 33.8524 3.61081 34.1031C3.71491 34.3538 3.86747 34.5815 4.05975 34.7731L8.18475 38.8981C8.3766 39.09 8.60437 39.2421 8.85503 39.346C9.1057 39.4498 9.37437 39.5033 9.64569 39.5033C9.91701 39.5033 10.1857 39.4498 10.4363 39.346C10.687 39.2421 10.9148 39.09 11.1066 38.8981C11.2985 38.7063 11.4507 38.4785 11.5545 38.2278C11.6583 37.9772 11.7118 37.7085 11.7118 37.4372C11.7118 37.1659 11.6583 36.8972 11.5545 36.6465C11.4507 36.3959 11.2985 36.1681 11.1066 35.9762L10.5016 35.3764H27.5172C30.9805 35.3728 34.3009 33.9954 36.7498 31.5465C39.1987 29.0975 40.5761 25.7772 40.5797 22.3139C40.5797 21.7669 40.3624 21.2423 39.9757 20.8555C39.5889 20.4687 39.0643 20.2514 38.5172 20.2514ZM23.3923 28.5014C23.9393 28.5014 24.4639 28.2841 24.8507 27.8973C25.2374 27.5105 25.4547 26.9859 25.4547 26.4389V18.1889C25.4549 17.8374 25.3651 17.4917 25.1941 17.1846C25.023 16.8775 24.7763 16.6192 24.4774 16.4343C24.1784 16.2494 23.8372 16.1439 23.4861 16.1279C23.1349 16.1119 22.7855 16.1859 22.471 16.343L19.721 17.718C19.2658 17.9606 18.918 18.365 18.7462 18.8514C18.5745 19.3378 18.5912 19.8709 18.7932 20.3455C18.9951 20.8202 19.3676 21.202 19.8372 21.4155C20.3067 21.6291 20.8393 21.6589 21.3298 21.4992V26.4389C21.3298 26.9859 21.547 27.5105 21.9338 27.8973C22.3206 28.2841 22.8452 28.5014 23.3923 28.5014Z" fill="#07235B"/>
</g>
</svg>
