<svg width="25" height="20" viewBox="0 0 25 20" fill="none" xmlns="http://www.w3.org/2000/svg">
<path fill-rule="evenodd" clip-rule="evenodd" d="M0.25 3C0.25 1.55025 1.42525 0.375 2.875 0.375H22.125C23.5747 0.375 24.75 1.55025 24.75 3V17C24.75 18.4497 23.5747 19.625 22.125 19.625H2.875C1.42525 19.625 0.25 18.4497 0.25 17V3ZM2 14.7374V17C2 17.4832 2.39175 17.875 2.875 17.875H22.125C22.6082 17.875 23 17.4832 23 17V14.7374L19.8624 11.5999C19.179 10.9165 18.071 10.9165 17.3876 11.5999L16.3624 12.625L17.4937 13.7563C17.8354 14.098 17.8354 14.652 17.4937 14.9937C17.152 15.3354 16.598 15.3354 16.2563 14.9937L10.2374 8.97487C9.55402 8.29146 8.44598 8.29146 7.76257 8.97487L2 14.7374ZM13.8125 5.625C13.8125 4.90013 14.4001 4.3125 15.125 4.3125C15.8499 4.3125 16.4375 4.90013 16.4375 5.625C16.4375 6.34987 15.8499 6.9375 15.125 6.9375C14.4001 6.9375 13.8125 6.34987 13.8125 5.625Z" fill="#07235B"/>
</svg>
