<svg width="18" height="18" viewBox="0 0 18 18" fill="none" xmlns="http://www.w3.org/2000/svg">
<path fill-rule="evenodd" clip-rule="evenodd" d="M3.59961 0.601562C1.94276 0.601562 0.599609 1.94471 0.599609 3.60156V7.05598C0.599609 7.85163 0.915679 8.61469 1.47829 9.1773L9.27829 16.9773C10.4499 18.1489 12.3494 18.1489 13.5209 16.9773L16.9753 13.5229C18.1469 12.3513 18.1469 10.4518 16.9753 9.28024L9.17534 1.48024C8.61274 0.917633 7.84967 0.601562 7.05402 0.601562H3.59961ZM4.19961 5.40156C4.86235 5.40156 5.39961 4.8643 5.39961 4.20156C5.39961 3.53882 4.86235 3.00156 4.19961 3.00156C3.53687 3.00156 2.99961 3.53882 2.99961 4.20156C2.99961 4.8643 3.53687 5.40156 4.19961 5.40156Z" fill="#07235B"/>
</svg>
