<svg width="38" height="38" viewBox="0 0 38 38" fill="none" xmlns="http://www.w3.org/2000/svg">
<g id="fluent-mdl2:recurring-event" clip-path="url(#clip0_690_5289)">
<path id="Vector" d="M32.4129 28.0666L18.5379 28.068L18.5381 30.3805L34.7256 30.3789L34.7229 2.62891L30.0979 2.62936L30.0977 0.316858L27.7852 0.317083L27.7854 2.62958L11.5979 2.63116L11.5977 0.318663L9.28516 0.318889L9.28538 2.63139L4.66038 2.63184L4.66196 18.8193L6.97446 18.8191L6.97378 11.8816L32.4113 11.8791L32.4129 28.0666ZM32.4106 4.94163L32.4111 9.56663L6.97356 9.56911L6.97311 4.94411L9.28561 4.94389L9.28583 7.25639L11.5983 7.25616L11.5981 4.94366L27.7856 4.94208L27.7858 7.25458L30.0983 7.25436L30.0981 4.94186L32.4106 4.94163ZM0.0371877 21.1323L0.0378648 28.0698L6.97536 28.0691L6.97514 25.7566L3.54252 25.7569C4.08444 25.0342 4.75887 24.4681 5.56579 24.0585C6.37272 23.6489 7.22784 23.4441 8.13116 23.444C8.84177 23.4439 9.51024 23.5643 10.1366 23.8051C10.7629 24.046 11.335 24.3771 11.853 24.7986C12.3709 25.2201 12.7925 25.732 13.1178 26.3341C13.443 26.9363 13.6719 27.5807 13.8045 28.2672L16.0989 27.8695C15.9302 26.8939 15.6049 25.9967 15.123 25.1777C14.6412 24.3587 14.0509 23.6482 13.3523 23.046C12.6537 22.4439 11.8527 21.9742 10.9493 21.6371C10.046 21.2999 9.10652 21.1314 8.13094 21.1315C7.03491 21.1316 5.98708 21.3425 4.98744 21.7641C3.98781 22.1858 3.10864 22.8001 2.34993 23.6072L2.34969 21.1321L0.0371877 21.1323ZM8.13229 35.0065C7.43372 35.0066 6.76525 34.8862 6.12689 34.6454C5.48852 34.4045 4.91638 34.0734 4.41048 33.6519C3.90458 33.2304 3.48298 32.7185 3.14568 32.1164C2.80838 31.5142 2.57948 30.8698 2.45897 30.1833L0.164575 30.581C0.333291 31.5566 0.658574 32.4538 1.14042 33.2728C1.62227 34.0918 2.21251 34.8023 2.91114 35.4045C3.60977 36.0066 4.41076 36.4763 5.31411 36.8134C6.21746 37.1506 7.15693 37.3191 8.13252 37.319C9.22855 37.3189 10.2764 37.108 11.276 36.6864C12.2756 36.2647 13.1548 35.6504 13.9135 34.8433L13.9138 37.3184L16.2263 37.3182L16.2256 30.3807L9.28809 30.3814L9.28832 32.6939L12.7209 32.6936C12.179 33.4163 11.5046 33.9824 10.6977 34.392C9.89073 34.8016 9.03561 35.0064 8.13229 35.0065Z" fill="#07235B"/>
</g>
<defs>
<clipPath id="clip0_690_5289">
<rect width="37" height="37" fill="white" transform="matrix(-1 9.76053e-05 9.76053e-05 1 37.0352 0.316406)"/>
</clipPath>
</defs>
</svg>
