<svg width="164" height="88" viewBox="0 0 164 88" fill="none" xmlns="http://www.w3.org/2000/svg">
<mask id="mask0_34_675" style="mask-type:luminance" maskUnits="userSpaceOnUse" x="76" y="0" width="12" height="11">
<path d="M81.9999 0C80.9225 0 79.8692 0.319496 78.9733 0.918093C78.0775 1.51669 77.3792 2.3675 76.9669 3.36293C76.5546 4.35836 76.4467 5.4537 76.6569 6.51045C76.8671 7.56719 77.386 8.53787 78.1478 9.29974C78.9097 10.0616 79.8804 10.5805 80.9371 10.7907C81.9939 11.0008 83.0892 10.893 84.0846 10.4806C85.0801 10.0683 85.9309 9.37009 86.5295 8.47422C87.1281 7.57836 87.4476 6.52511 87.4476 5.44766C87.4476 4.73227 87.3067 4.02387 87.0329 3.36293C86.7591 2.70199 86.3578 2.10144 85.852 1.59558C85.3461 1.08972 84.7456 0.688447 84.0846 0.414676C83.4237 0.140906 82.7153 0 81.9999 0Z" fill="white"/>
</mask>
<g mask="url(#mask0_34_675)">
<path d="M87.4476 0H76.5522V10.8953H87.4476V0Z" fill="#07235B"/>
</g>
<path d="M103.5 11.8329C102.377 10.6753 100.78 10.5784 99.7191 11.6045C98.6246 12.6625 98.6282 14.2084 99.729 15.4418C102.639 18.7054 102.534 23.0416 99.4733 26.1599C97.7914 27.8733 96.1105 29.5879 94.4304 31.3037C93.3009 32.4522 92.1875 33.6171 91.0212 34.7281C90.6691 35.0789 90.1955 35.2742 89.7029 35.2718C89.2104 35.2694 88.7386 35.0695 88.3898 34.7153C87.6147 33.9588 87.5555 32.8195 88.2606 31.9543C88.4598 31.7094 88.694 31.4974 88.9156 31.269C91.5272 28.6085 94.1523 25.9598 96.7477 23.2828C98.1168 21.8703 98.1356 20.0503 96.8581 18.7794C95.6218 17.5496 93.8463 17.6035 92.4979 18.9694C89.1722 22.3399 85.8258 25.6903 82.5493 29.111C82.4779 29.1857 82.3924 29.2451 82.298 29.2857C82.2037 29.3262 82.1023 29.3471 81.9998 29.3471C81.8974 29.3471 81.796 29.3262 81.7016 29.2857C81.6072 29.2451 81.5218 29.1857 81.4503 29.111C78.1739 25.6912 74.8275 22.3408 71.5018 18.9694C70.156 17.6035 68.3779 17.5505 67.1416 18.7794C65.864 20.0503 65.8856 21.8703 67.2519 23.2828C69.8474 25.9607 72.4716 28.6085 75.0841 31.269C75.3057 31.4947 75.5399 31.7094 75.739 31.9543C76.4442 32.8195 76.385 33.9588 75.6098 34.7153C75.2611 35.0695 74.7893 35.2694 74.2967 35.2718C73.8042 35.2742 73.3306 35.0789 72.9785 34.7281C71.8122 33.6171 70.6988 32.4522 69.5693 31.3037C67.8856 29.5922 66.2046 27.8775 64.5264 26.1599C61.4653 23.0416 61.3612 18.7045 64.2707 15.4418C65.3715 14.2075 65.3751 12.6625 64.2805 11.6045C63.2201 10.5784 61.6214 10.6753 60.4999 11.8329C55.8347 16.646 55.8204 24.677 60.5349 29.5459C65.1499 34.3133 69.8259 39.0186 74.4749 43.7523C75.9382 45.2424 79.5519 48.9025 81.1803 50.5526C81.3986 50.7722 81.693 50.8953 81.9998 50.8953C82.3066 50.8953 82.6011 50.7722 82.8194 50.5526C84.4486 48.9025 88.0615 45.2424 89.5247 43.7523C94.1729 39.0186 98.8489 34.3124 103.465 29.5459C108.179 24.6788 108.166 16.6487 103.5 11.8329Z" fill="#07235B"/>
<path d="M81.5777 19.8399L77.3735 15.9943C77.1951 15.8308 77.0736 15.6226 77.0244 15.396C76.9753 15.1694 77.0006 14.9346 77.0973 14.7212C77.194 14.5078 77.3577 14.3254 77.5677 14.197C77.7776 14.0687 78.0245 14.0001 78.277 14H85.723C85.9755 14.0001 86.2224 14.0687 86.4323 14.197C86.6423 14.3254 86.806 14.5078 86.9027 14.7212C86.9994 14.9346 87.0247 15.1694 86.9756 15.396C86.9264 15.6226 86.8049 15.8308 86.6265 15.9943L82.4223 19.8399C82.3668 19.8906 82.301 19.9309 82.2286 19.9584C82.1561 19.9859 82.0784 20 82 20C81.9216 20 81.8439 19.9859 81.7715 19.9584C81.699 19.9309 81.6332 19.8906 81.5777 19.8399Z" fill="#07235B"/>
<path d="M4.23281 57.7539V64.2852C4.23281 64.5456 4.29531 64.7227 4.42031 64.8164C4.55052 64.9102 4.85 64.9831 5.31875 65.0352V65.8945H0.568748V65.0352C1.0375 64.9831 1.33437 64.9102 1.45937 64.8164C1.58437 64.7227 1.64687 64.5456 1.64687 64.2852V59.8477C1.64687 59.6185 1.61562 59.4596 1.55312 59.3711C1.49583 59.2826 1.35781 59.2096 1.13906 59.1523L0.568748 59.0039V58.207L4.23281 57.7539ZM2.75625 56.543C2.36042 56.543 2.02187 56.4154 1.74062 56.1602C1.46458 55.8997 1.32656 55.5716 1.32656 55.1758C1.32656 54.7852 1.46458 54.4622 1.74062 54.207C2.02187 53.9518 2.36042 53.8242 2.75625 53.8242C3.15208 53.8242 3.48802 53.9518 3.76406 54.207C4.04531 54.4622 4.18594 54.7852 4.18594 55.1758C4.18594 55.5716 4.04531 55.8997 3.76406 56.1602C3.48802 56.4154 3.15208 56.543 2.75625 56.543ZM9.70406 64.0977C9.70406 64.3164 9.7301 64.4857 9.78219 64.6055C9.83948 64.7253 9.95406 64.8164 10.1259 64.8789C10.2978 64.9362 10.5582 64.9883 10.9072 65.0352V65.8945H5.64156V65.0352C6.02698 64.9883 6.31083 64.9336 6.49312 64.8711C6.67542 64.8086 6.79521 64.7148 6.8525 64.5898C6.90979 64.4648 6.93844 64.2878 6.93844 64.0586V56.4492C6.93844 56.2201 6.90979 56.043 6.8525 55.918C6.80042 55.793 6.68062 55.6992 6.49312 55.6367C6.31083 55.5742 6.02698 55.5195 5.64156 55.4727V54.6133H10.9072V55.4727C10.5582 55.5195 10.2978 55.5742 10.1259 55.6367C9.95406 55.694 9.83948 55.7826 9.78219 55.9023C9.7301 56.0169 9.70406 56.1862 9.70406 56.4102V64.0977ZM17.0869 64.0586C17.0869 64.293 17.1155 64.4753 17.1728 64.6055C17.2301 64.7305 17.3499 64.8242 17.5322 64.8867C17.7197 64.944 18.0009 64.9935 18.3759 65.0352V65.8945H13.1181V65.0352C13.4723 64.9935 13.7327 64.944 13.8994 64.8867C14.0712 64.8242 14.1832 64.7331 14.2353 64.6133C14.2874 64.4935 14.3134 64.3216 14.3134 64.0977V56.4102C14.3134 56.181 14.2874 56.0091 14.2353 55.8945C14.1832 55.7747 14.0712 55.6862 13.8994 55.6289C13.7327 55.5664 13.4723 55.5143 13.1181 55.4727V54.6133H18.3759V55.4727C18.0009 55.5143 17.7197 55.5664 17.5322 55.6289C17.3499 55.6862 17.2301 55.7799 17.1728 55.9102C17.1155 56.0352 17.0869 56.2148 17.0869 56.4492V64.0586ZM8.32906 60.6602V59.6133H15.6884V60.6602H8.32906ZM18.9566 61.9648C18.9566 61.1003 19.1362 60.3503 19.4956 59.7148C19.855 59.0742 20.3524 58.5768 20.9878 58.2227C21.6232 57.8685 22.3524 57.6914 23.1753 57.6914C23.9461 57.6914 24.605 57.8346 25.1519 58.1211C25.704 58.4076 26.1232 58.8164 26.4097 59.3477C26.7014 59.8737 26.8472 60.5013 26.8472 61.2305C26.8472 61.3711 26.842 61.5065 26.8316 61.6367C26.8264 61.7617 26.8185 61.8633 26.8081 61.9414H20.3472V60.9727H24.7612L24.5425 61.2305C24.5477 61.1784 24.5503 61.1263 24.5503 61.0742C24.5555 61.0221 24.5581 60.9492 24.5581 60.8555C24.5581 60.2044 24.4383 59.7018 24.1987 59.3477C23.9592 58.9883 23.6154 58.8086 23.1675 58.8086C22.6779 58.8086 22.2873 59.0169 21.9956 59.4336C21.704 59.8451 21.5581 60.457 21.5581 61.2695C21.5581 61.9674 21.6831 62.569 21.9331 63.0742C22.1883 63.5742 22.5529 63.9596 23.0269 64.2305C23.5008 64.5013 24.0607 64.6367 24.7066 64.6367C25.0555 64.6367 25.4045 64.5846 25.7534 64.4805C26.1076 64.3711 26.3967 64.2201 26.6206 64.0273V64.8867C26.2925 65.2513 25.8368 65.543 25.2534 65.7617C24.6701 65.9753 24.0112 66.082 23.2769 66.082C22.4748 66.082 21.7456 65.9206 21.0894 65.5977C20.4383 65.2695 19.9201 64.7982 19.5347 64.1836C19.1493 63.569 18.9566 62.8294 18.9566 61.9648ZM29.9591 66.082C29.2403 66.082 28.6596 65.8919 28.2169 65.5117C27.7794 65.1263 27.5606 64.6419 27.5606 64.0586C27.5606 63.6419 27.6674 63.2695 27.8809 62.9414C28.0945 62.6133 28.4434 62.3242 28.9278 62.0742C29.4122 61.8242 30.058 61.6133 30.8653 61.4414L33.67 60.8477V61.8008L31.8809 62.1914C31.2351 62.3372 30.7742 62.5247 30.4981 62.7539C30.2273 62.9779 30.0919 63.2721 30.0919 63.6367C30.0919 63.9909 30.2065 64.2643 30.4356 64.457C30.6648 64.6497 30.9512 64.7461 31.295 64.7461C31.5919 64.7461 31.8575 64.6888 32.0919 64.5742C32.3262 64.4544 32.5059 64.3008 32.6309 64.1133V60.5898C32.6309 59.944 32.4721 59.4857 32.1544 59.2148C31.8367 58.944 31.407 58.8086 30.8653 58.8086C30.532 58.8086 30.2247 58.8529 29.9434 58.9414C29.6622 59.0247 29.4278 59.1471 29.2403 59.3086C29.0528 59.4701 28.92 59.6628 28.8419 59.8867H28.2247C28.2247 59.5378 28.3184 59.2383 28.5059 58.9883C28.6986 58.7383 28.9356 58.6133 29.2169 58.6133C29.5085 58.6133 29.7611 58.7201 29.9747 58.9336C30.1882 59.1419 30.295 59.3945 30.295 59.6914C30.295 60.0091 30.1778 60.2773 29.9434 60.4961C29.7143 60.7096 29.42 60.8164 29.0606 60.8164C28.7065 60.8164 28.4148 60.7201 28.1856 60.5273C27.9617 60.3294 27.8497 60.0664 27.8497 59.7383C27.8497 59.3529 28.0059 59.0065 28.3184 58.6992C28.6361 58.3867 29.0762 58.1393 29.6387 57.957C30.2012 57.7747 30.8497 57.6836 31.5841 57.6836C32.7091 57.6836 33.5893 57.9102 34.2247 58.3633C34.8601 58.8164 35.1778 59.5404 35.1778 60.5352V63.9258C35.1778 64.2539 35.2533 64.4857 35.4044 64.6211C35.5606 64.7565 35.7455 64.8242 35.9591 64.8242C36.1205 64.8242 36.2507 64.8086 36.3497 64.7773V65.582C36.1778 65.707 35.9512 65.8138 35.67 65.9023C35.394 65.9909 35.0789 66.0352 34.7247 66.0352C34.4018 66.0352 34.1023 65.9857 33.8262 65.8867C33.5554 65.7878 33.3236 65.6471 33.1309 65.4648C32.9382 65.2773 32.8054 65.056 32.7325 64.8008C32.4929 65.1654 32.1309 65.4701 31.6466 65.7148C31.1622 65.9596 30.5997 66.082 29.9591 66.082ZM40.2272 54.1602V64.2852C40.2272 64.5456 40.2897 64.7227 40.4147 64.8164C40.5449 64.9102 40.8444 64.9831 41.3131 65.0352V65.8945H36.5631V65.0352C37.0319 64.9831 37.3287 64.9102 37.4537 64.8164C37.5787 64.7227 37.6412 64.5456 37.6412 64.2852V56.2539C37.6412 56.0299 37.61 55.8737 37.5475 55.7852C37.4902 55.6914 37.3522 55.6159 37.1334 55.5586L36.5631 55.4102V54.6133L40.2272 54.1602ZM42.55 63.3711V59.0273H41.5187V58.293L44.4484 56.0977H45.1047V57.9258L47.4016 57.8711V59.0273L45.1047 58.9805V62.9883C45.1047 63.6289 45.2297 64.0768 45.4797 64.332C45.7349 64.5872 46.0708 64.7148 46.4875 64.7148C46.6854 64.7148 46.8755 64.6914 47.0578 64.6445C47.2401 64.5924 47.3937 64.5299 47.5187 64.457V65.3086C47.3 65.5221 46.9693 65.7044 46.5266 65.8555C46.0891 66.0065 45.6151 66.082 45.1047 66.082C44.6516 66.082 44.2297 65.9935 43.8391 65.8164C43.4536 65.6393 43.1411 65.3529 42.9016 64.957C42.6672 64.556 42.55 64.0273 42.55 63.3711ZM51.3259 54.1602V59.0977C51.5447 58.7122 51.891 58.3815 52.365 58.1055C52.839 57.8242 53.4249 57.6836 54.1228 57.6836C54.9561 57.6836 55.628 57.9128 56.1384 58.3711C56.6489 58.8294 56.9041 59.4701 56.9041 60.293V64.2852C56.9041 64.457 56.9301 64.5924 56.9822 64.6914C57.0343 64.7852 57.1358 64.8581 57.2869 64.9102C57.4379 64.957 57.6697 64.9987 57.9822 65.0352V65.8945H53.4197V65.0352C53.8155 64.9883 54.0629 64.9232 54.1619 64.8398C54.266 64.7513 54.3181 64.5794 54.3181 64.3242V60.707C54.3181 60.1966 54.1827 59.806 53.9119 59.5352C53.641 59.2643 53.2686 59.1289 52.7947 59.1289C52.4405 59.1289 52.1358 59.194 51.8806 59.3242C51.6254 59.4544 51.4405 59.6133 51.3259 59.8008V64.3242C51.3259 64.5794 51.378 64.7513 51.4822 64.8398C51.5864 64.9232 51.8337 64.9883 52.2244 65.0352V65.8945H47.6619V65.0352C48.1306 64.9831 48.4275 64.9102 48.5525 64.8164C48.6775 64.7227 48.74 64.5456 48.74 64.2852V56.2539C48.74 56.0299 48.7087 55.8737 48.6462 55.7852C48.589 55.6914 48.4509 55.6159 48.2322 55.5586L47.6619 55.4102V54.6133L51.3259 54.1602ZM64.2684 66.082C63.5497 66.082 62.969 65.8919 62.5262 65.5117C62.0887 65.1263 61.87 64.6419 61.87 64.0586C61.87 63.6419 61.9768 63.2695 62.1903 62.9414C62.4039 62.6133 62.7528 62.3242 63.2372 62.0742C63.7216 61.8242 64.3674 61.6133 65.1747 61.4414L67.9794 60.8477V61.8008L66.1903 62.1914C65.5445 62.3372 65.0835 62.5247 64.8075 62.7539C64.5367 62.9779 64.4012 63.2721 64.4012 63.6367C64.4012 63.9909 64.5158 64.2643 64.745 64.457C64.9742 64.6497 65.2606 64.7461 65.6044 64.7461C65.9012 64.7461 66.1669 64.6888 66.4012 64.5742C66.6356 64.4544 66.8153 64.3008 66.9403 64.1133V60.5898C66.9403 59.944 66.7815 59.4857 66.4637 59.2148C66.146 58.944 65.7164 58.8086 65.1747 58.8086C64.8414 58.8086 64.5341 58.8529 64.2528 58.9414C63.9716 59.0247 63.7372 59.1471 63.5497 59.3086C63.3622 59.4701 63.2294 59.6628 63.1512 59.8867H62.5341C62.5341 59.5378 62.6278 59.2383 62.8153 58.9883C63.008 58.7383 63.245 58.6133 63.5262 58.6133C63.8179 58.6133 64.0705 58.7201 64.2841 58.9336C64.4976 59.1419 64.6044 59.3945 64.6044 59.6914C64.6044 60.0091 64.4872 60.2773 64.2528 60.4961C64.0236 60.7096 63.7294 60.8164 63.37 60.8164C63.0158 60.8164 62.7242 60.7201 62.495 60.5273C62.271 60.3294 62.1591 60.0664 62.1591 59.7383C62.1591 59.3529 62.3153 59.0065 62.6278 58.6992C62.9455 58.3867 63.3856 58.1393 63.9481 57.957C64.5106 57.7747 65.1591 57.6836 65.8934 57.6836C67.0184 57.6836 67.8986 57.9102 68.5341 58.3633C69.1695 58.8164 69.4872 59.5404 69.4872 60.5352V63.9258C69.4872 64.2539 69.5627 64.4857 69.7137 64.6211C69.87 64.7565 70.0549 64.8242 70.2684 64.8242C70.4299 64.8242 70.5601 64.8086 70.6591 64.7773V65.582C70.4872 65.707 70.2606 65.8138 69.9794 65.9023C69.7033 65.9909 69.3882 66.0352 69.0341 66.0352C68.7111 66.0352 68.4117 65.9857 68.1356 65.8867C67.8648 65.7878 67.633 65.6471 67.4403 65.4648C67.2476 65.2773 67.1148 65.056 67.0419 64.8008C66.8023 65.1654 66.4403 65.4701 65.9559 65.7148C65.4716 65.9596 64.9091 66.082 64.2684 66.082ZM74.4897 57.7539V59.1289C74.7032 58.7331 75.0522 58.3945 75.5366 58.1133C76.0261 57.8268 76.6251 57.6836 77.3334 57.6836C78.1668 57.6836 78.8386 57.9128 79.3491 58.3711C79.8595 58.8294 80.1147 59.4701 80.1147 60.293V64.2852C80.1147 64.457 80.1407 64.5924 80.1928 64.6914C80.2449 64.7852 80.3465 64.8581 80.4975 64.9102C80.6485 64.957 80.8803 64.9987 81.1928 65.0352V65.8945H76.6303V65.0352C77.0261 64.9883 77.2735 64.9232 77.3725 64.8398C77.4767 64.7513 77.5287 64.5794 77.5287 64.3242V60.707C77.5287 60.1966 77.3933 59.806 77.1225 59.5352C76.8517 59.2643 76.4793 59.1289 76.0053 59.1289C75.6511 59.1289 75.3465 59.194 75.0912 59.3242C74.836 59.4544 74.6511 59.6133 74.5366 59.8008V64.3242C74.5366 64.5794 74.5886 64.7513 74.6928 64.8398C74.797 64.9232 75.0444 64.9883 75.435 65.0352V65.8945H70.8725V65.0352C71.3412 64.9831 71.6381 64.9102 71.7631 64.8164C71.8881 64.7227 71.9506 64.5456 71.9506 64.2852V59.8477C71.9506 59.6185 71.9194 59.4596 71.8569 59.3711C71.7996 59.2826 71.6616 59.2096 71.4428 59.1523L70.8725 59.0039V58.207L74.4897 57.7539ZM81.6641 61.9883C81.6641 61.1029 81.8281 60.3398 82.1562 59.6992C82.4896 59.0534 82.9349 58.556 83.4922 58.207C84.0495 57.8581 84.6719 57.6836 85.3594 57.6836C85.7917 57.6836 86.2031 57.7617 86.5938 57.918C86.9844 58.069 87.2865 58.2617 87.5 58.4961V56.2539C87.5 56.0299 87.4688 55.8737 87.4062 55.7852C87.349 55.6914 87.2135 55.6159 87 55.5586L86.4219 55.4102V54.6133L90.0938 54.1602V63.9414C90.0938 64.1654 90.1224 64.3242 90.1797 64.418C90.2422 64.5065 90.3854 64.5794 90.6094 64.6367L91.1719 64.793V65.582L87.5547 66.0039V64.6211C87.3464 65.0482 87.0052 65.3997 86.5312 65.6758C86.0625 65.9466 85.5208 66.082 84.9062 66.082C84.2969 66.082 83.7474 65.918 83.2578 65.5898C82.7682 65.2617 82.3802 64.793 82.0938 64.1836C81.8073 63.569 81.6641 62.8372 81.6641 61.9883ZM84.3203 61.793C84.3203 62.7044 84.487 63.4076 84.8203 63.9023C85.1589 64.3919 85.6042 64.6367 86.1562 64.6367C86.4635 64.6367 86.737 64.5716 86.9766 64.4414C87.2161 64.3112 87.3906 64.1367 87.5 63.918V59.5117C87.4062 59.3346 87.2422 59.1862 87.0078 59.0664C86.7786 58.9466 86.5026 58.8867 86.1797 58.8867C85.6328 58.8867 85.1849 59.1393 84.8359 59.6445C84.4922 60.1445 84.3203 60.8607 84.3203 61.793ZM96.0362 57.0195C95.906 56.6029 95.7784 56.293 95.6534 56.0898C95.5336 55.8815 95.38 55.7357 95.1925 55.6523C95.0102 55.569 94.7602 55.5091 94.4425 55.4727V54.6133H99.8644V55.4727C99.4633 55.5247 99.1743 55.5977 98.9972 55.6914C98.8253 55.7799 98.7394 55.9258 98.7394 56.1289C98.7446 56.332 98.8019 56.6341 98.9112 57.0352L100.857 63.8086H100.716L102.63 56.9805C102.734 56.5951 102.784 56.306 102.778 56.1133C102.778 55.9154 102.692 55.7721 102.521 55.6836C102.354 55.5951 102.073 55.5247 101.677 55.4727V54.6133H106.927V55.4727C106.526 55.5247 106.237 55.5977 106.06 55.6914C105.888 55.7799 105.802 55.9258 105.802 56.1289C105.802 56.332 105.859 56.6341 105.974 57.0352L107.927 63.8086H107.778L109.692 56.9805C109.802 56.5951 109.854 56.306 109.849 56.1133C109.844 55.9154 109.755 55.7721 109.583 55.6836C109.416 55.5951 109.138 55.5247 108.747 55.4727V54.6133H112.622V55.4727C112.299 55.5091 112.044 55.569 111.857 55.6523C111.669 55.7357 111.515 55.8815 111.396 56.0898C111.276 56.2982 111.148 56.6159 111.013 57.043L108.224 65.8945H105.888L103.278 57.1211H103.872L101.13 65.8945H98.8487L96.0362 57.0195ZM110.922 61.9648C110.922 61.1003 111.101 60.3503 111.461 59.7148C111.82 59.0742 112.317 58.5768 112.953 58.2227C113.588 57.8685 114.317 57.6914 115.14 57.6914C115.911 57.6914 116.57 57.8346 117.117 58.1211C117.669 58.4076 118.088 58.8164 118.375 59.3477C118.666 59.8737 118.812 60.5013 118.812 61.2305C118.812 61.3711 118.807 61.5065 118.797 61.6367C118.791 61.7617 118.784 61.8633 118.773 61.9414H112.312V60.9727H116.726L116.507 61.2305C116.513 61.1784 116.515 61.1263 116.515 61.0742C116.521 61.0221 116.523 60.9492 116.523 60.8555C116.523 60.2044 116.403 59.7018 116.164 59.3477C115.924 58.9883 115.58 58.8086 115.132 58.8086C114.643 58.8086 114.252 59.0169 113.961 59.4336C113.669 59.8451 113.523 60.457 113.523 61.2695C113.523 61.9674 113.648 62.569 113.898 63.0742C114.153 63.5742 114.518 63.9596 114.992 64.2305C115.466 64.5013 116.026 64.6367 116.672 64.6367C117.021 64.6367 117.369 64.5846 117.718 64.4805C118.073 64.3711 118.362 64.2201 118.586 64.0273V64.8867C118.257 65.2513 117.802 65.543 117.218 65.7617C116.635 65.9753 115.976 66.082 115.242 66.082C114.44 66.082 113.711 65.9206 113.054 65.5977C112.403 65.2695 111.885 64.7982 111.5 64.1836C111.114 63.569 110.922 62.8294 110.922 61.9648ZM123.08 54.1602V64.2852C123.08 64.5456 123.143 64.7227 123.268 64.8164C123.398 64.9102 123.698 64.9831 124.166 65.0352V65.8945H119.416V65.0352C119.885 64.9831 120.182 64.9102 120.307 64.8164C120.432 64.7227 120.494 64.5456 120.494 64.2852V56.2539C120.494 56.0299 120.463 55.8737 120.401 55.7852C120.343 55.6914 120.205 55.6159 119.987 55.5586L119.416 55.4102V54.6133L123.08 54.1602ZM128.177 54.1602V64.2852C128.177 64.5456 128.239 64.7227 128.364 64.8164C128.494 64.9102 128.794 64.9831 129.262 65.0352V65.8945H124.512V65.0352C124.981 64.9831 125.278 64.9102 125.403 64.8164C125.528 64.7227 125.591 64.5456 125.591 64.2852V56.2539C125.591 56.0299 125.559 55.8737 125.497 55.7852C125.44 55.6914 125.302 55.6159 125.083 55.5586L124.512 55.4102V54.6133L128.177 54.1602ZM133.226 57.7539V59.1289C133.439 58.7331 133.788 58.3945 134.273 58.1133C134.762 57.8268 135.361 57.6836 136.07 57.6836C136.903 57.6836 137.575 57.9128 138.085 58.3711C138.596 58.8294 138.851 59.4701 138.851 60.293V64.2852C138.851 64.457 138.877 64.5924 138.929 64.6914C138.981 64.7852 139.083 64.8581 139.234 64.9102C139.385 64.957 139.617 64.9987 139.929 65.0352V65.8945H135.367V65.0352C135.762 64.9883 136.01 64.9232 136.109 64.8398C136.213 64.7513 136.265 64.5794 136.265 64.3242V60.707C136.265 60.1966 136.13 59.806 135.859 59.5352C135.588 59.2643 135.216 59.1289 134.742 59.1289C134.387 59.1289 134.083 59.194 133.827 59.3242C133.572 59.4544 133.387 59.6133 133.273 59.8008V64.3242C133.273 64.5794 133.325 64.7513 133.429 64.8398C133.533 64.9232 133.781 64.9883 134.171 65.0352V65.8945H129.609V65.0352C130.077 64.9831 130.374 64.9102 130.499 64.8164C130.624 64.7227 130.687 64.5456 130.687 64.2852V59.8477C130.687 59.6185 130.656 59.4596 130.593 59.3711C130.536 59.2826 130.398 59.2096 130.179 59.1523L129.609 59.0039V58.207L133.226 57.7539ZM140.4 61.9648C140.4 61.1003 140.58 60.3503 140.939 59.7148C141.299 59.0742 141.796 58.5768 142.432 58.2227C143.067 57.8685 143.796 57.6914 144.619 57.6914C145.39 57.6914 146.049 57.8346 146.596 58.1211C147.148 58.4076 147.567 58.8164 147.853 59.3477C148.145 59.8737 148.291 60.5013 148.291 61.2305C148.291 61.3711 148.286 61.5065 148.275 61.6367C148.27 61.7617 148.262 61.8633 148.252 61.9414H141.791V60.9727H146.205L145.986 61.2305C145.991 61.1784 145.994 61.1263 145.994 61.0742C145.999 61.0221 146.002 60.9492 146.002 60.8555C146.002 60.2044 145.882 59.7018 145.642 59.3477C145.403 58.9883 145.059 58.8086 144.611 58.8086C144.122 58.8086 143.731 59.0169 143.439 59.4336C143.148 59.8451 143.002 60.457 143.002 61.2695C143.002 61.9674 143.127 62.569 143.377 63.0742C143.632 63.5742 143.997 63.9596 144.471 64.2305C144.945 64.5013 145.504 64.6367 146.15 64.6367C146.499 64.6367 146.848 64.5846 147.197 64.4805C147.551 64.3711 147.84 64.2201 148.064 64.0273V64.8867C147.736 65.2513 147.281 65.543 146.697 65.7617C146.114 65.9753 145.455 66.082 144.721 66.082C143.919 66.082 143.189 65.9206 142.533 65.5977C141.882 65.2695 141.364 64.7982 140.978 64.1836C140.593 63.569 140.4 62.8294 140.4 61.9648ZM149.106 60.2461C149.106 59.7253 149.252 59.2747 149.543 58.8945C149.84 58.5091 150.267 58.2122 150.825 58.0039C151.382 57.7904 152.051 57.6836 152.832 57.6836C153.484 57.6836 154.054 57.7435 154.543 57.8633C155.038 57.9779 155.429 58.1107 155.715 58.2617L155.762 60.2852H154.95C154.819 59.8216 154.58 59.4596 154.231 59.1992C153.882 58.9388 153.439 58.8086 152.903 58.8086C152.465 58.8086 152.122 58.8893 151.872 59.0508C151.622 59.207 151.497 59.4284 151.497 59.7148C151.497 59.9909 151.609 60.207 151.832 60.3633C152.062 60.5143 152.398 60.6471 152.84 60.7617L153.606 60.9414C154.444 61.1445 155.072 61.4466 155.489 61.8477C155.911 62.2435 156.122 62.7799 156.122 63.457C156.122 63.9831 155.965 64.4414 155.653 64.832C155.34 65.2227 154.9 65.5273 154.332 65.7461C153.77 65.9596 153.106 66.0664 152.34 66.0664C151.674 66.0664 151.059 65.9961 150.497 65.8555C149.934 65.7148 149.471 65.543 149.106 65.3398L149.059 63.2695H149.864C149.952 63.5872 150.096 63.8737 150.293 64.1289C150.491 64.3789 150.752 64.5768 151.075 64.7227C151.398 64.8685 151.783 64.9414 152.231 64.9414C152.71 64.9414 153.08 64.8503 153.34 64.668C153.601 64.4857 153.731 64.2513 153.731 63.9648C153.731 63.6992 153.632 63.4883 153.434 63.332C153.236 63.1706 152.903 63.0273 152.434 62.9023L151.668 62.7227C150.903 62.5299 150.283 62.2409 149.809 61.8555C149.34 61.4701 149.106 60.9336 149.106 60.2461ZM156.874 60.2461C156.874 59.7253 157.02 59.2747 157.312 58.8945C157.608 58.5091 158.036 58.2122 158.593 58.0039C159.15 57.7904 159.819 57.6836 160.601 57.6836C161.252 57.6836 161.822 57.7435 162.312 57.8633C162.806 57.9779 163.197 58.1107 163.483 58.2617L163.53 60.2852H162.718C162.588 59.8216 162.348 59.4596 161.999 59.1992C161.65 58.9388 161.207 58.8086 160.671 58.8086C160.233 58.8086 159.89 58.8893 159.64 59.0508C159.39 59.207 159.265 59.4284 159.265 59.7148C159.265 59.9909 159.377 60.207 159.601 60.3633C159.83 60.5143 160.166 60.6471 160.608 60.7617L161.374 60.9414C162.213 61.1445 162.84 61.4466 163.257 61.8477C163.679 62.2435 163.89 62.7799 163.89 63.457C163.89 63.9831 163.733 64.4414 163.421 64.832C163.108 65.2227 162.668 65.5273 162.101 65.7461C161.538 65.9596 160.874 66.0664 160.108 66.0664C159.442 66.0664 158.827 65.9961 158.265 65.8555C157.702 65.7148 157.239 65.543 156.874 65.3398L156.827 63.2695H157.632C157.72 63.5872 157.864 63.8737 158.062 64.1289C158.259 64.3789 158.52 64.5768 158.843 64.7227C159.166 64.8685 159.551 64.9414 159.999 64.9414C160.478 64.9414 160.848 64.8503 161.108 64.668C161.369 64.4857 161.499 64.2513 161.499 63.9648C161.499 63.6992 161.4 63.4883 161.202 63.332C161.004 63.1706 160.671 63.0273 160.202 62.9023L159.437 62.7227C158.671 62.5299 158.051 62.2409 157.577 61.8555C157.108 61.4701 156.874 60.9336 156.874 60.2461Z" fill="#07235B"/>
<path d="M35.3393 74.0234L35.4076 76.6348H34.7855C34.699 76.2656 34.5987 75.9648 34.4848 75.7324C34.3754 75.5 34.2341 75.3223 34.0609 75.1992C33.8923 75.0716 33.6758 74.9827 33.4115 74.9326C33.1472 74.8825 32.8168 74.8506 32.4203 74.8369L30.8754 74.7822V78.5557H32.3998C32.5593 78.5557 32.6869 78.526 32.7826 78.4668C32.8783 78.403 32.9604 78.2754 33.0287 78.084C33.1016 77.888 33.1768 77.5918 33.2543 77.1953H33.8422V80.6816H33.2543C33.1905 80.2897 33.1221 79.998 33.0492 79.8066C32.9809 79.6107 32.8965 79.4808 32.7963 79.417C32.696 79.3532 32.5639 79.3213 32.3998 79.3213H30.8754V82.2881C30.8754 82.5068 30.9027 82.68 30.9574 82.8076C31.0167 82.9307 31.1352 83.0218 31.3129 83.0811C31.4906 83.1403 31.7618 83.1904 32.1264 83.2314V83.8945H27.6625V83.2314C28.0134 83.195 28.2686 83.1517 28.4281 83.1016C28.5922 83.0469 28.697 82.9648 28.7426 82.8555C28.7927 82.7415 28.8178 82.5843 28.8178 82.3838V75.5342C28.8178 75.3291 28.7927 75.1719 28.7426 75.0625C28.697 74.9531 28.5922 74.8734 28.4281 74.8232C28.2686 74.7686 28.0134 74.723 27.6625 74.6865V74.0234H35.3393ZM39.0036 84.0518C38.2881 84.0518 37.6501 83.9014 37.0895 83.6006C36.5335 83.2952 36.096 82.8737 35.777 82.3359C35.4626 81.7936 35.3053 81.167 35.3053 80.4561C35.3053 79.7314 35.4694 79.0934 35.7975 78.542C36.1257 77.9906 36.5746 77.5599 37.1442 77.25C37.7184 76.9401 38.3724 76.7852 39.1061 76.7852C39.8262 76.7852 40.4642 76.9378 41.0202 77.2432C41.5762 77.5439 42.0114 77.9655 42.3259 78.5078C42.6449 79.0456 42.8044 79.6699 42.8044 80.3809C42.8044 81.1009 42.6403 81.7389 42.3122 82.2949C41.9841 82.8464 41.5329 83.277 40.9587 83.5869C40.389 83.8968 39.7373 84.0518 39.0036 84.0518ZM39.1061 83.1768C39.6439 83.1768 40.0609 82.9421 40.3571 82.4727C40.6533 81.9987 40.8014 81.3447 40.8014 80.5107C40.8014 79.9274 40.724 79.4238 40.569 79C40.4141 78.5716 40.2022 78.2435 39.9333 78.0156C39.6644 77.7832 39.3545 77.667 39.0036 77.667C38.4658 77.667 38.0488 77.9017 37.7526 78.3711C37.4609 78.8405 37.3151 79.4922 37.3151 80.3262C37.3151 80.9095 37.3903 81.4154 37.5407 81.8438C37.6956 82.2676 37.9076 82.5957 38.1764 82.8281C38.4453 83.0605 38.7552 83.1768 39.1061 83.1768ZM46.2705 76.8535V81.3926C46.2705 81.8984 46.3958 82.2835 46.6464 82.5479C46.8971 82.8122 47.248 82.9443 47.6992 82.9443C48.0136 82.9443 48.2848 82.8805 48.5127 82.7529C48.7405 82.6253 48.9091 82.4704 49.0185 82.2881V78.5215C49.0185 78.3301 48.9912 78.1979 48.9365 78.125C48.8864 78.0475 48.7656 77.986 48.5742 77.9404L48.0546 77.8037V77.2021L50.9326 76.8535V82.3223C50.9326 82.5137 50.9599 82.6481 51.0146 82.7256C51.0693 82.7985 51.1946 82.8623 51.3906 82.917L51.9033 83.0469V83.6484L49.0527 83.9834V82.8486C48.8658 83.1859 48.5719 83.4707 48.1709 83.7031C47.7744 83.9355 47.289 84.0518 46.7148 84.0518C46.013 84.0518 45.4456 83.8512 45.0127 83.4502C44.5797 83.0492 44.3632 82.4863 44.3632 81.7617V78.5215C44.3632 78.3301 44.3359 78.1979 44.2812 78.125C44.2311 78.0475 44.1103 77.986 43.9189 77.9404L43.3994 77.8037V77.2021L46.2705 76.8535ZM55.2737 76.8535V77.9883C55.4651 77.651 55.7659 77.3662 56.176 77.1338C56.5907 76.9014 57.0898 76.7852 57.6731 76.7852C58.3931 76.7852 58.9742 76.9834 59.4162 77.3799C59.8629 77.7718 60.0862 78.3232 60.0862 79.0342V82.5957C60.0862 82.7415 60.109 82.8555 60.1545 82.9375C60.2001 83.0195 60.2912 83.0811 60.428 83.1221C60.5647 83.1631 60.7743 83.1995 61.0569 83.2314V83.8945H57.3313V83.2314C57.705 83.1904 57.9397 83.1335 58.0354 83.0605C58.1311 82.9876 58.1789 82.8464 58.1789 82.6367V79.4033C58.1789 78.9111 58.0491 78.5374 57.7893 78.2822C57.5295 78.0225 57.1741 77.8926 56.7229 77.8926C56.3811 77.8926 56.0871 77.9564 55.8411 78.084C55.5995 78.2116 55.4241 78.3665 55.3147 78.5488V82.6367C55.3147 82.8464 55.3625 82.9876 55.4582 83.0605C55.5539 83.1335 55.7886 83.1904 56.1623 83.2314V83.8945H52.4368V83.2314C52.8606 83.1859 53.1272 83.1243 53.2366 83.0469C53.3505 82.9648 53.4075 82.8145 53.4075 82.5957V78.5215C53.4075 78.3301 53.3801 78.1979 53.3254 78.125C53.2753 78.0475 53.1523 77.986 52.9563 77.9404L52.4368 77.8037V77.2021L55.2737 76.8535ZM61.7271 80.5107C61.7271 79.7542 61.8706 79.098 62.1577 78.542C62.4494 77.9814 62.8413 77.5485 63.3335 77.2432C63.8257 76.9378 64.3726 76.7852 64.9741 76.7852C65.3524 76.7852 65.7079 76.8512 66.0405 76.9834C66.3732 77.1156 66.6376 77.2842 66.8335 77.4893V75.3496C66.8335 75.1536 66.8062 75.0192 66.7515 74.9463C66.7014 74.8688 66.5783 74.805 66.3823 74.7549L65.8628 74.625V74.0234L68.7407 73.668V82.3223C68.7407 82.5137 68.7681 82.6481 68.8228 82.7256C68.8775 82.7985 69.0051 82.8623 69.2056 82.917L69.7114 83.0469V83.6484L66.8677 83.9834V82.8076C66.6854 83.1722 66.3846 83.4707 65.9654 83.7031C65.5506 83.9355 65.0812 84.0518 64.5571 84.0518C64.0376 84.0518 63.5637 83.9105 63.1353 83.6279C62.7069 83.3454 62.3651 82.9398 62.1099 82.4111C61.8547 81.8779 61.7271 81.2445 61.7271 80.5107ZM63.7027 80.3535C63.7027 81.1738 63.8644 81.8118 64.188 82.2676C64.5161 82.7188 64.9514 82.9443 65.4937 82.9443C65.799 82.9443 66.0679 82.8828 66.3003 82.7598C66.5373 82.6367 66.715 82.4658 66.8335 82.2471V78.3164C66.7378 78.1478 66.5737 78.0042 66.3413 77.8857C66.1135 77.7673 65.84 77.708 65.521 77.708C64.9878 77.708 64.5503 77.9404 64.2085 78.4053C63.8713 78.8656 63.7027 79.515 63.7027 80.3535ZM72.4461 84.0518C71.8354 84.0518 71.3364 83.8854 70.949 83.5527C70.5617 83.2201 70.368 82.8008 70.368 82.2949C70.368 81.9258 70.4591 81.5999 70.6414 81.3174C70.8283 81.0348 71.1268 80.7887 71.5369 80.5791C71.9471 80.3695 72.4871 80.194 73.157 80.0527L75.5291 79.54V80.2988L73.9295 80.6475C73.3234 80.7796 72.8927 80.9505 72.6375 81.1602C72.3823 81.3698 72.2547 81.641 72.2547 81.9736C72.2547 82.3109 72.3641 82.5729 72.5828 82.7598C72.8061 82.9421 73.0841 83.0332 73.4168 83.0332C73.7039 83.0332 73.9637 82.9762 74.1961 82.8623C74.4285 82.7438 74.6085 82.5911 74.7361 82.4043V79.2461C74.7361 78.6628 74.5903 78.2526 74.2986 78.0156C74.007 77.7786 73.6219 77.6602 73.1434 77.6602C72.8471 77.6602 72.576 77.6989 72.3299 77.7764C72.0838 77.8538 71.8764 77.9655 71.7078 78.1113C71.5392 78.2526 71.4207 78.4281 71.3523 78.6377H70.8875C70.8875 78.3597 70.9627 78.1227 71.1131 77.9268C71.268 77.7262 71.4572 77.626 71.6805 77.626C71.9083 77.626 72.1043 77.7103 72.2684 77.8789C72.437 78.0475 72.5213 78.2526 72.5213 78.4941C72.5213 78.7448 72.4301 78.9544 72.2478 79.123C72.0701 79.2917 71.84 79.376 71.5574 79.376C71.284 79.376 71.0561 79.2962 70.8738 79.1367C70.6961 78.9772 70.6072 78.7653 70.6072 78.501C70.6072 78.1729 70.7417 77.8812 71.0105 77.626C71.2794 77.3662 71.6486 77.1611 72.118 77.0107C72.5874 76.8604 73.1183 76.7852 73.7107 76.7852C74.6085 76.7852 75.3149 76.9743 75.8299 77.3525C76.3494 77.7262 76.6092 78.3232 76.6092 79.1436V82.2812C76.6092 82.5729 76.6798 82.7803 76.8211 82.9033C76.9624 83.0218 77.1287 83.0811 77.3201 83.0811C77.4751 83.0811 77.5958 83.0628 77.6824 83.0264V83.6484C77.5457 83.7441 77.3657 83.8285 77.1424 83.9014C76.9191 83.9743 76.6661 84.0107 76.3836 84.0107C76.1238 84.0107 75.8846 83.9697 75.6658 83.8877C75.4516 83.8057 75.2693 83.6895 75.1189 83.5391C74.9686 83.3841 74.8637 83.1995 74.8045 82.9854C74.5994 83.2816 74.2895 83.5345 73.8748 83.7441C73.4601 83.9492 72.9839 84.0518 72.4461 84.0518ZM78.879 81.7822V77.8447H77.963V77.3047L80.3214 75.5H80.7657V76.9902L82.837 76.9424V77.8447L80.7657 77.8105V81.4609C80.7657 82.0352 80.8796 82.4339 81.1075 82.6572C81.3399 82.8805 81.6407 82.9922 82.0098 82.9922C82.1921 82.9922 82.3653 82.9694 82.5294 82.9238C82.6934 82.8783 82.8324 82.8213 82.9464 82.7529V83.416C82.7686 83.5938 82.502 83.7441 82.1466 83.8672C81.7956 83.9902 81.4106 84.0518 80.9913 84.0518C80.613 84.0518 80.2621 83.9788 79.9386 83.833C79.6195 83.6826 79.3621 83.4411 79.1661 83.1084C78.9747 82.7757 78.879 82.3337 78.879 81.7822ZM86.1869 76.8535V82.5957C86.1869 82.8145 86.2416 82.9648 86.3509 83.0469C86.4649 83.1243 86.7315 83.1859 87.1507 83.2314V83.8945H83.3089V83.2314C83.7328 83.1859 83.9994 83.1243 84.1087 83.0469C84.2227 82.9648 84.2796 82.8145 84.2796 82.5957V78.5215C84.2796 78.3301 84.2523 78.1979 84.1976 78.125C84.1475 78.0475 84.0244 77.986 83.8285 77.9404L83.3089 77.8037V77.2021L86.1869 76.8535ZM85.0726 75.6436C84.7673 75.6436 84.5052 75.5433 84.2865 75.3428C84.0723 75.1423 83.9652 74.8893 83.9652 74.584C83.9652 74.2832 84.0723 74.0348 84.2865 73.8389C84.5052 73.6383 84.7673 73.5381 85.0726 73.5381C85.378 73.5381 85.6377 73.6383 85.8519 73.8389C86.0707 74.0348 86.18 74.2832 86.18 74.584C86.18 74.8893 86.0707 75.1423 85.8519 75.3428C85.6377 75.5433 85.378 75.6436 85.0726 75.6436ZM91.5534 84.0518C90.8379 84.0518 90.1998 83.9014 89.6393 83.6006C89.0833 83.2952 88.6458 82.8737 88.3268 82.3359C88.0123 81.7936 87.8551 81.167 87.8551 80.4561C87.8551 79.7314 88.0192 79.0934 88.3473 78.542C88.6754 77.9906 89.1243 77.5599 89.694 77.25C90.2682 76.9401 90.9222 76.7852 91.6559 76.7852C92.3759 76.7852 93.014 76.9378 93.57 77.2432C94.1259 77.5439 94.5612 77.9655 94.8756 78.5078C95.1946 79.0456 95.3541 79.6699 95.3541 80.3809C95.3541 81.1009 95.1901 81.7389 94.8619 82.2949C94.5338 82.8464 94.0827 83.277 93.5084 83.5869C92.9388 83.8968 92.2871 84.0518 91.5534 84.0518ZM91.6559 83.1768C92.1937 83.1768 92.6106 82.9421 92.9069 82.4727C93.2031 81.9987 93.3512 81.3447 93.3512 80.5107C93.3512 79.9274 93.2737 79.4238 93.1188 79C92.9638 78.5716 92.7519 78.2435 92.483 78.0156C92.2142 77.7832 91.9043 77.667 91.5534 77.667C91.0156 77.667 90.5986 77.9017 90.3024 78.3711C90.0107 78.8405 89.8649 79.4922 89.8649 80.3262C89.8649 80.9095 89.9401 81.4154 90.0905 81.8438C90.2454 82.2676 90.4573 82.5957 90.7262 82.8281C90.9951 83.0605 91.305 83.1768 91.6559 83.1768ZM98.9843 76.8535V77.9883C99.1757 77.651 99.4765 77.3662 99.8866 77.1338C100.301 76.9014 100.8 76.7852 101.384 76.7852C102.104 76.7852 102.685 76.9834 103.127 77.3799C103.573 77.7718 103.797 78.3232 103.797 79.0342V82.5957C103.797 82.7415 103.82 82.8555 103.865 82.9375C103.911 83.0195 104.002 83.0811 104.139 83.1221C104.275 83.1631 104.485 83.1995 104.768 83.2314V83.8945H101.042V83.2314C101.416 83.1904 101.65 83.1335 101.746 83.0605C101.842 82.9876 101.89 82.8464 101.89 82.6367V79.4033C101.89 78.9111 101.76 78.5374 101.5 78.2822C101.24 78.0225 100.885 77.8926 100.434 77.8926C100.092 77.8926 99.7978 77.9564 99.5517 78.084C99.3101 78.2116 99.1347 78.3665 99.0253 78.5488V82.6367C99.0253 82.8464 99.0732 82.9876 99.1689 83.0605C99.2646 83.1335 99.4993 83.1904 99.873 83.2314V83.8945H96.1474V83.2314C96.5712 83.1859 96.8378 83.1243 96.9472 83.0469C97.0611 82.9648 97.1181 82.8145 97.1181 82.5957V78.5215C97.1181 78.3301 97.0907 78.1979 97.0361 78.125C96.9859 78.0475 96.8629 77.986 96.6669 77.9404L96.1474 77.8037V77.2021L98.9843 76.8535ZM105.643 85.9453L105.486 85.3574C105.827 85.2936 106.121 85.1478 106.367 84.9199C106.618 84.6921 106.743 84.4255 106.743 84.1201C106.743 83.8512 106.639 83.6325 106.429 83.4639C106.224 83.2952 105.955 83.2041 105.622 83.1904C105.622 82.9307 105.668 82.6914 105.759 82.4727C105.855 82.2539 105.989 82.0762 106.162 81.9395C106.34 81.8027 106.554 81.7344 106.805 81.7344C107.169 81.7344 107.468 81.8848 107.7 82.1855C107.933 82.4818 108.049 82.8646 108.049 83.334C108.049 83.6895 107.981 84.0153 107.844 84.3115C107.707 84.6077 107.525 84.8698 107.297 85.0977C107.069 85.3255 106.812 85.5101 106.525 85.6514C106.237 85.7972 105.944 85.8952 105.643 85.9453ZM115.385 82.3838C115.385 82.5843 115.407 82.7415 115.453 82.8555C115.503 82.9648 115.61 83.0469 115.774 83.1016C115.943 83.1517 116.2 83.195 116.547 83.2314V83.8945H112.172V83.2314C112.523 83.195 112.778 83.1517 112.937 83.1016C113.101 83.0469 113.206 82.9648 113.252 82.8555C113.302 82.7415 113.327 82.5843 113.327 82.3838V75.5342C113.327 75.3291 113.302 75.1719 113.252 75.0625C113.206 74.9531 113.101 74.8734 112.937 74.8232C112.778 74.7686 112.523 74.723 112.172 74.6865V74.0234H116.547V74.6865C116.2 74.723 115.943 74.7686 115.774 74.8232C115.61 74.8734 115.503 74.9531 115.453 75.0625C115.407 75.1719 115.385 75.3291 115.385 75.5342V82.3838ZM119.985 76.8535V77.9883C120.177 77.651 120.478 77.3662 120.888 77.1338C121.302 76.9014 121.801 76.7852 122.385 76.7852C123.105 76.7852 123.686 76.9834 124.128 77.3799C124.575 77.7718 124.798 78.3232 124.798 79.0342V82.5957C124.798 82.7415 124.821 82.8555 124.866 82.9375C124.912 83.0195 125.003 83.0811 125.14 83.1221C125.276 83.1631 125.486 83.1995 125.769 83.2314V83.8945H122.043V83.2314C122.417 83.1904 122.651 83.1335 122.747 83.0605C122.843 82.9876 122.891 82.8464 122.891 82.6367V79.4033C122.891 78.9111 122.761 78.5374 122.501 78.2822C122.241 78.0225 121.886 77.8926 121.435 77.8926C121.093 77.8926 120.799 77.9564 120.553 78.084C120.311 78.2116 120.136 78.3665 120.026 78.5488V82.6367C120.026 82.8464 120.074 82.9876 120.17 83.0605C120.266 83.1335 120.5 83.1904 120.874 83.2314V83.8945H117.148V83.2314C117.572 83.1859 117.839 83.1243 117.948 83.0469C118.062 82.9648 118.119 82.8145 118.119 82.5957V78.5215C118.119 78.3301 118.092 78.1979 118.037 78.125C117.987 78.0475 117.864 77.986 117.668 77.9404L117.148 77.8037V77.2021L119.985 76.8535ZM130.028 84.0518C129.362 84.0518 128.758 83.9082 128.216 83.6211C127.674 83.334 127.241 82.9238 126.917 82.3906C126.598 81.8529 126.439 81.2171 126.439 80.4834C126.439 79.7087 126.612 79.0456 126.958 78.4941C127.305 77.9427 127.76 77.5212 128.326 77.2295C128.891 76.9333 129.508 76.7852 130.178 76.7852C131.035 76.7852 131.675 76.9629 132.099 77.3184C132.527 77.6738 132.742 78.0977 132.742 78.5898C132.742 78.8906 132.648 79.1322 132.461 79.3145C132.274 79.4967 132.047 79.5879 131.778 79.5879C131.504 79.5879 131.276 79.499 131.094 79.3213C130.912 79.1436 130.821 78.9225 130.821 78.6582C130.821 78.403 130.903 78.1865 131.067 78.0088C131.235 77.8265 131.44 77.7354 131.682 77.7354C131.91 77.7354 132.106 77.8219 132.27 77.9951C132.438 78.1683 132.523 78.3734 132.523 78.6104H131.969C131.855 78.2777 131.675 78.0384 131.429 77.8926C131.183 77.7422 130.857 77.667 130.451 77.667C130.064 77.667 129.718 77.765 129.412 77.9609C129.112 78.1569 128.872 78.4395 128.695 78.8086C128.517 79.1777 128.428 79.6221 128.428 80.1416C128.428 80.7249 128.537 81.2262 128.756 81.6455C128.979 82.0648 129.287 82.3861 129.679 82.6094C130.071 82.8327 130.52 82.9443 131.026 82.9443C131.345 82.9443 131.664 82.8942 131.983 82.7939C132.302 82.6891 132.564 82.5479 132.769 82.3701V83.0264C132.505 83.3271 132.133 83.5732 131.655 83.7646C131.176 83.9561 130.634 84.0518 130.028 84.0518ZM134.793 84.0312C134.583 84.0312 134.389 83.9811 134.212 83.8809C134.038 83.776 133.899 83.637 133.795 83.4639C133.69 83.2861 133.637 83.0924 133.637 82.8828C133.637 82.6686 133.69 82.4749 133.795 82.3018C133.899 82.1286 134.038 81.9919 134.212 81.8916C134.389 81.7868 134.583 81.7344 134.793 81.7344C135.002 81.7344 135.194 81.7868 135.367 81.8916C135.545 81.9919 135.684 82.1286 135.784 82.3018C135.889 82.4749 135.941 82.6686 135.941 82.8828C135.941 83.0924 135.889 83.2861 135.784 83.4639C135.684 83.637 135.545 83.776 135.367 83.8809C135.194 83.9811 135.002 84.0312 134.793 84.0312Z" fill="#07235B"/>
</svg>

