<svg width="192" height="39" viewBox="0 0 192 39" fill="none" xmlns="http://www.w3.org/2000/svg">
<mask id="mask0_6807_76781" style="mask-type:luminance" maskUnits="userSpaceOnUse" x="17" y="0" width="11" height="10">
<path d="M22.4021 0C21.4464 0 20.5123 0.283374 19.7177 0.814294C18.9231 1.34521 18.3038 2.09983 17.9381 2.98272C17.5724 3.86561 17.4767 4.83711 17.6632 5.77438C17.8496 6.71164 18.3098 7.57258 18.9855 8.24832C19.6612 8.92405 20.5222 9.38423 21.4594 9.57066C22.3967 9.7571 23.3682 9.66141 24.2511 9.29571C25.134 8.93 25.8886 8.31071 26.4195 7.51613C26.9504 6.72155 27.2338 5.78738 27.2338 4.83175C27.2338 4.19724 27.1088 3.56893 26.866 2.98272C26.6232 2.3965 26.2673 1.86385 25.8186 1.41519C25.37 0.966515 24.8373 0.610611 24.2511 0.367793C23.6649 0.124975 23.0366 0 22.4021 0Z" fill="white"/>
</mask>
<g mask="url(#mask0_6807_76781)">
<path d="M27.2338 0H17.5703V9.66351H27.2338V0Z" fill="white"/>
</g>
<path d="M22.0121 17.4517L18.1623 13.6019C17.9989 13.4383 17.8877 13.2299 17.8427 13.003C17.7977 12.7762 17.8209 12.5411 17.9094 12.3275C17.998 12.1138 18.1478 11.9312 18.3401 11.8027C18.5324 11.6742 18.7584 11.6056 18.9897 11.6055H25.8079C26.0391 11.6056 26.2652 11.6742 26.4575 11.8027C26.6497 11.9312 26.7996 12.1138 26.8881 12.3275C26.9767 12.5411 26.9999 12.7762 26.9549 13.003C26.9099 13.2299 26.7986 13.4383 26.6352 13.6019L22.7854 17.4517C22.7347 17.5025 22.6744 17.5428 22.6081 17.5703C22.5417 17.5978 22.4706 17.612 22.3988 17.612C22.327 17.612 22.2558 17.5978 22.1895 17.5703C22.1232 17.5428 22.0629 17.5025 22.0121 17.4517Z" fill="white"/>
<path d="M41.6066 4.67927C40.6024 3.66218 39.1727 3.57709 38.2239 4.47858C37.2445 5.40816 37.2477 6.76641 38.2327 7.85013C40.8368 10.7175 40.7429 14.5274 38.0039 17.2672C36.499 18.7726 34.9949 20.2791 33.4916 21.7867C32.481 22.7957 31.4848 23.8192 30.4412 24.7954C30.1262 25.1036 29.7024 25.2752 29.2616 25.2731C28.8209 25.271 28.3988 25.0953 28.0867 24.7841C27.3931 24.1195 27.3402 23.1184 27.9711 22.3582C28.1493 22.1431 28.3589 21.9569 28.5571 21.7562C30.8939 19.4186 33.2428 17.0914 35.5651 14.7393C36.7901 13.4983 36.807 11.8992 35.6639 10.7826C34.5577 9.70207 32.969 9.74943 31.7625 10.9495C28.7867 13.9109 25.7925 16.8546 22.8608 19.8601C22.7969 19.9257 22.7204 19.9779 22.636 20.0135C22.5515 20.0492 22.4608 20.0675 22.3691 20.0675C22.2775 20.0675 22.1868 20.0492 22.1023 20.0135C22.0179 19.9779 21.9414 19.9257 21.8775 19.8601C18.9458 16.8554 15.9515 13.9117 12.9758 10.9495C11.7716 9.74943 10.1806 9.70288 9.07439 10.7826C7.93128 11.8992 7.95054 13.4983 9.17313 14.7393C11.4955 17.0922 13.8435 19.4186 16.1811 21.7562C16.3794 21.9544 16.5889 22.1431 16.7671 22.3582C17.3981 23.1184 17.3451 24.1195 16.6516 24.7841C16.3395 25.0953 15.9173 25.271 15.4766 25.2731C15.0359 25.2752 14.6121 25.1036 14.2971 24.7954C13.2535 23.8192 12.2573 22.7957 11.2466 21.7867C9.74014 20.2828 8.23605 18.7764 6.73437 17.2672C3.99539 14.5274 3.90227 10.7167 6.50559 7.85013C7.49057 6.76561 7.49378 5.40816 6.51442 4.47858C5.56557 3.57709 4.13507 3.66218 3.13163 4.67927C-1.04267 8.90815 -1.05551 15.9643 3.16294 20.2422C7.29229 24.4309 11.4762 28.5651 15.6361 32.7241C16.9454 34.0334 20.1788 37.2492 21.6358 38.699C21.8311 38.8919 22.0946 39.0001 22.3691 39.0001C22.6437 39.0001 22.9071 38.8919 23.1024 38.699C24.5602 37.2492 27.7929 34.0334 29.1022 32.7241C33.2612 28.5651 37.4452 24.4301 41.5753 20.2422C45.7938 15.9659 45.7817 8.91056 41.6066 4.67927Z" fill="white"/>
<path d="M50.9657 14.3938V20.3409C50.9657 20.5863 51.02 20.7562 51.1285 20.8506C51.2371 20.9403 51.4872 21.0111 51.879 21.063V21.6719H47.7161V21.063C48.1078 21.0111 48.358 20.9403 48.4665 20.8506C48.5751 20.7562 48.6294 20.5863 48.6294 20.3409V16.1425C48.6294 15.9254 48.6034 15.7767 48.5515 15.6965C48.4996 15.6115 48.3721 15.5407 48.1692 15.4841L47.7161 15.3567V14.7903L50.9657 14.3938ZM49.6418 13.3601C49.2972 13.3601 49.0022 13.2492 48.7568 13.0274C48.5161 12.8008 48.3957 12.5176 48.3957 12.1778C48.3957 11.838 48.5161 11.5548 48.7568 11.3282C49.0022 11.1017 49.2972 10.9884 49.6418 10.9884C49.9863 10.9884 50.279 11.1017 50.5197 11.3282C50.7651 11.5548 50.8878 11.838 50.8878 12.1778C50.8878 12.5176 50.7651 12.8008 50.5197 13.0274C50.279 13.2492 49.9863 13.3601 49.6418 13.3601ZM55.7115 20.1922C55.7115 20.3904 55.7351 20.5462 55.7823 20.6595C55.8295 20.768 55.9262 20.853 56.0725 20.9143C56.2188 20.971 56.436 21.0205 56.7239 21.063V21.6719H52.1149V21.063C52.4311 21.0205 52.6648 20.9686 52.8158 20.9073C52.9716 20.8459 53.073 20.7562 53.1202 20.6382C53.1722 20.5202 53.1981 20.3574 53.1981 20.1497V12.9707C53.1981 12.7584 53.1745 12.5955 53.1273 12.4822C53.0801 12.3642 52.9786 12.2746 52.8229 12.2132C52.6671 12.1518 52.4311 12.0999 52.1149 12.0574V11.4486H56.7239V12.0574C56.436 12.0999 56.2188 12.1518 56.0725 12.2132C55.9262 12.2698 55.8295 12.3524 55.7823 12.461C55.7351 12.5696 55.7115 12.7253 55.7115 12.9283V20.1922ZM62.3523 20.1497C62.3523 20.3621 62.3783 20.5273 62.4302 20.6453C62.4821 20.7633 62.586 20.853 62.7417 20.9143C62.8975 20.971 63.1311 21.0205 63.4426 21.063V21.6719H58.8337V21.063C59.1263 21.0252 59.3434 20.9781 59.485 20.9214C59.6313 20.8601 59.7281 20.7751 59.7753 20.6665C59.8225 20.5533 59.8461 20.3951 59.8461 20.1922V12.9283C59.8461 12.7206 59.8225 12.5625 59.7753 12.4539C59.7281 12.3406 59.6313 12.2557 59.485 12.199C59.3434 12.1424 59.1263 12.0952 58.8337 12.0574V11.4486H63.4426V12.0574C63.1311 12.0999 62.8975 12.1518 62.7417 12.2132C62.586 12.2698 62.4821 12.3572 62.4302 12.4752C62.3783 12.5884 62.3523 12.7536 62.3523 12.9707V20.1497ZM54.4583 16.8293V16.0788H61.0921V16.8293H54.4583ZM63.9051 18.132C63.9051 17.3768 64.0632 16.716 64.3794 16.1496C64.7004 15.5785 65.1441 15.1348 65.7105 14.8186C66.2768 14.5024 66.9306 14.3442 67.6716 14.3442C68.356 14.3442 68.9389 14.4717 69.4203 14.7265C69.9064 14.9814 70.277 15.3425 70.5318 15.8098C70.7914 16.2723 70.9212 16.8198 70.9212 17.4523C70.9212 17.5656 70.9189 17.6741 70.9141 17.778C70.9094 17.8818 70.9 17.9691 70.8858 18.0399H65.3565V17.3461L69.0167 17.3319L68.8468 17.5302C68.8515 17.4688 68.8539 17.4051 68.8539 17.339C68.8586 17.2682 68.861 17.1809 68.861 17.0771C68.861 16.4682 68.7595 15.9938 68.5566 15.654C68.3583 15.3095 68.0633 15.1372 67.6716 15.1372C67.2326 15.1372 66.8857 15.3331 66.6308 15.7248C66.3807 16.1118 66.2556 16.6782 66.2556 17.424C66.2556 18.0989 66.3712 18.6795 66.6025 19.1656C66.8338 19.647 67.1571 20.0152 67.5725 20.2701C67.9925 20.5249 68.4858 20.6524 69.0521 20.6524C69.3825 20.6524 69.6988 20.6005 70.0008 20.4966C70.3076 20.3881 70.5578 20.2465 70.7513 20.0718V20.6807C70.4681 21.0347 70.0646 21.3155 69.5407 21.5232C69.0167 21.7262 68.4244 21.8276 67.7636 21.8276C67.0462 21.8276 66.3948 21.6813 65.8096 21.3887C65.229 21.0913 64.7665 20.6665 64.4219 20.1143C64.0774 19.5621 63.9051 18.9013 63.9051 18.132ZM73.6209 21.8276C72.9837 21.8276 72.4693 21.6624 72.0775 21.332C71.6858 20.9969 71.4899 20.5674 71.4899 20.0435C71.4899 19.6754 71.5866 19.3473 71.7801 19.0594C71.9737 18.7668 72.2899 18.5119 72.7288 18.2948C73.1678 18.073 73.7507 17.8865 74.4776 17.7355L76.7573 17.2541V17.9337L75.3909 18.2382C74.8009 18.3703 74.3855 18.552 74.1448 18.7833C73.9041 19.0146 73.7837 19.3096 73.7837 19.6683C73.7837 20.0176 73.8852 20.2866 74.0882 20.4754C74.2911 20.6595 74.5436 20.7515 74.8457 20.7515C75.1053 20.7515 75.3342 20.6996 75.5325 20.5957C75.7354 20.4872 75.8888 20.3432 75.9927 20.1639V16.8647C75.9927 16.2511 75.8463 15.8168 75.5537 15.562C75.2611 15.3024 74.8575 15.1726 74.3431 15.1726C74.0315 15.1726 73.7413 15.2198 73.4722 15.3142C73.2079 15.4039 72.9861 15.5289 72.8067 15.6894C72.6321 15.8499 72.5188 16.041 72.4669 16.2629H72.0279C72.0279 15.9561 72.1176 15.6941 72.297 15.477C72.4763 15.2552 72.6911 15.1443 72.9412 15.1443C73.2103 15.1443 73.4416 15.241 73.6351 15.4345C73.8286 15.6233 73.9253 15.8546 73.9253 16.1284C73.9253 16.4163 73.8215 16.657 73.6138 16.8505C73.4062 17.044 73.1466 17.1408 72.835 17.1408C72.5283 17.1408 72.271 17.0511 72.0633 16.8717C71.8604 16.6877 71.7589 16.4517 71.7589 16.1638C71.7589 15.8239 71.8958 15.5171 72.1695 15.2434C72.4433 14.9649 72.828 14.7454 73.3236 14.585C73.8191 14.4198 74.3973 14.3372 75.0581 14.3372C76.0682 14.3372 76.8588 14.5378 77.4299 14.9389C78.001 15.3401 78.2865 15.975 78.2865 16.8434V20.0435C78.2865 20.3409 78.355 20.5533 78.4918 20.6807C78.6287 20.8081 78.7939 20.8719 78.9874 20.8719C79.1149 20.8719 79.2211 20.8577 79.306 20.8294V21.4028C79.1597 21.5067 78.9591 21.5964 78.7042 21.6719C78.4494 21.7521 78.1638 21.7922 77.8476 21.7922C77.5597 21.7922 77.2906 21.7474 77.0405 21.6577C76.795 21.568 76.585 21.4382 76.4104 21.2683C76.2404 21.0984 76.1248 20.8931 76.0635 20.6524C75.8794 20.9969 75.5702 21.2801 75.136 21.502C74.7065 21.7191 74.2015 21.8276 73.6209 21.8276ZM82.65 11.0521V20.3409C82.65 20.5863 82.7043 20.7562 82.8128 20.8506C82.9214 20.9403 83.1715 21.0111 83.5633 21.063V21.6719H79.4003V21.063C79.7921 21.0111 80.0422 20.9403 80.1508 20.8506C80.2593 20.7562 80.3136 20.5863 80.3136 20.3409V12.8008C80.3136 12.5837 80.2877 12.435 80.2357 12.3548C80.1838 12.2698 80.0564 12.199 79.8534 12.1424L79.4003 12.0079V11.4486L82.65 11.0521ZM84.578 19.4913V15.385H83.693V14.8611L86.4258 12.8362H86.886V14.5637L88.8188 14.4929V15.385L86.886 15.3142V19.2789C86.886 19.817 86.9875 20.1969 87.1904 20.4187C87.3981 20.6359 87.6718 20.7444 88.0117 20.7444C88.1863 20.7444 88.3539 20.7208 88.5143 20.6736C88.6748 20.6217 88.807 20.558 88.9108 20.4825V21.0913C88.7315 21.2801 88.4435 21.45 88.0471 21.6011C87.6506 21.7521 87.2329 21.8276 86.7939 21.8276C86.3975 21.8276 86.0293 21.7521 85.6895 21.6011C85.3544 21.45 85.0853 21.2046 84.8824 20.8648C84.6794 20.5202 84.578 20.0624 84.578 19.4913ZM92.2123 11.045L92.1911 15.6469C92.3798 15.2741 92.689 14.9625 93.1185 14.7124C93.5527 14.4622 94.079 14.3372 94.6973 14.3372C95.4383 14.3372 96.0354 14.5378 96.4885 14.9389C96.9463 15.3354 97.1753 15.9089 97.1753 16.6593V20.3409C97.1753 20.5061 97.1965 20.6359 97.239 20.7303C97.2862 20.8199 97.3735 20.8907 97.5009 20.9427C97.6331 20.9899 97.829 21.03 98.0886 21.063V21.6719H94.0672V21.063C94.4023 21.0158 94.6147 20.9497 94.7044 20.8648C94.7941 20.7798 94.8389 20.6193 94.8389 20.3833V16.9425C94.8389 16.4706 94.7209 16.1142 94.4849 15.8735C94.2489 15.6328 93.9209 15.5124 93.5008 15.5124C93.194 15.5124 92.9274 15.5738 92.7008 15.6965C92.479 15.8145 92.3161 15.9632 92.2123 16.1425V20.3833C92.2123 20.6193 92.2571 20.7798 92.3468 20.8648C92.4365 20.9497 92.6489 21.0158 92.984 21.063V21.6719H88.9626V21.063C89.3544 21.0111 89.6046 20.9403 89.7131 20.8506C89.8217 20.7562 89.8759 20.5863 89.8759 20.3409V12.8008C89.8759 12.5837 89.85 12.435 89.7981 12.3548C89.7461 12.2698 89.6187 12.199 89.4158 12.1424L88.9626 12.0079V11.4486L92.2123 11.045ZM103.523 21.8276C102.886 21.8276 102.372 21.6624 101.98 21.332C101.588 20.9969 101.392 20.5674 101.392 20.0435C101.392 19.6754 101.489 19.3473 101.683 19.0594C101.876 18.7668 102.192 18.5119 102.631 18.2948C103.07 18.073 103.653 17.8865 104.38 17.7355L106.66 17.2541V17.9337L105.293 18.2382C104.703 18.3703 104.288 18.552 104.047 18.7833C103.807 19.0146 103.686 19.3096 103.686 19.6683C103.686 20.0176 103.788 20.2866 103.991 20.4754C104.194 20.6595 104.446 20.7515 104.748 20.7515C105.008 20.7515 105.237 20.6996 105.435 20.5957C105.638 20.4872 105.791 20.3432 105.895 20.1639V16.8647C105.895 16.2511 105.749 15.8168 105.456 15.562C105.163 15.3024 104.76 15.1726 104.245 15.1726C103.934 15.1726 103.644 15.2198 103.375 15.3142C103.11 15.4039 102.889 15.5289 102.709 15.6894C102.535 15.8499 102.421 16.041 102.369 16.2629H101.93C101.93 15.9561 102.02 15.6941 102.199 15.477C102.379 15.2552 102.594 15.1443 102.844 15.1443C103.113 15.1443 103.344 15.241 103.537 15.4345C103.731 15.6233 103.828 15.8546 103.828 16.1284C103.828 16.4163 103.724 16.657 103.516 16.8505C103.309 17.044 103.049 17.1408 102.737 17.1408C102.431 17.1408 102.173 17.0511 101.966 16.8717C101.763 16.6877 101.661 16.4517 101.661 16.1638C101.661 15.8239 101.798 15.5171 102.072 15.2434C102.346 14.9649 102.73 14.7454 103.226 14.585C103.722 14.4198 104.3 14.3372 104.961 14.3372C105.971 14.3372 106.761 14.5378 107.332 14.9389C107.903 15.3401 108.189 15.975 108.189 16.8434V20.0435C108.189 20.3409 108.257 20.5533 108.394 20.6807C108.531 20.8081 108.696 20.8719 108.89 20.8719C109.017 20.8719 109.123 20.8577 109.208 20.8294V21.4028C109.062 21.5067 108.862 21.5964 108.607 21.6719C108.352 21.7521 108.066 21.7922 107.75 21.7922C107.462 21.7922 107.193 21.7474 106.943 21.6577C106.697 21.568 106.487 21.4382 106.313 21.2683C106.143 21.0984 106.027 20.8931 105.966 20.6524C105.782 20.9969 105.473 21.2801 105.038 21.502C104.609 21.7191 104.104 21.8276 103.523 21.8276ZM112.524 14.3938V15.6682C112.708 15.2906 113.017 14.9743 113.452 14.7195C113.886 14.4646 114.414 14.3372 115.037 14.3372C115.778 14.3372 116.376 14.5378 116.829 14.9389C117.286 15.3354 117.515 15.9089 117.515 16.6593V20.3409C117.515 20.5061 117.537 20.6359 117.579 20.7303C117.626 20.8199 117.714 20.8907 117.841 20.9427C117.973 20.9899 118.169 21.03 118.429 21.063V21.6719H114.407V21.063C114.742 21.0158 114.955 20.9497 115.044 20.8648C115.134 20.7798 115.179 20.6193 115.179 20.3833V16.9425C115.179 16.4706 115.061 16.1142 114.825 15.8735C114.589 15.6328 114.261 15.5124 113.841 15.5124C113.534 15.5124 113.267 15.5738 113.041 15.6965C112.819 15.8145 112.656 15.9632 112.552 16.1425V20.3833C112.552 20.6193 112.597 20.7798 112.687 20.8648C112.777 20.9497 112.989 21.0158 113.324 21.063V21.6719H109.303V21.063C109.694 21.0111 109.945 20.9403 110.053 20.8506C110.162 20.7562 110.216 20.5863 110.216 20.3409V16.1425C110.216 15.9254 110.19 15.7767 110.138 15.6965C110.086 15.6115 109.959 15.5407 109.756 15.4841L109.303 15.3567V14.7903L112.524 14.3938ZM118.778 18.1674C118.778 17.3697 118.927 16.6853 119.224 16.1142C119.526 15.5431 119.927 15.1041 120.427 14.7973C120.932 14.4906 121.489 14.3372 122.098 14.3372C122.504 14.3372 122.882 14.4127 123.231 14.5637C123.58 14.71 123.842 14.8988 124.017 15.1301V12.8008C124.017 12.5837 123.989 12.435 123.932 12.3548C123.88 12.2698 123.757 12.199 123.564 12.1424L123.104 12.0079V11.4486L126.353 11.0592V20.0506C126.353 20.263 126.379 20.4117 126.431 20.4966C126.488 20.5769 126.618 20.6477 126.821 20.709L127.274 20.8365V21.4028L124.052 21.7639V20.4895C123.868 20.8907 123.566 21.214 123.146 21.4595C122.726 21.7049 122.242 21.8276 121.695 21.8276C121.152 21.8276 120.659 21.6837 120.215 21.3958C119.776 21.1031 119.427 20.6831 119.167 20.1355C118.908 19.588 118.778 18.932 118.778 18.1674ZM121.178 17.9762C121.178 18.8305 121.329 19.4913 121.631 19.9586C121.938 20.4211 122.334 20.6524 122.82 20.6524C123.099 20.6524 123.342 20.5934 123.55 20.4754C123.757 20.3574 123.913 20.1969 124.017 19.994V15.8522C123.932 15.687 123.786 15.5478 123.578 15.4345C123.375 15.3213 123.137 15.2646 122.863 15.2646C122.363 15.2646 121.957 15.4983 121.645 15.9655C121.334 16.4328 121.178 17.103 121.178 17.9762ZM131.427 13.5088C131.309 13.1265 131.193 12.8386 131.08 12.6451C130.972 12.4516 130.835 12.3147 130.669 12.2344C130.509 12.1495 130.299 12.0905 130.039 12.0574V11.4486H134.875V12.0574C134.535 12.1046 134.29 12.1731 134.139 12.2628C133.988 12.3477 133.91 12.487 133.905 12.6805C133.905 12.874 133.954 13.1548 134.054 13.523L135.809 19.7037H135.71L137.431 13.4734C137.535 13.1147 137.584 12.8433 137.579 12.6592C137.579 12.4704 137.506 12.3359 137.36 12.2557C137.218 12.1707 136.98 12.1046 136.645 12.0574V11.4486H141.268V12.0574C140.938 12.1046 140.699 12.1707 140.553 12.2557C140.411 12.3359 140.343 12.4728 140.348 12.6663C140.352 12.8551 140.404 13.1312 140.503 13.4947L142.259 19.7037H142.153L143.859 13.5655C143.968 13.1831 144.02 12.8929 144.015 12.6946C144.015 12.4964 143.939 12.3524 143.788 12.2628C143.642 12.1731 143.399 12.1046 143.059 12.0574V11.4486H146.295V12.0574C146.016 12.0952 145.794 12.1566 145.629 12.2415C145.469 12.3265 145.332 12.4752 145.219 12.6876C145.105 12.8952 144.983 13.2067 144.85 13.6221L142.323 21.679H140.411L137.955 13.4026H138.422L135.859 21.679H133.997L131.427 13.5088ZM144.952 18.132C144.952 17.3768 145.11 16.716 145.426 16.1496C145.747 15.5785 146.191 15.1348 146.757 14.8186C147.323 14.5024 147.977 14.3442 148.718 14.3442C149.403 14.3442 149.986 14.4717 150.467 14.7265C150.953 14.9814 151.324 15.3425 151.578 15.8098C151.838 16.2723 151.968 16.8198 151.968 17.4523C151.968 17.5656 151.965 17.6741 151.961 17.778C151.956 17.8818 151.947 17.9691 151.932 18.0399H146.403V17.3461L150.063 17.3319L149.893 17.5302C149.898 17.4688 149.901 17.4051 149.901 17.339C149.905 17.2682 149.908 17.1809 149.908 17.0771C149.908 16.4682 149.806 15.9938 149.603 15.654C149.405 15.3095 149.11 15.1372 148.718 15.1372C148.279 15.1372 147.932 15.3331 147.677 15.7248C147.427 16.1118 147.302 16.6782 147.302 17.424C147.302 18.0989 147.418 18.6795 147.649 19.1656C147.88 19.647 148.204 20.0152 148.619 20.2701C149.039 20.5249 149.532 20.6524 150.099 20.6524C150.429 20.6524 150.745 20.6005 151.047 20.4966C151.354 20.3881 151.604 20.2465 151.798 20.0718V20.6807C151.515 21.0347 151.111 21.3155 150.587 21.5232C150.063 21.7262 149.471 21.8276 148.81 21.8276C148.093 21.8276 147.441 21.6813 146.856 21.3887C146.276 21.0913 145.813 20.6665 145.469 20.1143C145.124 19.5621 144.952 18.9013 144.952 18.132ZM155.666 11.0521V20.3409C155.666 20.5863 155.72 20.7562 155.829 20.8506C155.937 20.9403 156.187 21.0111 156.579 21.063V21.6719H152.416V21.063C152.808 21.0111 153.058 20.9403 153.167 20.8506C153.275 20.7562 153.329 20.5863 153.329 20.3409V12.8008C153.329 12.5837 153.303 12.435 153.252 12.3548C153.2 12.2698 153.072 12.199 152.869 12.1424L152.416 12.0079V11.4486L155.666 11.0521ZM160.058 11.0521V20.3409C160.058 20.5863 160.112 20.7562 160.22 20.8506C160.329 20.9403 160.579 21.0111 160.971 21.063V21.6719H156.808V21.063C157.2 21.0111 157.45 20.9403 157.558 20.8506C157.667 20.7562 157.721 20.5863 157.721 20.3409V12.8008C157.721 12.5837 157.695 12.435 157.643 12.3548C157.591 12.2698 157.464 12.199 157.261 12.1424L156.808 12.0079V11.4486L160.058 11.0521ZM164.421 14.3938V15.6682C164.605 15.2906 164.914 14.9743 165.348 14.7195C165.783 14.4646 166.311 14.3372 166.934 14.3372C167.675 14.3372 168.272 14.5378 168.726 14.9389C169.183 15.3354 169.412 15.9089 169.412 16.6593V20.3409C169.412 20.5061 169.434 20.6359 169.476 20.7303C169.523 20.8199 169.611 20.8907 169.738 20.9427C169.87 20.9899 170.066 21.03 170.326 21.063V21.6719H166.304V21.063C166.639 21.0158 166.852 20.9497 166.941 20.8648C167.031 20.7798 167.076 20.6193 167.076 20.3833V16.9425C167.076 16.4706 166.958 16.1142 166.722 15.8735C166.486 15.6328 166.158 15.5124 165.738 15.5124C165.431 15.5124 165.164 15.5738 164.938 15.6965C164.716 15.8145 164.553 15.9632 164.449 16.1425V20.3833C164.449 20.6193 164.494 20.7798 164.584 20.8648C164.674 20.9497 164.886 21.0158 165.221 21.063V21.6719H161.2V21.063C161.591 21.0111 161.842 20.9403 161.95 20.8506C162.059 20.7562 162.113 20.5863 162.113 20.3409V16.1425C162.113 15.9254 162.087 15.7767 162.035 15.6965C161.983 15.6115 161.856 15.5407 161.653 15.4841L161.2 15.3567V14.7903L164.421 14.3938ZM170.675 18.132C170.675 17.3768 170.833 16.716 171.149 16.1496C171.47 15.5785 171.914 15.1348 172.48 14.8186C173.047 14.5024 173.7 14.3442 174.441 14.3442C175.126 14.3442 175.709 14.4717 176.19 14.7265C176.676 14.9814 177.047 15.3425 177.302 15.8098C177.561 16.2723 177.691 16.8198 177.691 17.4523C177.691 17.5656 177.689 17.6741 177.684 17.778C177.679 17.8818 177.67 17.9691 177.656 18.0399H172.126V17.3461L175.786 17.3319L175.617 17.5302C175.621 17.4688 175.624 17.4051 175.624 17.339C175.628 17.2682 175.631 17.1809 175.631 17.0771C175.631 16.4682 175.529 15.9938 175.326 15.654C175.128 15.3095 174.833 15.1372 174.441 15.1372C174.002 15.1372 173.655 15.3331 173.401 15.7248C173.15 16.1118 173.025 16.6782 173.025 17.424C173.025 18.0989 173.141 18.6795 173.372 19.1656C173.603 19.647 173.927 20.0152 174.342 20.2701C174.762 20.5249 175.255 20.6524 175.822 20.6524C176.152 20.6524 176.468 20.6005 176.771 20.4966C177.077 20.3881 177.327 20.2465 177.521 20.0718V20.6807C177.238 21.0347 176.834 21.3155 176.31 21.5232C175.786 21.7262 175.194 21.8276 174.533 21.8276C173.816 21.8276 173.165 21.6813 172.579 21.3887C171.999 21.0913 171.536 20.6665 171.192 20.1143C170.847 19.5621 170.675 18.9013 170.675 18.132ZM178.337 16.6452C178.337 16.1685 178.47 15.7578 178.734 15.4133C179.003 15.0687 179.385 14.8044 179.881 14.6204C180.376 14.4316 180.971 14.3372 181.665 14.3372C182.227 14.3372 182.718 14.3867 183.138 14.4858C183.562 14.585 183.89 14.6959 184.122 14.8186L184.164 16.6664H183.591C183.463 16.185 183.239 15.8098 182.918 15.5407C182.597 15.2717 182.196 15.1372 181.715 15.1372C181.318 15.1372 181.007 15.2174 180.78 15.3779C180.558 15.5337 180.447 15.7437 180.447 16.008C180.447 16.2676 180.549 16.4729 180.752 16.6239C180.959 16.7703 181.261 16.9001 181.658 17.0133L182.309 17.1903C183.041 17.3839 183.591 17.6647 183.959 18.0328C184.327 18.3963 184.511 18.8801 184.511 19.4842C184.511 19.9609 184.369 20.3739 184.086 20.7232C183.803 21.0724 183.407 21.3415 182.897 21.5303C182.392 21.7191 181.809 21.8135 181.148 21.8135C180.577 21.8135 180.046 21.7568 179.555 21.6436C179.064 21.5256 178.665 21.3769 178.359 21.1975L178.302 19.2718H178.876C178.96 19.6116 179.102 19.9137 179.3 20.178C179.499 20.4423 179.746 20.65 180.044 20.8011C180.346 20.9474 180.688 21.0205 181.07 21.0205C181.49 21.0205 181.818 20.9356 182.054 20.7657C182.29 20.591 182.408 20.3668 182.408 20.0931C182.408 19.8382 182.316 19.6329 182.132 19.4771C181.948 19.3166 181.648 19.1774 181.233 19.0594L180.582 18.8824C179.907 18.6936 179.364 18.4246 178.953 18.0753C178.543 17.726 178.337 17.2493 178.337 16.6452ZM185.136 16.6452C185.136 16.1685 185.269 15.7578 185.533 15.4133C185.802 15.0687 186.184 14.8044 186.68 14.6204C187.175 14.4316 187.77 14.3372 188.464 14.3372C189.026 14.3372 189.516 14.3867 189.936 14.4858C190.361 14.585 190.689 14.6959 190.921 14.8186L190.963 16.6664H190.39C190.262 16.185 190.038 15.8098 189.717 15.5407C189.396 15.2717 188.995 15.1372 188.513 15.1372C188.117 15.1372 187.805 15.2174 187.579 15.3779C187.357 15.5337 187.246 15.7437 187.246 16.008C187.246 16.2676 187.348 16.4729 187.551 16.6239C187.758 16.7703 188.06 16.9001 188.457 17.0133L189.108 17.1903C189.84 17.3839 190.39 17.6647 190.758 18.0328C191.126 18.3963 191.31 18.8801 191.31 19.4842C191.31 19.9609 191.168 20.3739 190.885 20.7232C190.602 21.0724 190.206 21.3415 189.696 21.5303C189.191 21.7191 188.608 21.8135 187.947 21.8135C187.376 21.8135 186.845 21.7568 186.354 21.6436C185.863 21.5256 185.464 21.3769 185.158 21.1975L185.101 19.2718H185.674C185.759 19.6116 185.901 19.9137 186.099 20.178C186.297 20.4423 186.545 20.65 186.843 20.8011C187.145 20.9474 187.487 21.0205 187.869 21.0205C188.289 21.0205 188.617 20.9356 188.853 20.7657C189.089 20.591 189.207 20.3668 189.207 20.0931C189.207 19.8382 189.115 19.6329 188.931 19.4771C188.747 19.3166 188.447 19.1774 188.032 19.0594L187.381 18.8824C186.706 18.6936 186.163 18.4246 185.752 18.0753C185.342 17.726 185.136 17.2493 185.136 16.6452Z" fill="white"/>
<path d="M51.3249 23.995L51.3641 25.2779H51.1147C51.0719 25.0878 51.0196 24.9322 50.9579 24.8111C50.8985 24.6899 50.8213 24.5961 50.7263 24.5296C50.6336 24.463 50.5172 24.4167 50.377 24.3906C50.2369 24.3621 50.0647 24.3443 49.8603 24.3371L48.9517 24.3086V26.3718H49.9102C49.991 26.3718 50.0563 26.3564 50.1062 26.3255C50.1561 26.2923 50.2001 26.2246 50.2381 26.1224C50.2761 26.0179 50.3165 25.8599 50.3592 25.6485H50.5944V27.4124H50.3592C50.326 27.2057 50.2903 27.0513 50.2523 26.9491C50.2143 26.8446 50.1692 26.7757 50.1169 26.7424C50.0647 26.7068 49.9958 26.689 49.9102 26.689H48.9517V28.3887C48.9517 28.5028 48.9659 28.5919 48.9944 28.656C49.0253 28.7201 49.0883 28.7677 49.1833 28.7985C49.2807 28.827 49.4304 28.8508 49.6323 28.8698V29.1406H47.5584V28.8698C47.7484 28.8532 47.8874 28.8318 47.9753 28.8057C48.0632 28.7795 48.119 28.738 48.1428 28.6809C48.1689 28.6239 48.182 28.542 48.182 28.4351V24.7006C48.182 24.5937 48.1689 24.5117 48.1428 24.4547C48.119 24.3977 48.0632 24.3561 47.9753 24.33C47.8874 24.3039 47.7484 24.2825 47.5584 24.2659V23.995H51.3249ZM53.1638 29.219C52.8264 29.219 52.5224 29.1406 52.2515 28.9838C51.9831 28.827 51.7705 28.6097 51.6137 28.3317C51.4569 28.0538 51.3785 27.7343 51.3785 27.3732C51.3785 27.0026 51.4593 26.6771 51.6208 26.3968C51.7824 26.1141 52.0009 25.8932 52.2765 25.734C52.5544 25.5748 52.8692 25.4952 53.2208 25.4952C53.5605 25.4952 53.8646 25.5736 54.133 25.7304C54.4039 25.8872 54.6177 26.1046 54.7745 26.3825C54.9312 26.6605 55.0096 26.98 55.0096 27.3411C55.0096 27.7093 54.9289 28.0348 54.7673 28.3175C54.6058 28.6002 54.386 28.8211 54.1081 28.9803C53.8301 29.1394 53.5154 29.219 53.1638 29.219ZM53.2208 28.8484C53.5463 28.8484 53.7981 28.7201 53.9762 28.4636C54.1568 28.207 54.2471 27.8566 54.2471 27.4124C54.2471 27.0964 54.1996 26.8232 54.1045 26.5928C54.0119 26.36 53.8836 26.1806 53.7197 26.0547C53.5581 25.9288 53.3728 25.8658 53.1638 25.8658C52.8407 25.8658 52.5889 25.9941 52.4083 26.2507C52.2278 26.5049 52.1375 26.8553 52.1375 27.3019C52.1375 27.6179 52.1838 27.8922 52.2765 28.125C52.3715 28.3555 52.501 28.5337 52.6649 28.6596C52.8288 28.7855 53.0141 28.8484 53.2208 28.8484ZM56.5919 25.5344V27.8471C56.5919 28.1488 56.6668 28.3792 56.8164 28.5384C56.9685 28.6952 57.1787 28.7736 57.4472 28.7736C57.6396 28.7736 57.8035 28.7344 57.9389 28.656C58.0767 28.5752 58.1789 28.4802 58.2454 28.3709V26.2756C58.2454 26.1782 58.2311 26.1117 58.2026 26.0761C58.1765 26.0404 58.1123 26.0108 58.0102 25.987L57.7215 25.9193V25.6805L58.9509 25.5344V28.4351C58.9509 28.5301 58.9652 28.5966 58.9937 28.6346C59.0222 28.6703 59.0887 28.7011 59.1932 28.7273L59.4747 28.795V29.0302L58.2596 29.1798V28.6382C58.1575 28.8045 58.0078 28.9434 57.8106 29.0551C57.6158 29.1644 57.3818 29.219 57.1086 29.219C56.7475 29.219 56.4542 29.1169 56.2285 28.9126C56.0028 28.7059 55.8899 28.4161 55.8899 28.0431V26.2756C55.8899 26.1782 55.8757 26.1117 55.8472 26.0761C55.8211 26.0404 55.7557 26.0108 55.6512 25.987L55.3661 25.9193V25.6805L56.5919 25.5344ZM60.968 25.5344V26.0761C61.0725 25.9098 61.2257 25.772 61.4276 25.6627C61.632 25.5511 61.8719 25.4952 62.1475 25.4952C62.5157 25.4952 62.815 25.5962 63.0454 25.7981C63.2759 25.9977 63.3911 26.2792 63.3911 26.6427V28.5598C63.3911 28.6311 63.4018 28.6869 63.4232 28.7273C63.4469 28.7653 63.4956 28.795 63.5693 28.8164C63.6429 28.8354 63.7581 28.8532 63.9149 28.8698V29.1406H62.1973V28.8698C62.4159 28.846 62.5513 28.8164 62.6036 28.7807C62.6582 28.7451 62.6855 28.6762 62.6855 28.574V26.8387C62.6855 26.5465 62.6083 26.3243 62.4539 26.1723C62.3019 26.0179 62.0952 25.9407 61.8339 25.9407C61.6248 25.9407 61.4478 25.9799 61.3029 26.0583C61.1604 26.1367 61.0547 26.2317 60.9858 26.3433V28.574C60.9858 28.6762 61.0131 28.7451 61.0677 28.7807C61.1224 28.8164 61.259 28.846 61.4775 28.8698V29.1406H59.76V28.8698C59.9928 28.846 60.1377 28.8152 60.1947 28.7772C60.2541 28.7391 60.2838 28.6667 60.2838 28.5598V26.2756C60.2838 26.1782 60.2695 26.1117 60.241 26.0761C60.2149 26.0404 60.1496 26.0108 60.045 25.987L59.76 25.9193V25.6805L60.968 25.5344ZM64.3106 27.4017C64.3106 27.024 64.3854 26.6926 64.5351 26.4075C64.6871 26.12 64.8914 25.8967 65.148 25.7376C65.4046 25.576 65.6908 25.4952 66.0068 25.4952C66.2063 25.4952 66.3881 25.5297 66.552 25.5986C66.7183 25.6675 66.8549 25.7542 66.9618 25.8587V24.5901C66.9618 24.4927 66.9475 24.4262 66.919 24.3906C66.8929 24.3526 66.8288 24.3217 66.7266 24.2979L66.438 24.2302V23.995L67.6673 23.8454V28.4351C67.6673 28.5301 67.6816 28.5966 67.7101 28.6346C67.7386 28.6703 67.8063 28.7011 67.9132 28.7273L68.1912 28.795V29.0302L66.9796 29.1798V28.599C66.8822 28.7819 66.723 28.9316 66.5021 29.048C66.2812 29.162 66.0389 29.219 65.7752 29.219C65.5138 29.219 65.2715 29.1466 65.0482 29.0017C64.8273 28.8567 64.6491 28.6489 64.5137 28.3781C64.3783 28.1072 64.3106 27.7818 64.3106 27.4017ZM65.0411 27.3375C65.0411 27.7841 65.1397 28.1357 65.3369 28.3923C65.5364 28.6465 65.8013 28.7736 66.1315 28.7736C66.3192 28.7736 66.4855 28.7368 66.6304 28.6631C66.7777 28.5895 66.8881 28.4838 66.9618 28.346V26.2436C66.9024 26.1414 66.8014 26.0535 66.6589 25.9799C66.5187 25.9062 66.3501 25.8694 66.1529 25.8694C65.8298 25.8694 65.5637 26.0001 65.3547 26.2614C65.1456 26.5227 65.0411 26.8814 65.0411 27.3375ZM69.6381 29.219C69.3364 29.219 69.0834 29.1335 68.8791 28.9625C68.6771 28.7914 68.5762 28.574 68.5762 28.3103C68.5762 28.1132 68.6225 27.9433 68.7151 27.8008C68.8102 27.6582 68.9586 27.5371 69.1606 27.4373C69.3625 27.3352 69.6226 27.2496 69.941 27.1807L71.1098 26.9242V27.252L70.2438 27.4373C69.8994 27.5133 69.6535 27.6095 69.5062 27.7259C69.3613 27.8424 69.2888 27.9956 69.2888 28.1856C69.2888 28.3804 69.3542 28.5325 69.4848 28.6417C69.6155 28.751 69.7818 28.8057 69.9837 28.8057C70.1571 28.8057 70.3139 28.7712 70.4541 28.7023C70.5966 28.6334 70.7083 28.5408 70.789 28.4244V26.7139C70.789 26.3956 70.7083 26.1747 70.5467 26.0511C70.3852 25.9276 70.1773 25.8658 69.9231 25.8658C69.7687 25.8658 69.6262 25.886 69.4955 25.9264C69.3672 25.9644 69.258 26.0238 69.1677 26.1046C69.0774 26.183 69.0133 26.2828 68.9753 26.4039H68.7935C68.7935 26.2804 68.828 26.1759 68.8969 26.0903C68.9658 26.0024 69.0477 25.9585 69.1427 25.9585C69.2401 25.9585 69.3245 25.9965 69.3957 26.0725C69.467 26.1485 69.5027 26.2388 69.5027 26.3433C69.5027 26.4526 69.4635 26.5429 69.3851 26.6142C69.309 26.6854 69.2128 26.7211 69.0964 26.7211C68.9824 26.7211 68.885 26.6842 68.8042 26.6106C68.7258 26.537 68.6866 26.4419 68.6866 26.3255C68.6866 26.1592 68.7543 26.0143 68.8897 25.8908C69.0252 25.7673 69.2045 25.671 69.4278 25.6021C69.6535 25.5309 69.8994 25.4952 70.1654 25.4952C70.5693 25.4952 70.8888 25.5855 71.124 25.7661C71.3616 25.9466 71.4804 26.2281 71.4804 26.6106V28.3852C71.4804 28.5443 71.5184 28.656 71.5944 28.7201C71.6728 28.7843 71.7654 28.8164 71.8723 28.8164C71.9602 28.8164 72.0291 28.8045 72.079 28.7807V29.0302C72.0196 29.0705 71.94 29.1086 71.8403 29.1442C71.7405 29.1798 71.6276 29.1976 71.5017 29.1976C71.383 29.1976 71.276 29.1786 71.181 29.1406C71.0884 29.1026 71.01 29.0468 70.9458 28.9731C70.8841 28.8995 70.8401 28.8092 70.814 28.7023C70.7095 28.8401 70.5527 28.9613 70.3436 29.0658C70.1346 29.1679 69.8994 29.219 69.6381 29.219ZM72.7206 28.1464V25.9478H72.2324V25.7589L73.2978 24.9108H73.4226V25.595L74.5522 25.5736V25.9478L73.4226 25.9335V27.9718C73.4226 28.2925 73.4831 28.5123 73.6043 28.6311C73.7254 28.7475 73.8775 28.8057 74.0604 28.8057C74.1649 28.8057 74.2659 28.7914 74.3633 28.7629C74.4607 28.732 74.5438 28.6964 74.6127 28.656V28.9268C74.5248 29.0028 74.393 29.0705 74.2172 29.1299C74.0414 29.1893 73.8668 29.219 73.6934 29.219C73.5318 29.219 73.3762 29.1869 73.2266 29.1228C73.0769 29.0587 72.9546 28.9482 72.8595 28.7914C72.7669 28.6346 72.7206 28.4196 72.7206 28.1464ZM76.0454 25.5344V28.5598C76.0454 28.6667 76.0739 28.7391 76.1309 28.7772C76.1903 28.8152 76.3364 28.846 76.5692 28.8698V29.1406H74.8196V28.8698C75.0524 28.846 75.1973 28.8152 75.2543 28.7772C75.3137 28.7391 75.3434 28.6667 75.3434 28.5598V26.2756C75.3434 26.1782 75.3291 26.1117 75.3006 26.0761C75.2745 26.0404 75.2092 26.0108 75.1046 25.987L74.8196 25.9193V25.6805L76.0454 25.5344ZM75.6178 24.7861C75.4895 24.7861 75.3814 24.7434 75.2935 24.6578C75.2056 24.5723 75.1617 24.4666 75.1617 24.3407C75.1617 24.2148 75.2056 24.1103 75.2935 24.0271C75.3814 23.9416 75.4895 23.8988 75.6178 23.8988C75.7461 23.8988 75.8541 23.9416 75.942 24.0271C76.0299 24.1103 76.0739 24.2148 76.0739 24.3407C76.0739 24.4666 76.0299 24.5723 75.942 24.6578C75.8541 24.7434 75.7461 24.7861 75.6178 24.7861ZM78.768 29.219C78.4306 29.219 78.1266 29.1406 77.8557 28.9838C77.5873 28.827 77.3747 28.6097 77.2179 28.3317C77.0611 28.0538 76.9827 27.7343 76.9827 27.3732C76.9827 27.0026 77.0635 26.6771 77.225 26.3968C77.3866 26.1141 77.6051 25.8932 77.8807 25.734C78.1586 25.5748 78.4734 25.4952 78.825 25.4952C79.1647 25.4952 79.4688 25.5736 79.7372 25.7304C80.008 25.8872 80.2219 26.1046 80.3786 26.3825C80.5354 26.6605 80.6138 26.98 80.6138 27.3411C80.6138 27.7093 80.5331 28.0348 80.3715 28.3175C80.21 28.6002 79.9902 28.8211 79.7123 28.9803C79.4343 29.1394 79.1196 29.219 78.768 29.219ZM78.825 28.8484C79.1505 28.8484 79.4023 28.7201 79.5804 28.4636C79.761 28.207 79.8513 27.8566 79.8513 27.4124C79.8513 27.0964 79.8037 26.8232 79.7087 26.5928C79.6161 26.36 79.4878 26.1806 79.3239 26.0547C79.1623 25.9288 78.977 25.8658 78.768 25.8658C78.4449 25.8658 78.1931 25.9941 78.0125 26.2507C77.832 26.5049 77.7417 26.8553 77.7417 27.3019C77.7417 27.6179 77.788 27.8922 77.8807 28.125C77.9757 28.3555 78.1052 28.5337 78.2691 28.6596C78.433 28.7855 78.6183 28.8484 78.825 28.8484ZM82.2781 25.5344V26.0761C82.3826 25.9098 82.5358 25.772 82.7378 25.6627C82.9421 25.5511 83.182 25.4952 83.4576 25.4952C83.8258 25.4952 84.1251 25.5962 84.3556 25.7981C84.586 25.9977 84.7012 26.2792 84.7012 26.6427V28.5598C84.7012 28.6311 84.7119 28.6869 84.7333 28.7273C84.757 28.7653 84.8057 28.795 84.8794 28.8164C84.953 28.8354 85.0683 28.8532 85.225 28.8698V29.1406H83.5075V28.8698C83.726 28.846 83.8614 28.8164 83.9137 28.7807C83.9683 28.7451 83.9957 28.6762 83.9957 28.574V26.8387C83.9957 26.5465 83.9185 26.3243 83.764 26.1723C83.612 26.0179 83.4053 25.9407 83.144 25.9407C82.935 25.9407 82.758 25.9799 82.6131 26.0583C82.4705 26.1367 82.3648 26.2317 82.2959 26.3433V28.574C82.2959 28.6762 82.3232 28.7451 82.3779 28.7807C82.4325 28.8164 82.5691 28.846 82.7877 28.8698V29.1406H81.0701V28.8698C81.3029 28.846 81.4478 28.8152 81.5048 28.7772C81.5642 28.7391 81.5939 28.6667 81.5939 28.5598V26.2756C81.5939 26.1782 81.5797 26.1117 81.5512 26.0761C81.525 26.0404 81.4597 26.0108 81.3552 25.987L81.0701 25.9193V25.6805L82.2781 25.5344ZM85.806 30.1491L85.7027 29.921C85.8571 29.8616 85.9854 29.7809 86.0875 29.6787C86.1897 29.5766 86.2408 29.459 86.2408 29.3259C86.2408 29.1905 86.1921 29.08 86.0947 28.9945C85.9973 28.9066 85.8702 28.8567 85.7134 28.8449C85.7134 28.6738 85.7561 28.5277 85.8417 28.4066C85.9272 28.283 86.0531 28.2213 86.2194 28.2213C86.3904 28.2213 86.5235 28.289 86.6185 28.4244C86.7159 28.5574 86.7646 28.7261 86.7646 28.9304C86.7646 29.1442 86.7183 29.333 86.6256 29.497C86.533 29.6609 86.413 29.7975 86.2657 29.9068C86.1208 30.016 85.9676 30.0968 85.806 30.1491ZM90.3817 28.4351C90.3817 28.542 90.3936 28.6239 90.4174 28.6809C90.4435 28.738 90.5005 28.7795 90.5884 28.8057C90.6787 28.8318 90.8177 28.8532 91.0053 28.8698V29.1406H88.9884V28.8698C89.1785 28.8532 89.3175 28.8318 89.4054 28.8057C89.4933 28.7795 89.5491 28.738 89.5729 28.6809C89.599 28.6239 89.612 28.542 89.612 28.4351V24.7006C89.612 24.5937 89.599 24.5117 89.5729 24.4547C89.5491 24.3977 89.4933 24.3561 89.4054 24.33C89.3175 24.3039 89.1785 24.2825 88.9884 24.2659V23.995H91.0053V24.2659C90.8177 24.2825 90.6787 24.3039 90.5884 24.33C90.5005 24.3561 90.4435 24.3977 90.4174 24.4547C90.3936 24.5117 90.3817 24.5937 90.3817 24.7006V28.4351ZM92.5484 25.5344V26.0761C92.653 25.9098 92.8062 25.772 93.0081 25.6627C93.2124 25.5511 93.4524 25.4952 93.7279 25.4952C94.0962 25.4952 94.3955 25.5962 94.6259 25.7981C94.8564 25.9977 94.9716 26.2792 94.9716 26.6427V28.5598C94.9716 28.6311 94.9823 28.6869 95.0036 28.7273C95.0274 28.7653 95.0761 28.795 95.1497 28.8164C95.2234 28.8354 95.3386 28.8532 95.4954 28.8698V29.1406H93.7778V28.8698C93.9964 28.846 94.1318 28.8164 94.1841 28.7807C94.2387 28.7451 94.266 28.6762 94.266 28.574V26.8387C94.266 26.5465 94.1888 26.3243 94.0344 26.1723C93.8824 26.0179 93.6757 25.9407 93.4144 25.9407C93.2053 25.9407 93.0283 25.9799 92.8834 26.0583C92.7409 26.1367 92.6352 26.2317 92.5663 26.3433V28.574C92.5663 28.6762 92.5936 28.7451 92.6482 28.7807C92.7029 28.8164 92.8395 28.846 93.058 28.8698V29.1406H91.3404V28.8698C91.5733 28.846 91.7182 28.8152 91.7752 28.7772C91.8346 28.7391 91.8643 28.6667 91.8643 28.5598V26.2756C91.8643 26.1782 91.85 26.1117 91.8215 26.0761C91.7954 26.0404 91.73 26.0108 91.6255 25.987L91.3404 25.9193V25.6805L92.5484 25.5344ZM97.6372 29.219C97.3117 29.219 97.0171 29.1442 96.7534 28.9945C96.4897 28.8449 96.2795 28.6322 96.1227 28.3567C95.9683 28.0811 95.8911 27.7568 95.8911 27.3839C95.8911 26.9895 95.9754 26.6522 96.1441 26.3718C96.3151 26.0891 96.5384 25.873 96.814 25.7233C97.092 25.5713 97.3925 25.4952 97.7156 25.4952C98.1313 25.4952 98.4377 25.5796 98.6349 25.7482C98.8321 25.9169 98.9307 26.1153 98.9307 26.3433C98.9307 26.4669 98.8915 26.569 98.8131 26.6498C98.7347 26.7282 98.6373 26.7674 98.5209 26.7674C98.4045 26.7674 98.3071 26.7282 98.2287 26.6498C98.1527 26.5714 98.1147 26.4752 98.1147 26.3612C98.1147 26.2543 98.1491 26.1628 98.218 26.0868C98.2893 26.0084 98.3748 25.9692 98.4746 25.9692C98.5696 25.9692 98.6515 26.0084 98.7204 26.0868C98.7917 26.1628 98.8273 26.2531 98.8273 26.3576H98.6242C98.5672 26.177 98.471 26.0499 98.3356 25.9763C98.2002 25.9027 98.0161 25.8658 97.7833 25.8658C97.5695 25.8658 97.3758 25.9205 97.2024 26.0298C97.029 26.1367 96.8912 26.2934 96.7891 26.5001C96.6869 26.7068 96.6358 26.9562 96.6358 27.2484C96.6358 27.5573 96.6929 27.8269 96.8069 28.0573C96.9233 28.2854 97.086 28.4624 97.2951 28.5883C97.5041 28.7118 97.7476 28.7736 98.0256 28.7736C98.2014 28.7736 98.3736 28.7427 98.5423 28.6809C98.7133 28.6168 98.8559 28.5337 98.9699 28.4315V28.7023C98.844 28.8496 98.6658 28.9731 98.4354 29.0729C98.2049 29.1703 97.9389 29.219 97.6372 29.219ZM99.9571 29.1976C99.8692 29.1976 99.7884 29.1763 99.7148 29.1335C99.6435 29.0884 99.5853 29.029 99.5402 28.9553C99.4974 28.8793 99.476 28.7973 99.476 28.7095C99.476 28.6168 99.4974 28.5337 99.5402 28.46C99.5853 28.3864 99.6435 28.3282 99.7148 28.2854C99.7884 28.2426 99.8692 28.2213 99.9571 28.2213C100.045 28.2213 100.125 28.2426 100.196 28.2854C100.269 28.3282 100.328 28.3864 100.37 28.46C100.416 28.5337 100.438 28.6168 100.438 28.7095C100.438 28.7973 100.416 28.8793 100.37 28.9553C100.328 29.029 100.269 29.0884 100.196 29.1335C100.125 29.1763 100.045 29.1976 99.9571 29.1976Z" fill="white"/>
</svg>
