<svg width="300" height="61" viewBox="0 0 300 61" fill="none" xmlns="http://www.w3.org/2000/svg">
<mask id="mask0_6807_76709" style="mask-type:luminance" maskUnits="userSpaceOnUse" x="27" y="0" width="16" height="16">
<path d="M35.0417 0C33.547 0 32.0859 0.443226 30.8431 1.27364C29.6003 2.10405 28.6316 3.28435 28.0596 4.66528C27.4876 6.0462 27.338 7.56573 27.6296 9.03172C27.9212 10.4977 28.641 11.8443 29.6979 12.9012C30.7548 13.9581 32.1014 14.6779 33.5674 14.9695C35.0333 15.2611 36.5529 15.1114 37.9338 14.5394C39.3147 13.9674 40.495 12.9988 41.3254 11.756C42.1559 10.5132 42.5991 9.05206 42.5991 7.55736C42.5991 6.56491 42.4036 5.58218 42.0238 4.66528C41.644 3.74838 41.0873 2.91526 40.3856 2.21349C39.6838 1.51173 38.8507 0.955059 37.9338 0.575266C37.0169 0.195474 36.0342 0 35.0417 0Z" fill="white"/>
</mask>
<g mask="url(#mask0_6807_76709)">
<path d="M42.5991 0H27.4844V15.1147H42.5991V0Z" fill="white"/>
</g>
<path d="M34.4314 27.2965L28.41 21.275C28.1544 21.019 27.9804 20.6931 27.91 20.3383C27.8396 19.9835 27.8759 19.6158 28.0144 19.2816C28.1529 18.9475 28.3873 18.6618 28.688 18.4608C28.9887 18.2598 29.3423 18.1525 29.704 18.1523H40.3684C40.7301 18.1525 41.0836 18.2598 41.3844 18.4608C41.6851 18.6618 41.9195 18.9475 42.058 19.2816C42.1965 19.6158 42.2328 19.9835 42.1624 20.3383C42.092 20.6931 41.918 21.019 41.6624 21.275L35.641 27.2965C35.5616 27.3759 35.4673 27.439 35.3635 27.482C35.2598 27.525 35.1485 27.5472 35.0362 27.5472C34.9239 27.5472 34.8126 27.525 34.7089 27.482C34.6051 27.439 34.5108 27.3759 34.4314 27.2965Z" fill="white"/>
<path d="M65.0771 7.31975C63.5063 5.72893 61.2701 5.59584 59.786 7.00586C58.2542 8.45982 58.2592 10.5843 59.7998 12.2793C63.873 16.7642 63.7261 22.7232 59.442 27.0086C57.0882 29.3632 54.7357 31.7195 52.3844 34.0775C50.8036 35.6558 49.2454 37.2566 47.6132 38.7834C47.1204 39.2654 46.4575 39.5339 45.7682 39.5306C45.0789 39.5273 44.4186 39.2525 43.9305 38.7658C42.8457 37.7262 42.7628 36.1605 43.7497 34.9715C44.0285 34.635 44.3562 34.3437 44.6663 34.0298C48.3213 30.3735 51.9951 26.7336 55.6275 23.0547C57.5436 21.1136 57.5699 18.6125 55.782 16.866C54.0518 15.1759 51.567 15.25 49.6798 17.1271C45.0254 21.759 40.3421 26.3632 35.7567 31.0641C35.6566 31.1668 35.5371 31.2484 35.405 31.3041C35.2729 31.3599 35.131 31.3886 34.9876 31.3886C34.8443 31.3886 34.7024 31.3599 34.5703 31.3041C34.4382 31.2484 34.3186 31.1668 34.2186 31.0641C29.6332 26.3644 24.9499 21.7602 20.2954 17.1271C18.412 15.25 15.9235 15.1772 14.1933 16.866C12.4053 18.6125 12.4355 21.1136 14.3477 23.0547C17.9801 26.7348 21.6527 30.3735 25.309 34.0298C25.6191 34.3399 25.9468 34.635 26.2255 34.9715C27.2124 36.1605 27.1296 37.7262 26.0447 38.7658C25.5566 39.2525 24.8963 39.5273 24.207 39.5306C23.5177 39.5339 22.8549 39.2654 22.3621 38.7834C20.7298 37.2566 19.1717 35.6558 17.5909 34.0775C15.2346 31.7254 12.882 29.369 10.5333 27.0086C6.2492 22.7232 6.10356 16.763 10.1754 12.2793C11.716 10.583 11.721 8.45982 10.1892 7.00586C8.70512 5.59584 6.46767 5.72893 4.89819 7.31975C-1.63084 13.9342 -1.65093 24.9707 4.94716 31.6617C11.4059 38.2134 17.95 44.6796 24.4564 51.1848C26.5043 53.2327 31.5618 58.2625 33.8406 60.5301C34.1462 60.8318 34.5582 61.001 34.9876 61.001C35.417 61.001 35.8291 60.8318 36.1346 60.5301C38.4147 58.2625 43.471 53.2327 45.5188 51.1848C52.024 44.6796 58.5681 38.2121 65.0281 31.6617C71.6262 24.9732 71.6073 13.9379 65.0771 7.31975Z" fill="white"/>
<path d="M79.714 22.6163V31.9182C79.714 32.302 79.7989 32.5678 79.9687 32.7155C80.1385 32.8557 80.5297 32.9665 81.1425 33.0477V34H74.6312V33.0477C75.2439 32.9665 75.6352 32.8557 75.805 32.7155C75.9748 32.5678 76.0597 32.302 76.0597 31.9182V25.3515C76.0597 25.0119 76.0191 24.7794 75.9379 24.6539C75.8567 24.521 75.6573 24.4103 75.3399 24.3217L74.6312 24.1224V23.2365L79.714 22.6163ZM77.6432 20.9996C77.1043 20.9996 76.6429 20.8261 76.259 20.4791C75.8825 20.1248 75.6943 19.6818 75.6943 19.1503C75.6943 18.6188 75.8825 18.1758 76.259 17.8215C76.6429 17.4671 77.1043 17.2899 77.6432 17.2899C78.1821 17.2899 78.6398 17.4671 79.0163 17.8215C79.4002 18.1758 79.5922 18.6188 79.5922 19.1503C79.5922 19.6818 79.4002 20.1248 79.0163 20.4791C78.6398 20.8261 78.1821 20.9996 77.6432 20.9996ZM87.1368 31.6856C87.1368 31.9957 87.1737 32.2393 87.2476 32.4165C87.3214 32.5863 87.4727 32.7192 87.7016 32.8151C87.9304 32.9037 88.27 32.9812 88.7204 33.0477V34H81.5114V33.0477C82.0061 32.9812 82.3715 32.9 82.6077 32.8041C82.8513 32.7081 83.0101 32.5678 83.0839 32.3833C83.1651 32.1987 83.2057 31.944 83.2057 31.6192V20.3905C83.2057 20.0583 83.1688 19.8036 83.095 19.6265C83.0211 19.4419 82.8624 19.3016 82.6188 19.2057C82.3752 19.1097 82.0061 19.0285 81.5114 18.9621V18.0097H88.7204V18.9621C88.27 19.0285 87.9304 19.1097 87.7016 19.2057C87.4727 19.2943 87.3214 19.4235 87.2476 19.5932C87.1737 19.763 87.1368 20.0067 87.1368 20.3241V31.6856ZM97.5239 31.6192C97.5239 31.9514 97.5645 32.2098 97.6457 32.3943C97.7269 32.5789 97.8893 32.7192 98.1329 32.8151C98.3765 32.9037 98.742 32.9812 99.2292 33.0477V34H92.0203V33.0477C92.478 32.9886 92.8176 32.9148 93.0391 32.8262C93.2679 32.7302 93.4193 32.5973 93.4931 32.4275C93.5669 32.2504 93.6038 32.0031 93.6038 31.6856V20.3241C93.6038 19.9993 93.5669 19.752 93.4931 19.5822C93.4193 19.405 93.2679 19.2721 93.0391 19.1835C92.8176 19.0949 92.478 19.0211 92.0203 18.9621V18.0097H99.2292V18.9621C98.742 19.0285 98.3765 19.1097 98.1329 19.2057C97.8893 19.2943 97.7269 19.4308 97.6457 19.6154C97.5645 19.7926 97.5239 20.051 97.5239 20.3905V31.6192ZM85.1768 26.4257V25.2519H95.5528V26.4257H85.1768ZM99.9525 28.4632C99.9525 27.282 100.2 26.2485 100.694 25.3626C101.196 24.4693 101.89 23.7754 102.776 23.2808C103.662 22.7861 104.685 22.5388 105.844 22.5388C106.914 22.5388 107.826 22.7382 108.579 23.1368C109.339 23.5354 109.919 24.1002 110.317 24.8311C110.723 25.5545 110.926 26.4109 110.926 27.4001C110.926 27.5773 110.923 27.7471 110.915 27.9095C110.908 28.0719 110.893 28.2085 110.871 28.3192H102.223V27.234L107.948 27.2119L107.682 27.5219C107.689 27.426 107.693 27.3263 107.693 27.223C107.7 27.1122 107.704 26.9756 107.704 26.8132C107.704 25.8609 107.545 25.119 107.228 24.5874C106.918 24.0485 106.456 23.7791 105.844 23.7791C105.157 23.7791 104.615 24.0854 104.216 24.6982C103.825 25.3035 103.629 26.1894 103.629 27.3558C103.629 28.4115 103.81 29.3196 104.172 30.0799C104.533 30.833 105.039 31.4088 105.689 31.8074C106.346 32.2061 107.117 32.4054 108.003 32.4054C108.52 32.4054 109.014 32.3242 109.487 32.1618C109.967 31.992 110.358 31.7705 110.661 31.4974V32.4497C110.218 33.0034 109.587 33.4426 108.767 33.7675C107.948 34.0849 107.021 34.2436 105.988 34.2436C104.866 34.2436 103.847 34.0148 102.931 33.5571C102.023 33.092 101.3 32.4275 100.761 31.5638C100.222 30.7001 99.9525 29.6665 99.9525 28.4632ZM115.149 34.2436C114.152 34.2436 113.348 33.9852 112.735 33.4685C112.122 32.9443 111.816 32.2725 111.816 31.4531C111.816 30.8772 111.967 30.3642 112.27 29.9138C112.573 29.4561 113.067 29.0575 113.754 28.7179C114.44 28.3709 115.352 28.0793 116.489 27.8431L120.055 27.0901V28.1531L117.917 28.6293C116.995 28.836 116.345 29.1202 115.968 29.482C115.592 29.8437 115.404 30.3051 115.404 30.8662C115.404 31.4125 115.562 31.8333 115.88 32.1286C116.197 32.4165 116.592 32.5604 117.065 32.5604C117.471 32.5604 117.829 32.4792 118.139 32.3168C118.456 32.147 118.696 31.9219 118.859 31.6413V26.481C118.859 25.5213 118.63 24.8421 118.172 24.4435C117.714 24.0375 117.083 23.8344 116.279 23.8344C115.791 23.8344 115.337 23.9083 114.917 24.0559C114.503 24.1962 114.156 24.3918 113.876 24.6428C113.602 24.8938 113.425 25.1928 113.344 25.5398H112.657C112.657 25.0599 112.798 24.6502 113.078 24.3106C113.359 23.9636 113.695 23.7901 114.086 23.7901C114.507 23.7901 114.869 23.9415 115.171 24.2442C115.474 24.5395 115.625 24.9012 115.625 25.3294C115.625 25.7797 115.463 26.1562 115.138 26.4589C114.813 26.7616 114.407 26.9129 113.92 26.9129C113.44 26.9129 113.038 26.7726 112.713 26.4921C112.395 26.2042 112.237 25.8351 112.237 25.3847C112.237 24.8532 112.451 24.3734 112.879 23.9452C113.307 23.5096 113.909 23.1663 114.684 22.9153C115.459 22.6569 116.363 22.5278 117.397 22.5278C118.977 22.5278 120.213 22.8415 121.107 23.469C122 24.0965 122.447 25.0894 122.447 26.4478V31.4531C122.447 31.9182 122.554 32.2504 122.768 32.4497C122.982 32.649 123.24 32.7487 123.543 32.7487C123.742 32.7487 123.908 32.7265 124.041 32.6822V33.5792C123.812 33.7416 123.499 33.8819 123.1 34C122.701 34.1255 122.255 34.1883 121.76 34.1883C121.31 34.1883 120.889 34.1181 120.498 33.9779C120.114 33.8376 119.785 33.6346 119.512 33.3688C119.246 33.103 119.065 32.7819 118.969 32.4054C118.682 32.9443 118.198 33.3873 117.519 33.7342C116.847 34.0738 116.057 34.2436 115.149 34.2436ZM129.271 17.3896V31.9182C129.271 32.302 129.356 32.5678 129.526 32.7155C129.696 32.8557 130.087 32.9665 130.7 33.0477V34H124.189V33.0477C124.801 32.9665 125.193 32.8557 125.362 32.7155C125.532 32.5678 125.617 32.302 125.617 31.9182V20.1248C125.617 19.7852 125.577 19.5526 125.495 19.4271C125.414 19.2943 125.215 19.1835 124.897 19.0949L124.189 18.8845V18.0097L129.271 17.3896ZM132.287 30.5893V24.1666H130.903V23.3472L135.177 20.1801H135.897V22.8821L138.92 22.7714V24.1666L135.897 24.0559V30.2571C135.897 31.0987 136.056 31.693 136.373 32.04C136.698 32.3796 137.126 32.5494 137.658 32.5494C137.931 32.5494 138.193 32.5124 138.444 32.4386C138.695 32.3574 138.902 32.2578 139.064 32.1396V33.092C138.784 33.3873 138.333 33.653 137.713 33.8893C137.093 34.1255 136.44 34.2436 135.753 34.2436C135.133 34.2436 134.557 34.1255 134.026 33.8893C133.501 33.653 133.081 33.2691 132.763 32.7376C132.446 32.1987 132.287 31.4826 132.287 30.5893ZM144.228 17.3785L144.195 24.5764C144.49 23.9932 144.973 23.5059 145.645 23.1147C146.324 22.7234 147.148 22.5278 148.115 22.5278C149.274 22.5278 150.208 22.8415 150.916 23.469C151.632 24.0891 151.99 24.9861 151.99 26.1599V31.9182C151.99 32.1765 152.024 32.3796 152.09 32.5272C152.164 32.6675 152.301 32.7782 152.5 32.8594C152.707 32.9332 153.013 32.996 153.419 33.0477V34H147.129V33.0477C147.653 32.9738 147.986 32.8705 148.126 32.7376C148.266 32.6047 148.336 32.3537 148.336 31.9846V26.6028C148.336 25.8646 148.152 25.3072 147.783 24.9307C147.413 24.5542 146.9 24.366 146.243 24.366C145.763 24.366 145.346 24.4619 144.992 24.6539C144.645 24.8384 144.39 25.071 144.228 25.3515V31.9846C144.228 32.3537 144.298 32.6047 144.438 32.7376C144.579 32.8705 144.911 32.9738 145.435 33.0477V34H139.145V33.0477C139.758 32.9665 140.149 32.8557 140.319 32.7155C140.489 32.5678 140.574 32.302 140.574 31.9182V20.1248C140.574 19.7852 140.533 19.5526 140.452 19.4271C140.371 19.2943 140.171 19.1835 139.854 19.0949L139.145 18.8845V18.0097L144.228 17.3785ZM161.919 34.2436C160.923 34.2436 160.118 33.9852 159.505 33.4685C158.893 32.9443 158.586 32.2725 158.586 31.4531C158.586 30.8772 158.738 30.3642 159.04 29.9138C159.343 29.4561 159.838 29.0575 160.524 28.7179C161.211 28.3709 162.123 28.0793 163.259 27.8431L166.825 27.0901V28.1531L164.688 28.6293C163.765 28.836 163.115 29.1202 162.739 29.482C162.362 29.8437 162.174 30.3051 162.174 30.8662C162.174 31.4125 162.333 31.8333 162.65 32.1286C162.968 32.4165 163.363 32.5604 163.835 32.5604C164.241 32.5604 164.599 32.4792 164.909 32.3168C165.227 32.147 165.467 31.9219 165.629 31.6413V26.481C165.629 25.5213 165.4 24.8421 164.943 24.4435C164.485 24.0375 163.854 23.8344 163.049 23.8344C162.562 23.8344 162.108 23.9083 161.687 24.0559C161.274 24.1962 160.927 24.3918 160.646 24.6428C160.373 24.8938 160.196 25.1928 160.115 25.5398H159.428C159.428 25.0599 159.568 24.6502 159.849 24.3106C160.129 23.9636 160.465 23.7901 160.856 23.7901C161.277 23.7901 161.639 23.9415 161.942 24.2442C162.244 24.5395 162.396 24.9012 162.396 25.3294C162.396 25.7797 162.233 26.1562 161.908 26.4589C161.584 26.7616 161.178 26.9129 160.69 26.9129C160.21 26.9129 159.808 26.7726 159.483 26.4921C159.166 26.2042 159.007 25.8351 159.007 25.3847C159.007 24.8532 159.221 24.3734 159.649 23.9452C160.078 23.5096 160.679 23.1663 161.454 22.9153C162.23 22.6569 163.134 22.5278 164.167 22.5278C165.747 22.5278 166.984 22.8415 167.877 23.469C168.77 24.0965 169.217 25.0894 169.217 26.4478V31.4531C169.217 31.9182 169.324 32.2504 169.538 32.4497C169.752 32.649 170.011 32.7487 170.313 32.7487C170.513 32.7487 170.679 32.7265 170.812 32.6822V33.5792C170.583 33.7416 170.269 33.8819 169.87 34C169.472 34.1255 169.025 34.1883 168.53 34.1883C168.08 34.1883 167.659 34.1181 167.268 33.9779C166.884 33.8376 166.556 33.6346 166.282 33.3688C166.017 33.103 165.836 32.7819 165.74 32.4054C165.452 32.9443 164.968 33.3873 164.289 33.7342C163.617 34.0738 162.828 34.2436 161.919 34.2436ZM175.998 22.6163V24.6096C176.285 24.019 176.769 23.5244 177.448 23.1257C178.127 22.7271 178.954 22.5278 179.929 22.5278C181.088 22.5278 182.022 22.8415 182.73 23.469C183.446 24.0891 183.804 24.9861 183.804 26.1599V31.9182C183.804 32.1765 183.838 32.3796 183.904 32.5272C183.978 32.6675 184.115 32.7782 184.314 32.8594C184.521 32.9332 184.827 32.996 185.233 33.0477V34H178.943V33.0477C179.467 32.9738 179.8 32.8705 179.94 32.7376C180.08 32.6047 180.15 32.3537 180.15 31.9846V26.6028C180.15 25.8646 179.966 25.3072 179.597 24.9307C179.227 24.5542 178.714 24.366 178.057 24.366C177.577 24.366 177.16 24.4619 176.806 24.6539C176.459 24.8384 176.204 25.071 176.042 25.3515V31.9846C176.042 32.3537 176.112 32.6047 176.252 32.7376C176.393 32.8705 176.725 32.9738 177.249 33.0477V34H170.959V33.0477C171.572 32.9665 171.963 32.8557 172.133 32.7155C172.303 32.5678 172.388 32.302 172.388 31.9182V25.3515C172.388 25.0119 172.347 24.7794 172.266 24.6539C172.185 24.521 171.985 24.4103 171.668 24.3217L170.959 24.1224V23.2365L175.998 22.6163ZM185.779 28.5186C185.779 27.2709 186.012 26.2005 186.477 25.3072C186.949 24.414 187.577 23.7274 188.359 23.2475C189.149 22.7677 190.02 22.5278 190.973 22.5278C191.608 22.5278 192.198 22.6459 192.744 22.8821C193.291 23.111 193.7 23.4063 193.974 23.768V20.1248C193.974 19.7852 193.929 19.5526 193.841 19.4271C193.759 19.2943 193.568 19.1835 193.265 19.0949L192.545 18.8845V18.0097L197.628 17.4007V31.4641C197.628 31.7964 197.668 32.0289 197.75 32.1618C197.838 32.2873 198.041 32.398 198.359 32.494L199.067 32.6933V33.5792L194.029 34.144V32.1507C193.741 32.7782 193.269 33.2839 192.612 33.6678C191.954 34.0517 191.198 34.2436 190.341 34.2436C189.492 34.2436 188.721 34.0185 188.027 33.5681C187.34 33.1104 186.794 32.4534 186.388 31.597C185.982 30.7407 185.779 29.7145 185.779 28.5186ZM189.533 28.2196C189.533 29.5558 189.769 30.5893 190.242 31.3202C190.722 32.0437 191.342 32.4054 192.102 32.4054C192.538 32.4054 192.918 32.3131 193.243 32.1286C193.568 31.944 193.811 31.693 193.974 31.3756V24.8975C193.841 24.6391 193.612 24.4213 193.287 24.2442C192.97 24.067 192.597 23.9784 192.169 23.9784C191.386 23.9784 190.751 24.3438 190.264 25.0747C189.777 25.8055 189.533 26.8538 189.533 28.2196ZM205.564 21.2321C205.379 20.6342 205.198 20.1838 205.021 19.8812C204.851 19.5785 204.637 19.3644 204.379 19.2389C204.128 19.106 203.799 19.0137 203.393 18.9621V18.0097H210.957V18.9621C210.425 19.0359 210.041 19.1429 209.805 19.2832C209.569 19.4161 209.447 19.6339 209.439 19.9365C209.439 20.2392 209.517 20.6785 209.672 21.2543L212.418 30.9215H212.263L214.954 21.1768C215.116 20.6157 215.194 20.1912 215.187 19.9033C215.187 19.608 215.072 19.3976 214.843 19.2721C214.622 19.1392 214.249 19.0359 213.725 18.9621V18.0097H220.956V18.9621C220.439 19.0359 220.066 19.1392 219.838 19.2721C219.616 19.3976 219.509 19.6117 219.516 19.9144C219.524 20.2097 219.605 20.6415 219.76 21.21L222.506 30.9215H222.34L225.009 21.3207C225.179 20.7228 225.26 20.2687 225.253 19.9587C225.253 19.6486 225.134 19.4235 224.898 19.2832C224.669 19.1429 224.289 19.0359 223.758 18.9621V18.0097H228.818V18.9621C228.383 19.0211 228.036 19.1171 227.777 19.25C227.526 19.3828 227.312 19.6154 227.135 19.9476C226.958 20.2724 226.766 20.7597 226.559 21.4093L222.606 34.0111H219.616L215.774 21.066H216.504L212.496 34.0111H209.583L205.564 21.2321ZM226.718 28.4632C226.718 27.282 226.965 26.2485 227.46 25.3626C227.962 24.4693 228.656 23.7754 229.542 23.2808C230.427 22.7861 231.45 22.5388 232.609 22.5388C233.679 22.5388 234.591 22.7382 235.344 23.1368C236.104 23.5354 236.684 24.1002 237.083 24.8311C237.489 25.5545 237.692 26.4109 237.692 27.4001C237.692 27.5773 237.688 27.7471 237.681 27.9095C237.673 28.0719 237.658 28.2085 237.636 28.3192H228.988V27.234L234.713 27.2119L234.447 27.5219C234.455 27.426 234.458 27.3263 234.458 27.223C234.466 27.1122 234.469 26.9756 234.469 26.8132C234.469 25.8609 234.311 25.119 233.993 24.5874C233.683 24.0485 233.222 23.7791 232.609 23.7791C231.922 23.7791 231.38 24.0854 230.981 24.6982C230.59 25.3035 230.394 26.1894 230.394 27.3558C230.394 28.4115 230.575 29.3196 230.937 30.0799C231.299 30.833 231.804 31.4088 232.454 31.8074C233.111 32.2061 233.882 32.4054 234.768 32.4054C235.285 32.4054 235.78 32.3242 236.252 32.1618C236.732 31.992 237.123 31.7705 237.426 31.4974V32.4497C236.983 33.0034 236.352 33.4426 235.532 33.7675C234.713 34.0849 233.786 34.2436 232.753 34.2436C231.631 34.2436 230.612 34.0148 229.697 33.5571C228.789 33.092 228.065 32.4275 227.526 31.5638C226.987 30.7001 226.718 29.6665 226.718 28.4632ZM243.476 17.3896V31.9182C243.476 32.302 243.561 32.5678 243.73 32.7155C243.9 32.8557 244.291 32.9665 244.904 33.0477V34H238.393V33.0477C239.006 32.9665 239.397 32.8557 239.567 32.7155C239.736 32.5678 239.821 32.302 239.821 31.9182V20.1248C239.821 19.7852 239.781 19.5526 239.7 19.4271C239.618 19.2943 239.419 19.1835 239.102 19.0949L238.393 18.8845V18.0097L243.476 17.3896ZM250.345 17.3896V31.9182C250.345 32.302 250.43 32.5678 250.6 32.7155C250.769 32.8557 251.161 32.9665 251.773 33.0477V34H245.262V33.0477C245.875 32.9665 246.266 32.8557 246.436 32.7155C246.606 32.5678 246.691 32.302 246.691 31.9182V20.1248C246.691 19.7852 246.65 19.5526 246.569 19.4271C246.488 19.2943 246.288 19.1835 245.971 19.0949L245.262 18.8845V18.0097L250.345 17.3896ZM257.17 22.6163V24.6096C257.458 24.019 257.941 23.5244 258.62 23.1257C259.3 22.7271 260.126 22.5278 261.101 22.5278C262.26 22.5278 263.194 22.8415 263.902 23.469C264.619 24.0891 264.977 24.9861 264.977 26.1599V31.9182C264.977 32.1765 265.01 32.3796 265.076 32.5272C265.15 32.6675 265.287 32.7782 265.486 32.8594C265.693 32.9332 265.999 32.996 266.405 33.0477V34H260.115V33.0477C260.639 32.9738 260.972 32.8705 261.112 32.7376C261.252 32.6047 261.322 32.3537 261.322 31.9846V26.6028C261.322 25.8646 261.138 25.3072 260.769 24.9307C260.4 24.5542 259.886 24.366 259.229 24.366C258.75 24.366 258.332 24.4619 257.978 24.6539C257.631 24.8384 257.376 25.071 257.214 25.3515V31.9846C257.214 32.3537 257.284 32.6047 257.424 32.7376C257.565 32.8705 257.897 32.9738 258.421 33.0477V34H252.131V33.0477C252.744 32.9665 253.135 32.8557 253.305 32.7155C253.475 32.5678 253.56 32.302 253.56 31.9182V25.3515C253.56 25.0119 253.519 24.7794 253.438 24.6539C253.357 24.521 253.157 24.4103 252.84 24.3217L252.131 24.1224V23.2365L257.17 22.6163ZM266.951 28.4632C266.951 27.282 267.199 26.2485 267.693 25.3626C268.195 24.4693 268.889 23.7754 269.775 23.2808C270.661 22.7861 271.683 22.5388 272.842 22.5388C273.913 22.5388 274.825 22.7382 275.578 23.1368C276.338 23.5354 276.917 24.1002 277.316 24.8311C277.722 25.5545 277.925 26.4109 277.925 27.4001C277.925 27.5773 277.922 27.7471 277.914 27.9095C277.907 28.0719 277.892 28.2085 277.87 28.3192H269.221V27.234L274.946 27.2119L274.681 27.5219C274.688 27.426 274.692 27.3263 274.692 27.223C274.699 27.1122 274.703 26.9756 274.703 26.8132C274.703 25.8609 274.544 25.119 274.227 24.5874C273.917 24.0485 273.455 23.7791 272.842 23.7791C272.156 23.7791 271.613 24.0854 271.215 24.6982C270.823 25.3035 270.628 26.1894 270.628 27.3558C270.628 28.4115 270.809 29.3196 271.17 30.0799C271.532 30.833 272.038 31.4088 272.687 31.8074C273.344 32.2061 274.116 32.4054 275.002 32.4054C275.519 32.4054 276.013 32.3242 276.486 32.1618C276.965 31.992 277.357 31.7705 277.659 31.4974V32.4497C277.216 33.0034 276.585 33.4426 275.766 33.7675C274.946 34.0849 274.02 34.2436 272.986 34.2436C271.864 34.2436 270.845 34.0148 269.93 33.5571C269.022 33.092 268.299 32.4275 267.76 31.5638C267.221 30.7001 266.951 29.6665 266.951 28.4632ZM278.936 26.1377C278.936 25.3921 279.143 24.7499 279.557 24.2109C279.977 23.672 280.575 23.2586 281.35 22.9707C282.126 22.6754 283.056 22.5278 284.141 22.5278C285.02 22.5278 285.787 22.6053 286.444 22.7603C287.109 22.9153 287.622 23.0888 287.984 23.2808L288.05 26.171H287.153C286.954 25.418 286.603 24.8311 286.101 24.4103C285.599 23.9895 284.972 23.7791 284.219 23.7791C283.598 23.7791 283.111 23.9046 282.757 24.1556C282.41 24.3992 282.236 24.7277 282.236 25.1411C282.236 25.5472 282.395 25.8683 282.713 26.1045C283.037 26.3334 283.51 26.5364 284.13 26.7136L285.149 26.9904C286.293 27.2931 287.153 27.7323 287.729 28.3082C288.305 28.8766 288.593 29.6333 288.593 30.5783C288.593 31.3239 288.371 31.9698 287.928 32.5161C287.485 33.0624 286.865 33.4832 286.068 33.7785C285.278 34.0738 284.366 34.2215 283.333 34.2215C282.439 34.2215 281.609 34.1329 280.841 33.9557C280.073 33.7711 279.45 33.5386 278.97 33.2581L278.881 30.2461H279.778C279.911 30.7776 280.132 31.2501 280.442 31.6635C280.753 32.0769 281.14 32.4017 281.605 32.6379C282.078 32.8668 282.613 32.9812 283.211 32.9812C283.868 32.9812 284.381 32.8483 284.75 32.5826C285.119 32.3094 285.304 31.9588 285.304 31.5306C285.304 31.1319 285.16 30.8108 284.872 30.5672C284.584 30.3162 284.115 30.0984 283.466 29.9138L282.447 29.637C281.391 29.3417 280.542 28.9209 279.9 28.3746C279.258 27.8283 278.936 27.0827 278.936 26.1377ZM289.571 26.1377C289.571 25.3921 289.777 24.7499 290.191 24.2109C290.612 23.672 291.21 23.2586 291.985 22.9707C292.76 22.6754 293.69 22.5278 294.775 22.5278C295.654 22.5278 296.422 22.6053 297.079 22.7603C297.743 22.9153 298.256 23.0888 298.618 23.2808L298.684 26.171H297.787C297.588 25.418 297.237 24.8311 296.735 24.4103C296.233 23.9895 295.606 23.7791 294.853 23.7791C294.233 23.7791 293.745 23.9046 293.391 24.1556C293.044 24.3992 292.871 24.7277 292.871 25.1411C292.871 25.5472 293.029 25.8683 293.347 26.1045C293.672 26.3334 294.144 26.5364 294.764 26.7136L295.783 26.9904C296.927 27.2931 297.787 27.7323 298.363 28.3082C298.939 28.8766 299.227 29.6333 299.227 30.5783C299.227 31.3239 299.005 31.9698 298.562 32.5161C298.119 33.0624 297.499 33.4832 296.702 33.7785C295.912 34.0738 295 34.2215 293.967 34.2215C293.074 34.2215 292.243 34.1329 291.475 33.9557C290.708 33.7711 290.084 33.5386 289.604 33.2581L289.515 30.2461H290.412C290.545 30.7776 290.767 31.2501 291.077 31.6635C291.387 32.0769 291.774 32.4017 292.239 32.6379C292.712 32.8668 293.247 32.9812 293.845 32.9812C294.502 32.9812 295.015 32.8483 295.384 32.5826C295.753 32.3094 295.938 31.9588 295.938 31.5306C295.938 31.1319 295.794 30.8108 295.506 30.5672C295.218 30.3162 294.749 30.0984 294.1 29.9138L293.081 29.637C292.025 29.3417 291.176 28.9209 290.534 28.3746C289.892 27.8283 289.571 27.0827 289.571 26.1377Z" fill="white"/>
<path d="M80.2758 37.5846L80.3371 39.5911H79.947C79.8801 39.2938 79.7984 39.0504 79.7018 38.8609C79.6089 38.6714 79.4881 38.5247 79.3395 38.4206C79.1946 38.3166 79.0125 38.2441 78.7933 38.2033C78.574 38.1587 78.3046 38.1308 77.9851 38.1197L76.5638 38.0751V41.3022H78.0631C78.1895 41.3022 78.2916 41.278 78.3697 41.2297C78.4477 41.1777 78.5164 41.0718 78.5759 40.912C78.6353 40.7485 78.6985 40.5014 78.7654 40.1707H79.1332V42.9296H78.7654C78.7134 42.6064 78.6576 42.3648 78.5982 42.2051C78.5387 42.0416 78.4681 41.9338 78.3864 41.8818C78.3046 41.8261 78.1969 41.7982 78.0631 41.7982H76.5638V44.4568C76.5638 44.6351 76.5861 44.7745 76.6307 44.8748C76.679 44.9751 76.7775 45.0494 76.9261 45.0978C77.0785 45.1423 77.3126 45.1795 77.6284 45.2092V45.6328H74.3846V45.2092C74.6818 45.1832 74.8992 45.1498 75.0367 45.1089C75.1742 45.068 75.2615 45.003 75.2986 44.9138C75.3395 44.8246 75.3599 44.6965 75.3599 44.5292V38.6882C75.3599 38.521 75.3395 38.3928 75.2986 38.3036C75.2615 38.2144 75.1742 38.1494 75.0367 38.1085C74.8992 38.0676 74.6818 38.0342 74.3846 38.0082V37.5846H80.2758ZM83.152 45.7554C82.6244 45.7554 82.1488 45.6328 81.7252 45.3876C81.3053 45.1423 80.9727 44.8024 80.7275 44.3676C80.4823 43.9329 80.3597 43.4331 80.3597 42.8683C80.3597 42.2887 80.486 41.7796 80.7387 41.3412C80.9913 40.899 81.3332 40.5534 81.7642 40.3045C82.1989 40.0555 82.6913 39.9311 83.2412 39.9311C83.7725 39.9311 84.2481 40.0537 84.668 40.2989C85.0916 40.5442 85.426 40.8841 85.6713 41.3189C85.9165 41.7536 86.0391 42.2534 86.0391 42.8182C86.0391 43.3941 85.9128 43.9032 85.6601 44.3453C85.4074 44.7875 85.0637 45.133 84.629 45.382C84.1943 45.631 83.7019 45.7554 83.152 45.7554ZM83.2412 45.1758C83.7502 45.1758 84.1441 44.9751 84.4228 44.5738C84.7052 44.1725 84.8464 43.6245 84.8464 42.9296C84.8464 42.4354 84.7721 42.0081 84.6234 41.6477C84.4785 41.2836 84.2779 41.003 84.0215 40.8061C83.7688 40.6092 83.479 40.5107 83.152 40.5107C82.6467 40.5107 82.2528 40.7114 81.9704 41.1127C81.688 41.5102 81.5468 42.0583 81.5468 42.7569C81.5468 43.251 81.6193 43.6802 81.7642 44.0443C81.9128 44.4048 82.1153 44.6834 82.3717 44.8804C82.6281 45.0773 82.9179 45.1758 83.2412 45.1758ZM88.514 39.9924V43.6096C88.514 44.0815 88.631 44.4419 88.8651 44.6909C89.1029 44.9361 89.4318 45.0587 89.8516 45.0587C90.1526 45.0587 90.409 44.9974 90.6208 44.8748C90.8363 44.7485 90.9961 44.5998 91.1001 44.4289V41.1517C91.1001 40.9993 91.0778 40.8953 91.0332 40.8396C90.9924 40.7838 90.892 40.7374 90.7323 40.7002L90.2808 40.5943V40.2209L92.2037 39.9924V44.5292C92.2037 44.6779 92.226 44.7819 92.2706 44.8414C92.3152 44.8971 92.4192 44.9454 92.5827 44.9863L93.023 45.0922V45.46L91.1224 45.6941V44.8469C90.9626 45.107 90.7286 45.3244 90.4202 45.499C90.1155 45.67 89.7495 45.7554 89.3222 45.7554C88.7574 45.7554 88.2985 45.5957 87.9455 45.2761C87.5925 44.9528 87.416 44.4995 87.416 43.9162V41.1517C87.416 40.9993 87.3937 40.8953 87.3491 40.8396C87.3082 40.7838 87.2061 40.7374 87.0426 40.7002L86.5967 40.5943V40.2209L88.514 39.9924ZM95.3585 39.9924V40.8396C95.522 40.5795 95.7617 40.3639 96.0775 40.193C96.3971 40.0184 96.7724 39.9311 97.2034 39.9311C97.7793 39.9311 98.2475 40.089 98.6079 40.4048C98.9684 40.7169 99.1486 41.1572 99.1486 41.7257V44.7243C99.1486 44.8358 99.1653 44.9231 99.1987 44.9863C99.2359 45.0457 99.3121 45.0922 99.4272 45.1256C99.5424 45.1553 99.7226 45.1832 99.9679 45.2092V45.6328H97.2814V45.2092C97.6233 45.1721 97.8351 45.1256 97.9168 45.0699C98.0023 45.0141 98.045 44.9064 98.045 44.7466V42.0323C98.045 41.5753 97.9242 41.2278 97.6827 40.99C97.4449 40.7485 97.1217 40.6278 96.7129 40.6278C96.3859 40.6278 96.1091 40.6891 95.8825 40.8117C95.6595 40.9343 95.4942 41.0829 95.3864 41.2576V44.7466C95.3864 44.9064 95.4291 45.0141 95.5146 45.0699C95.6001 45.1256 95.8137 45.1721 96.1556 45.2092V45.6328H93.4691V45.2092C93.8333 45.1721 94.0599 45.1238 94.1491 45.0643C94.242 45.0049 94.2884 44.8915 94.2884 44.7243V41.1517C94.2884 40.9993 94.2661 40.8953 94.2215 40.8396C94.1807 40.7838 94.0785 40.7374 93.915 40.7002L93.4691 40.5943V40.2209L95.3585 39.9924ZM100.587 42.9129C100.587 42.3221 100.704 41.8038 100.938 41.3579C101.176 40.9083 101.495 40.559 101.897 40.3101C102.298 40.0574 102.746 39.9311 103.24 39.9311C103.552 39.9311 103.836 39.9849 104.093 40.0927C104.353 40.2004 104.566 40.3361 104.733 40.4996V38.5154C104.733 38.363 104.711 38.259 104.667 38.2033C104.626 38.1438 104.525 38.0955 104.366 38.0583L103.914 37.9524V37.5846L105.837 37.3505V44.5292C105.837 44.6779 105.859 44.7819 105.904 44.8414C105.949 44.8971 106.054 44.9454 106.222 44.9863L106.656 45.0922V45.46L104.761 45.6941V44.7856C104.609 45.0717 104.36 45.3058 104.015 45.4879C103.669 45.6663 103.29 45.7554 102.878 45.7554C102.469 45.7554 102.09 45.6421 101.74 45.4154C101.395 45.1888 101.116 44.8637 100.904 44.4401C100.693 44.0165 100.587 43.5074 100.587 42.9129ZM101.729 42.8126C101.729 43.5111 101.884 44.0611 102.192 44.4624C102.504 44.8599 102.918 45.0587 103.435 45.0587C103.728 45.0587 103.989 45.0011 104.215 44.886C104.446 44.7708 104.618 44.6054 104.733 44.3899V41.1015C104.641 40.9417 104.483 40.8043 104.26 40.6891C104.041 40.5739 103.777 40.5163 103.468 40.5163C102.963 40.5163 102.547 40.7206 102.22 41.1294C101.893 41.5381 101.729 42.0992 101.729 42.8126ZM108.919 45.7554C108.448 45.7554 108.052 45.6217 107.732 45.3541C107.416 45.0866 107.259 44.7466 107.259 44.3342C107.259 44.0258 107.331 43.7601 107.476 43.5372C107.625 43.3142 107.857 43.1247 108.173 42.9687C108.488 42.8089 108.895 42.6751 109.393 42.5674L111.221 42.1661V42.6788L109.867 42.9687C109.328 43.0876 108.944 43.238 108.713 43.4201C108.487 43.6022 108.373 43.8418 108.373 44.1391C108.373 44.4438 108.475 44.6816 108.68 44.8525C108.884 45.0234 109.144 45.1089 109.46 45.1089C109.731 45.1089 109.977 45.055 110.196 44.9473C110.419 44.8395 110.593 44.6946 110.72 44.5125V41.8372C110.72 41.3393 110.593 40.9938 110.341 40.8005C110.088 40.6073 109.763 40.5107 109.365 40.5107C109.124 40.5107 108.901 40.5423 108.697 40.6055C108.496 40.6649 108.325 40.7578 108.184 40.8841C108.043 41.0068 107.942 41.1628 107.883 41.3523H107.599C107.599 41.1591 107.652 40.9956 107.76 40.8618C107.868 40.7244 107.996 40.6556 108.145 40.6556C108.297 40.6556 108.429 40.7151 108.54 40.834C108.652 40.9529 108.708 41.0941 108.708 41.2576C108.708 41.4285 108.646 41.5697 108.524 41.6812C108.405 41.7926 108.254 41.8484 108.072 41.8484C107.894 41.8484 107.742 41.7908 107.615 41.6756C107.493 41.5604 107.431 41.4118 107.431 41.2297C107.431 40.9696 107.537 40.7429 107.749 40.5497C107.961 40.3565 108.241 40.206 108.591 40.0983C108.944 39.9868 109.328 39.9311 109.744 39.9311C110.376 39.9311 110.876 40.0723 111.244 40.3547C111.615 40.637 111.801 41.0774 111.801 41.6756V44.4512C111.801 44.7002 111.86 44.8748 111.979 44.9751C112.102 45.0755 112.247 45.1256 112.414 45.1256C112.552 45.1256 112.659 45.107 112.737 45.0699V45.46C112.644 45.5232 112.52 45.5827 112.364 45.6384C112.208 45.6941 112.031 45.722 111.834 45.722C111.649 45.722 111.481 45.6923 111.333 45.6328C111.188 45.5734 111.065 45.486 110.965 45.3709C110.868 45.2557 110.8 45.1145 110.759 44.9473C110.595 45.1628 110.35 45.3523 110.023 45.5158C109.696 45.6755 109.328 45.7554 108.919 45.7554ZM113.741 44.0778V40.6389H112.977V40.3435L114.644 39.017H114.839V40.0871L116.606 40.0537V40.6389L114.839 40.6166V43.8047C114.839 44.3063 114.934 44.65 115.123 44.8358C115.313 45.0179 115.55 45.1089 115.836 45.1089C116 45.1089 116.158 45.0866 116.31 45.042C116.463 44.9937 116.593 44.938 116.7 44.8748V45.2984C116.563 45.4173 116.357 45.5232 116.082 45.6161C115.807 45.709 115.534 45.7554 115.262 45.7554C115.01 45.7554 114.766 45.7053 114.532 45.6049C114.298 45.5046 114.107 45.3318 113.958 45.0866C113.813 44.8414 113.741 44.5051 113.741 44.0778ZM118.941 39.9924V44.7243C118.941 44.8915 118.986 45.0049 119.075 45.0643C119.168 45.1238 119.396 45.1721 119.76 45.2092V45.6328H117.024V45.2092C117.388 45.1721 117.615 45.1238 117.704 45.0643C117.797 45.0049 117.843 44.8915 117.843 44.7243V41.1517C117.843 40.9993 117.821 40.8953 117.776 40.8396C117.735 40.7838 117.633 40.7374 117.47 40.7002L117.024 40.5943V40.2209L118.941 39.9924ZM118.272 38.8219C118.072 38.8219 117.903 38.755 117.765 38.6213C117.628 38.4875 117.559 38.3222 117.559 38.1252C117.559 37.9283 117.628 37.7648 117.765 37.6348C117.903 37.501 118.072 37.4341 118.272 37.4341C118.473 37.4341 118.642 37.501 118.78 37.6348C118.917 37.7648 118.986 37.9283 118.986 38.1252C118.986 38.3222 118.917 38.4875 118.78 38.6213C118.642 38.755 118.473 38.8219 118.272 38.8219ZM123.2 45.7554C122.672 45.7554 122.196 45.6328 121.773 45.3876C121.353 45.1423 121.02 44.8024 120.775 44.3676C120.53 43.9329 120.407 43.4331 120.407 42.8683C120.407 42.2887 120.534 41.7796 120.786 41.3412C121.039 40.899 121.381 40.5534 121.812 40.3045C122.247 40.0555 122.739 39.9311 123.289 39.9311C123.82 39.9311 124.296 40.0537 124.716 40.2989C125.139 40.5442 125.474 40.8841 125.719 41.3189C125.964 41.7536 126.087 42.2534 126.087 42.8182C126.087 43.3941 125.96 43.9032 125.708 44.3453C125.455 44.7875 125.111 45.133 124.677 45.382C124.242 45.631 123.75 45.7554 123.2 45.7554ZM123.289 45.1758C123.798 45.1758 124.192 44.9751 124.47 44.5738C124.753 44.1725 124.894 43.6245 124.894 42.9296C124.894 42.4354 124.82 42.0081 124.671 41.6477C124.526 41.2836 124.325 41.003 124.069 40.8061C123.816 40.6092 123.527 40.5107 123.2 40.5107C122.694 40.5107 122.3 40.7114 122.018 41.1127C121.736 41.5102 121.594 42.0583 121.594 42.7569C121.594 43.251 121.667 43.6802 121.812 44.0443C121.96 44.4048 122.163 44.6834 122.419 44.8804C122.676 45.0773 122.966 45.1758 123.289 45.1758ZM128.69 39.9924V40.8396C128.853 40.5795 129.093 40.3639 129.409 40.193C129.728 40.0184 130.104 39.9311 130.535 39.9311C131.111 39.9311 131.579 40.089 131.939 40.4048C132.3 40.7169 132.48 41.1572 132.48 41.7257V44.7243C132.48 44.8358 132.497 44.9231 132.53 44.9863C132.567 45.0457 132.643 45.0922 132.758 45.1256C132.874 45.1553 133.054 45.1832 133.299 45.2092V45.6328H130.613V45.2092C130.954 45.1721 131.166 45.1256 131.248 45.0699C131.333 45.0141 131.376 44.9064 131.376 44.7466V42.0323C131.376 41.5753 131.255 41.2278 131.014 40.99C130.776 40.7485 130.453 40.6278 130.044 40.6278C129.717 40.6278 129.44 40.6891 129.214 40.8117C128.991 40.9343 128.825 41.0829 128.718 41.2576V44.7466C128.718 44.9064 128.76 45.0141 128.846 45.0699C128.931 45.1256 129.145 45.1721 129.487 45.2092V45.6328H126.8V45.2092C127.164 45.1721 127.391 45.1238 127.48 45.0643C127.573 45.0049 127.62 44.8915 127.62 44.7243V41.1517C127.62 40.9993 127.597 40.8953 127.553 40.8396C127.512 40.7838 127.41 40.7374 127.246 40.7002L126.8 40.5943V40.2209L128.69 39.9924ZM134.208 47.2101L134.046 46.8534C134.288 46.7605 134.488 46.6342 134.648 46.4744C134.808 46.3146 134.888 46.1307 134.888 45.9226C134.888 45.7108 134.812 45.5381 134.659 45.4043C134.507 45.2668 134.308 45.1888 134.063 45.1702C134.063 44.9027 134.13 44.6742 134.264 44.4847C134.397 44.2914 134.594 44.1948 134.854 44.1948C135.122 44.1948 135.33 44.3007 135.479 44.5125C135.631 44.7206 135.707 44.9844 135.707 45.304C135.707 45.6384 135.635 45.9338 135.49 46.1902C135.345 46.4466 135.157 46.6602 134.927 46.8311C134.7 47.0021 134.46 47.1284 134.208 47.2101ZM141.365 44.5292C141.365 44.6965 141.383 44.8246 141.42 44.9138C141.461 45.003 141.551 45.068 141.688 45.1089C141.829 45.1498 142.047 45.1832 142.34 45.2092V45.6328H139.185V45.2092C139.483 45.1832 139.7 45.1498 139.838 45.1089C139.975 45.068 140.062 45.003 140.1 44.9138C140.14 44.8246 140.161 44.6965 140.161 44.5292V38.6882C140.161 38.521 140.14 38.3928 140.1 38.3036C140.062 38.2144 139.975 38.1494 139.838 38.1085C139.7 38.0676 139.483 38.0342 139.185 38.0082V37.5846H142.34V38.0082C142.047 38.0342 141.829 38.0676 141.688 38.1085C141.551 38.1494 141.461 38.2144 141.42 38.3036C141.383 38.3928 141.365 38.521 141.365 38.6882V44.5292ZM144.754 39.9924V40.8396C144.917 40.5795 145.157 40.3639 145.473 40.193C145.792 40.0184 146.167 39.9311 146.599 39.9311C147.174 39.9311 147.643 40.089 148.003 40.4048C148.363 40.7169 148.544 41.1572 148.544 41.7257V44.7243C148.544 44.8358 148.56 44.9231 148.594 44.9863C148.631 45.0457 148.707 45.0922 148.822 45.1256C148.938 45.1553 149.118 45.1832 149.363 45.2092V45.6328H146.677V45.2092C147.018 45.1721 147.23 45.1256 147.312 45.0699C147.397 45.0141 147.44 44.9064 147.44 44.7466V42.0323C147.44 41.5753 147.319 41.2278 147.078 40.99C146.84 40.7485 146.517 40.6278 146.108 40.6278C145.781 40.6278 145.504 40.6891 145.278 40.8117C145.055 40.9343 144.889 41.0829 144.782 41.2576V44.7466C144.782 44.9064 144.824 45.0141 144.91 45.0699C144.995 45.1256 145.209 45.1721 145.551 45.2092V45.6328H142.864V45.2092C143.228 45.1721 143.455 45.1238 143.544 45.0643C143.637 45.0049 143.684 44.8915 143.684 44.7243V41.1517C143.684 40.9993 143.661 40.8953 143.617 40.8396C143.576 40.7838 143.474 40.7374 143.31 40.7002L142.864 40.5943V40.2209L144.754 39.9924ZM152.713 45.7554C152.204 45.7554 151.743 45.6384 151.331 45.4043C150.918 45.1702 150.589 44.8377 150.344 44.4066C150.103 43.9756 149.982 43.4684 149.982 42.885C149.982 42.2682 150.114 41.7406 150.378 41.3022C150.645 40.86 150.994 40.5219 151.425 40.2878C151.86 40.05 152.33 39.9311 152.836 39.9311C153.486 39.9311 153.965 40.063 154.274 40.3268C154.582 40.5906 154.736 40.9009 154.736 41.2576C154.736 41.4508 154.675 41.6106 154.552 41.7369C154.43 41.8595 154.277 41.9208 154.095 41.9208C153.913 41.9208 153.761 41.8595 153.638 41.7369C153.519 41.6143 153.46 41.4638 153.46 41.2854C153.46 41.1182 153.514 40.9752 153.621 40.8563C153.733 40.7337 153.867 40.6723 154.023 40.6723C154.171 40.6723 154.3 40.7337 154.407 40.8563C154.519 40.9752 154.574 41.1164 154.574 41.2799H154.257C154.168 40.9975 154.017 40.7987 153.805 40.6835C153.594 40.5683 153.306 40.5107 152.941 40.5107C152.607 40.5107 152.304 40.5962 152.033 40.7671C151.762 40.9343 151.546 41.1795 151.386 41.5028C151.227 41.8261 151.147 42.2162 151.147 42.6733C151.147 43.1563 151.236 43.578 151.414 43.9385C151.596 44.2952 151.851 44.572 152.178 44.7689C152.505 44.9621 152.886 45.0587 153.32 45.0587C153.595 45.0587 153.865 45.0104 154.129 44.9138C154.396 44.8135 154.619 44.6834 154.797 44.5237V44.9473C154.601 45.1776 154.322 45.3709 153.961 45.5269C153.601 45.6793 153.185 45.7554 152.713 45.7554ZM156.342 45.722C156.204 45.722 156.078 45.6885 155.963 45.6217C155.851 45.5511 155.76 45.4582 155.689 45.343C155.623 45.2241 155.589 45.0959 155.589 44.9584C155.589 44.8135 155.623 44.6834 155.689 44.5683C155.76 44.4531 155.851 44.362 155.963 44.2952C156.078 44.2283 156.204 44.1948 156.342 44.1948C156.479 44.1948 156.603 44.2283 156.715 44.2952C156.83 44.362 156.921 44.4531 156.988 44.5683C157.059 44.6834 157.094 44.8135 157.094 44.9584C157.094 45.0959 157.059 45.2241 156.988 45.343C156.921 45.4582 156.83 45.5511 156.715 45.6217C156.603 45.6885 156.479 45.722 156.342 45.722Z" fill="white"/>
</svg>
