<svg width="165" height="107" viewBox="0 0 165 107" fill="none" xmlns="http://www.w3.org/2000/svg">
<mask id="mask0_9_17318" style="mask-type:luminance" maskUnits="userSpaceOnUse" x="77" y="9" width="11" height="12">
<path d="M82.5004 9.55231C81.423 9.55231 80.3697 9.8718 79.4738 10.4704C78.578 11.069 77.8797 11.9198 77.4674 12.9152C77.0551 13.9107 76.9472 15.006 77.1574 16.0628C77.3676 17.1195 77.8864 18.0902 78.6483 18.852C79.4102 19.6139 80.3809 20.1328 81.4376 20.343C82.4944 20.5532 83.5897 20.4453 84.5851 20.033C85.5806 19.6206 86.4314 18.9224 87.03 18.0265C87.6286 17.1307 87.9481 16.0774 87.9481 15C87.9481 14.2846 87.8072 13.5762 87.5334 12.9152C87.2596 12.2543 86.8583 11.6538 86.3525 11.1479C85.8466 10.642 85.2461 10.2408 84.5851 9.96698C83.9242 9.69321 83.2158 9.55231 82.5004 9.55231Z" fill="white"/>
</mask>
<g mask="url(#mask0_9_17318)">
<path d="M87.9481 9.55231H77.0527V20.4476H87.9481V9.55231Z" fill="#07235B"/>
</g>
<path d="M104 21.3852C102.877 20.2276 101.28 20.1308 100.219 21.1568C99.1246 22.2148 99.1282 23.7607 100.229 24.9942C103.139 28.2577 103.034 32.5939 99.9733 35.7122C98.2914 37.4256 96.6105 39.1403 94.9304 40.8561C93.8009 42.0046 92.6875 43.1695 91.5212 44.2805C91.1691 44.6312 90.6955 44.8266 90.2029 44.8242C89.7104 44.8218 89.2386 44.6219 88.8898 44.2677C88.1147 43.5112 88.0555 42.3719 88.7606 41.5066C88.9598 41.2618 89.194 41.0498 89.4156 40.8214C92.0272 38.1608 94.6523 35.5122 97.2477 32.8351C98.6168 31.4226 98.6356 29.6026 97.3581 28.3318C96.1218 27.102 94.3463 27.1559 92.9979 28.5218C89.6722 31.8923 86.3258 35.2426 83.0493 38.6633C82.9779 38.7381 82.8924 38.7975 82.798 38.838C82.7037 38.8786 82.6023 38.8995 82.4998 38.8995C82.3974 38.8995 82.296 38.8786 82.2016 38.838C82.1072 38.7975 82.0218 38.7381 81.9503 38.6633C78.6739 35.2435 75.3275 31.8932 72.0018 28.5218C70.656 27.1559 68.8779 27.1029 67.6416 28.3318C66.364 29.6026 66.3856 31.4226 67.7519 32.8351C70.3474 35.5131 72.9716 38.1608 75.5841 40.8214C75.8057 41.0471 76.0399 41.2618 76.239 41.5066C76.9442 42.3719 76.885 43.5112 76.1098 44.2677C75.7611 44.6219 75.2893 44.8218 74.7967 44.8242C74.3042 44.8266 73.8306 44.6312 73.4785 44.2805C72.3122 43.1695 71.1988 42.0046 70.0693 40.8561C68.3856 39.1445 66.7046 37.4299 65.0264 35.7122C61.9653 32.5939 61.8612 28.2568 64.7707 24.9942C65.8715 23.7598 65.8751 22.2148 64.7805 21.1568C63.7201 20.1308 62.1214 20.2276 60.9999 21.3852C56.3347 26.1984 56.3204 34.2294 61.0349 39.0982C65.6499 43.8657 70.3259 48.571 74.9749 53.3046C76.4382 54.7948 80.0519 58.4549 81.6803 60.105C81.8986 60.3245 82.193 60.4476 82.4998 60.4476C82.8066 60.4476 83.1011 60.3245 83.3194 60.105C84.9486 58.4549 88.5615 54.7948 90.0247 53.3046C94.6729 48.571 99.3489 43.8648 103.965 39.0982C108.679 34.2312 108.666 26.2011 104 21.3852Z" fill="#07235B"/>
<path d="M82.5777 29.8399L78.3735 25.9943C78.1951 25.8308 78.0736 25.6226 78.0244 25.396C77.9753 25.1694 78.0006 24.9346 78.0973 24.7212C78.194 24.5078 78.3577 24.3254 78.5677 24.197C78.7776 24.0687 79.0245 24.0001 79.277 24H86.723C86.9755 24.0001 87.2224 24.0687 87.4323 24.197C87.6423 24.3254 87.806 24.5078 87.9027 24.7212C87.9994 24.9346 88.0247 25.1694 87.9756 25.396C87.9264 25.6226 87.8049 25.8308 87.6265 25.9943L83.4223 29.8399C83.3668 29.8906 83.301 29.9309 83.2286 29.9584C83.1561 29.9859 83.0784 30 83 30C82.9216 30 82.8439 29.9859 82.7715 29.9584C82.699 29.9309 82.6332 29.8906 82.5777 29.8399Z" fill="#07235B"/>
<path d="M4.73281 76.8594V83.3906C4.73281 83.651 4.79531 83.8281 4.92031 83.9219C5.05052 84.0156 5.35 84.0885 5.81875 84.1406V85H1.06875V84.1406C1.5375 84.0885 1.83437 84.0156 1.95937 83.9219C2.08437 83.8281 2.14687 83.651 2.14687 83.3906V78.9531C2.14687 78.724 2.11562 78.5651 2.05312 78.4766C1.99583 78.388 1.85781 78.3151 1.63906 78.2578L1.06875 78.1094V77.3125L4.73281 76.8594ZM3.25625 75.6484C2.86042 75.6484 2.52187 75.5208 2.24062 75.2656C1.96458 75.0052 1.82656 74.6771 1.82656 74.2812C1.82656 73.8906 1.96458 73.5677 2.24062 73.3125C2.52187 73.0573 2.86042 72.9297 3.25625 72.9297C3.65208 72.9297 3.98802 73.0573 4.26406 73.3125C4.54531 73.5677 4.68594 73.8906 4.68594 74.2812C4.68594 74.6771 4.54531 75.0052 4.26406 75.2656C3.98802 75.5208 3.65208 75.6484 3.25625 75.6484ZM10.2041 83.2031C10.2041 83.4219 10.2301 83.5911 10.2822 83.7109C10.3395 83.8307 10.4541 83.9219 10.6259 83.9844C10.7978 84.0417 11.0582 84.0938 11.4072 84.1406V85H6.14156V84.1406C6.52698 84.0938 6.81083 84.0391 6.99312 83.9766C7.17542 83.9141 7.29521 83.8203 7.3525 83.6953C7.40979 83.5703 7.43844 83.3932 7.43844 83.1641V75.5547C7.43844 75.3255 7.40979 75.1484 7.3525 75.0234C7.30042 74.8984 7.18062 74.8047 6.99312 74.7422C6.81083 74.6797 6.52698 74.625 6.14156 74.5781V73.7188H11.4072V74.5781C11.0582 74.625 10.7978 74.6797 10.6259 74.7422C10.4541 74.7995 10.3395 74.888 10.2822 75.0078C10.2301 75.1224 10.2041 75.2917 10.2041 75.5156V83.2031ZM17.5869 83.1641C17.5869 83.3984 17.6155 83.5807 17.6728 83.7109C17.7301 83.8359 17.8499 83.9297 18.0322 83.9922C18.2197 84.0495 18.5009 84.099 18.8759 84.1406V85H13.6181V84.1406C13.9723 84.099 14.2327 84.0495 14.3994 83.9922C14.5712 83.9297 14.6832 83.8385 14.7353 83.7188C14.7874 83.599 14.8134 83.4271 14.8134 83.2031V75.5156C14.8134 75.2865 14.7874 75.1146 14.7353 75C14.6832 74.8802 14.5712 74.7917 14.3994 74.7344C14.2327 74.6719 13.9723 74.6198 13.6181 74.5781V73.7188H18.8759V74.5781C18.5009 74.6198 18.2197 74.6719 18.0322 74.7344C17.8499 74.7917 17.7301 74.8854 17.6728 75.0156C17.6155 75.1406 17.5869 75.3203 17.5869 75.5547V83.1641ZM8.82906 79.7656V78.7188H16.1884V79.7656H8.82906ZM19.4566 81.0703C19.4566 80.2057 19.6362 79.4557 19.9956 78.8203C20.355 78.1797 20.8524 77.6823 21.4878 77.3281C22.1232 76.974 22.8524 76.7969 23.6753 76.7969C24.4461 76.7969 25.105 76.9401 25.6519 77.2266C26.204 77.513 26.6232 77.9219 26.9097 78.4531C27.2014 78.9792 27.3472 79.6068 27.3472 80.3359C27.3472 80.4766 27.342 80.612 27.3316 80.7422C27.3264 80.8672 27.3185 80.9688 27.3081 81.0469H20.8472V80.0781H25.2612L25.0425 80.3359C25.0477 80.2839 25.0503 80.2318 25.0503 80.1797C25.0555 80.1276 25.0581 80.0547 25.0581 79.9609C25.0581 79.3099 24.9383 78.8073 24.6987 78.4531C24.4592 78.0938 24.1154 77.9141 23.6675 77.9141C23.1779 77.9141 22.7873 78.1224 22.4956 78.5391C22.204 78.9505 22.0581 79.5625 22.0581 80.375C22.0581 81.0729 22.1831 81.6745 22.4331 82.1797C22.6883 82.6797 23.0529 83.0651 23.5269 83.3359C24.0008 83.6068 24.5607 83.7422 25.2066 83.7422C25.5555 83.7422 25.9045 83.6901 26.2534 83.5859C26.6076 83.4766 26.8967 83.3255 27.1206 83.1328V83.9922C26.7925 84.3568 26.3368 84.6484 25.7534 84.8672C25.1701 85.0807 24.5112 85.1875 23.7769 85.1875C22.9748 85.1875 22.2456 85.026 21.5894 84.7031C20.9383 84.375 20.4201 83.9036 20.0347 83.2891C19.6493 82.6745 19.4566 81.9349 19.4566 81.0703ZM30.4591 85.1875C29.7403 85.1875 29.1596 84.9974 28.7169 84.6172C28.2794 84.2318 28.0606 83.7474 28.0606 83.1641C28.0606 82.7474 28.1674 82.375 28.3809 82.0469C28.5945 81.7188 28.9434 81.4297 29.4278 81.1797C29.9122 80.9297 30.558 80.7188 31.3653 80.5469L34.17 79.9531V80.9062L32.3809 81.2969C31.7351 81.4427 31.2742 81.6302 30.9981 81.8594C30.7273 82.0833 30.5919 82.3776 30.5919 82.7422C30.5919 83.0964 30.7065 83.3698 30.9356 83.5625C31.1648 83.7552 31.4512 83.8516 31.795 83.8516C32.0919 83.8516 32.3575 83.7943 32.5919 83.6797C32.8262 83.5599 33.0059 83.4062 33.1309 83.2188V79.6953C33.1309 79.0495 32.9721 78.5911 32.6544 78.3203C32.3367 78.0495 31.907 77.9141 31.3653 77.9141C31.032 77.9141 30.7247 77.9583 30.4434 78.0469C30.1622 78.1302 29.9278 78.2526 29.7403 78.4141C29.5528 78.5755 29.42 78.7682 29.3419 78.9922H28.7247C28.7247 78.6432 28.8184 78.3438 29.0059 78.0938C29.1986 77.8438 29.4356 77.7188 29.7169 77.7188C30.0085 77.7188 30.2611 77.8255 30.4747 78.0391C30.6882 78.2474 30.795 78.5 30.795 78.7969C30.795 79.1146 30.6778 79.3828 30.4434 79.6016C30.2143 79.8151 29.92 79.9219 29.5606 79.9219C29.2065 79.9219 28.9148 79.8255 28.6856 79.6328C28.4617 79.4349 28.3497 79.1719 28.3497 78.8438C28.3497 78.4583 28.5059 78.112 28.8184 77.8047C29.1361 77.4922 29.5762 77.2448 30.1387 77.0625C30.7012 76.8802 31.3497 76.7891 32.0841 76.7891C33.2091 76.7891 34.0893 77.0156 34.7247 77.4688C35.3601 77.9219 35.6778 78.6458 35.6778 79.6406V83.0312C35.6778 83.3594 35.7533 83.5911 35.9044 83.7266C36.0606 83.862 36.2455 83.9297 36.4591 83.9297C36.6205 83.9297 36.7507 83.9141 36.8497 83.8828V84.6875C36.6778 84.8125 36.4512 84.9193 36.17 85.0078C35.894 85.0964 35.5789 85.1406 35.2247 85.1406C34.9018 85.1406 34.6023 85.0911 34.3262 84.9922C34.0554 84.8932 33.8236 84.7526 33.6309 84.5703C33.4382 84.3828 33.3054 84.1615 33.2325 83.9062C32.9929 84.2708 32.6309 84.5755 32.1466 84.8203C31.6622 85.0651 31.0997 85.1875 30.4591 85.1875ZM40.7272 73.2656V83.3906C40.7272 83.651 40.7897 83.8281 40.9147 83.9219C41.0449 84.0156 41.3444 84.0885 41.8131 84.1406V85H37.0631V84.1406C37.5319 84.0885 37.8287 84.0156 37.9537 83.9219C38.0787 83.8281 38.1412 83.651 38.1412 83.3906V75.3594C38.1412 75.1354 38.11 74.9792 38.0475 74.8906C37.9902 74.7969 37.8522 74.7214 37.6334 74.6641L37.0631 74.5156V73.7188L40.7272 73.2656ZM43.05 82.4766V78.1328H42.0187V77.3984L44.9484 75.2031H45.6047V77.0312L47.9016 76.9766V78.1328L45.6047 78.0859V82.0938C45.6047 82.7344 45.7297 83.1823 45.9797 83.4375C46.2349 83.6927 46.5708 83.8203 46.9875 83.8203C47.1854 83.8203 47.3755 83.7969 47.5578 83.75C47.7401 83.6979 47.8937 83.6354 48.0187 83.5625V84.4141C47.8 84.6276 47.4693 84.8099 47.0266 84.9609C46.5891 85.112 46.1151 85.1875 45.6047 85.1875C45.1516 85.1875 44.7297 85.099 44.3391 84.9219C43.9536 84.7448 43.6411 84.4583 43.4016 84.0625C43.1672 83.6615 43.05 83.1328 43.05 82.4766ZM51.8259 73.2656V78.2031C52.0447 77.8177 52.391 77.487 52.865 77.2109C53.339 76.9297 53.9249 76.7891 54.6228 76.7891C55.4561 76.7891 56.128 77.0182 56.6384 77.4766C57.1489 77.9349 57.4041 78.5755 57.4041 79.3984V83.3906C57.4041 83.5625 57.4301 83.6979 57.4822 83.7969C57.5343 83.8906 57.6358 83.9635 57.7869 84.0156C57.9379 84.0625 58.1697 84.1042 58.4822 84.1406V85H53.9197V84.1406C54.3155 84.0938 54.5629 84.0286 54.6619 83.9453C54.766 83.8568 54.8181 83.6849 54.8181 83.4297V79.8125C54.8181 79.3021 54.6827 78.9115 54.4119 78.6406C54.141 78.3698 53.7686 78.2344 53.2947 78.2344C52.9405 78.2344 52.6358 78.2995 52.3806 78.4297C52.1254 78.5599 51.9405 78.7188 51.8259 78.9062V83.4297C51.8259 83.6849 51.878 83.8568 51.9822 83.9453C52.0864 84.0286 52.3337 84.0938 52.7244 84.1406V85H48.1619V84.1406C48.6306 84.0885 48.9275 84.0156 49.0525 83.9219C49.1775 83.8281 49.24 83.651 49.24 83.3906V75.3594C49.24 75.1354 49.2087 74.9792 49.1462 74.8906C49.089 74.7969 48.9509 74.7214 48.7322 74.6641L48.1619 74.5156V73.7188L51.8259 73.2656ZM64.7684 85.1875C64.0497 85.1875 63.469 84.9974 63.0262 84.6172C62.5887 84.2318 62.37 83.7474 62.37 83.1641C62.37 82.7474 62.4768 82.375 62.6903 82.0469C62.9039 81.7188 63.2528 81.4297 63.7372 81.1797C64.2216 80.9297 64.8674 80.7188 65.6747 80.5469L68.4794 79.9531V80.9062L66.6903 81.2969C66.0445 81.4427 65.5835 81.6302 65.3075 81.8594C65.0367 82.0833 64.9012 82.3776 64.9012 82.7422C64.9012 83.0964 65.0158 83.3698 65.245 83.5625C65.4742 83.7552 65.7606 83.8516 66.1044 83.8516C66.4012 83.8516 66.6669 83.7943 66.9012 83.6797C67.1356 83.5599 67.3153 83.4062 67.4403 83.2188V79.6953C67.4403 79.0495 67.2815 78.5911 66.9637 78.3203C66.646 78.0495 66.2164 77.9141 65.6747 77.9141C65.3414 77.9141 65.0341 77.9583 64.7528 78.0469C64.4716 78.1302 64.2372 78.2526 64.0497 78.4141C63.8622 78.5755 63.7294 78.7682 63.6512 78.9922H63.0341C63.0341 78.6432 63.1278 78.3438 63.3153 78.0938C63.508 77.8438 63.745 77.7188 64.0262 77.7188C64.3179 77.7188 64.5705 77.8255 64.7841 78.0391C64.9976 78.2474 65.1044 78.5 65.1044 78.7969C65.1044 79.1146 64.9872 79.3828 64.7528 79.6016C64.5236 79.8151 64.2294 79.9219 63.87 79.9219C63.5158 79.9219 63.2242 79.8255 62.995 79.6328C62.771 79.4349 62.6591 79.1719 62.6591 78.8438C62.6591 78.4583 62.8153 78.112 63.1278 77.8047C63.4455 77.4922 63.8856 77.2448 64.4481 77.0625C65.0106 76.8802 65.6591 76.7891 66.3934 76.7891C67.5184 76.7891 68.3986 77.0156 69.0341 77.4688C69.6695 77.9219 69.9872 78.6458 69.9872 79.6406V83.0312C69.9872 83.3594 70.0627 83.5911 70.2137 83.7266C70.37 83.862 70.5549 83.9297 70.7684 83.9297C70.9299 83.9297 71.0601 83.9141 71.1591 83.8828V84.6875C70.9872 84.8125 70.7606 84.9193 70.4794 85.0078C70.2033 85.0964 69.8882 85.1406 69.5341 85.1406C69.2111 85.1406 68.9117 85.0911 68.6356 84.9922C68.3648 84.8932 68.133 84.7526 67.9403 84.5703C67.7476 84.3828 67.6148 84.1615 67.5419 83.9062C67.3023 84.2708 66.9403 84.5755 66.4559 84.8203C65.9716 85.0651 65.4091 85.1875 64.7684 85.1875ZM74.9897 76.8594V78.2344C75.2032 77.8385 75.5522 77.5 76.0366 77.2188C76.5261 76.9323 77.1251 76.7891 77.8334 76.7891C78.6668 76.7891 79.3386 77.0182 79.8491 77.4766C80.3595 77.9349 80.6147 78.5755 80.6147 79.3984V83.3906C80.6147 83.5625 80.6407 83.6979 80.6928 83.7969C80.7449 83.8906 80.8465 83.9635 80.9975 84.0156C81.1485 84.0625 81.3803 84.1042 81.6928 84.1406V85H77.1303V84.1406C77.5261 84.0938 77.7735 84.0286 77.8725 83.9453C77.9767 83.8568 78.0287 83.6849 78.0287 83.4297V79.8125C78.0287 79.3021 77.8933 78.9115 77.6225 78.6406C77.3517 78.3698 76.9793 78.2344 76.5053 78.2344C76.1511 78.2344 75.8465 78.2995 75.5912 78.4297C75.336 78.5599 75.1511 78.7188 75.0366 78.9062V83.4297C75.0366 83.6849 75.0886 83.8568 75.1928 83.9453C75.297 84.0286 75.5444 84.0938 75.935 84.1406V85H71.3725V84.1406C71.8412 84.0885 72.1381 84.0156 72.2631 83.9219C72.3881 83.8281 72.4506 83.651 72.4506 83.3906V78.9531C72.4506 78.724 72.4194 78.5651 72.3569 78.4766C72.2996 78.388 72.1616 78.3151 71.9428 78.2578L71.3725 78.1094V77.3125L74.9897 76.8594ZM82.1641 81.0938C82.1641 80.2083 82.3281 79.4453 82.6562 78.8047C82.9896 78.1589 83.4349 77.6615 83.9922 77.3125C84.5495 76.9635 85.1719 76.7891 85.8594 76.7891C86.2917 76.7891 86.7031 76.8672 87.0938 77.0234C87.4844 77.1745 87.7865 77.3672 88 77.6016V75.3594C88 75.1354 87.9688 74.9792 87.9062 74.8906C87.849 74.7969 87.7135 74.7214 87.5 74.6641L86.9219 74.5156V73.7188L90.5938 73.2656V83.0469C90.5938 83.2708 90.6224 83.4297 90.6797 83.5234C90.7422 83.612 90.8854 83.6849 91.1094 83.7422L91.6719 83.8984V84.6875L88.0547 85.1094V83.7266C87.8464 84.1536 87.5052 84.5052 87.0312 84.7812C86.5625 85.0521 86.0208 85.1875 85.4062 85.1875C84.7969 85.1875 84.2474 85.0234 83.7578 84.6953C83.2682 84.3672 82.8802 83.8984 82.5938 83.2891C82.3073 82.6745 82.1641 81.9427 82.1641 81.0938ZM84.8203 80.8984C84.8203 81.8099 84.987 82.513 85.3203 83.0078C85.6589 83.4974 86.1042 83.7422 86.6562 83.7422C86.9635 83.7422 87.237 83.6771 87.4766 83.5469C87.7161 83.4167 87.8906 83.2422 88 83.0234V78.6172C87.9062 78.4401 87.7422 78.2917 87.5078 78.1719C87.2786 78.0521 87.0026 77.9922 86.6797 77.9922C86.1328 77.9922 85.6849 78.2448 85.3359 78.75C84.9922 79.25 84.8203 79.9661 84.8203 80.8984ZM96.5362 76.125C96.406 75.7083 96.2784 75.3984 96.1534 75.1953C96.0336 74.987 95.88 74.8411 95.6925 74.7578C95.5102 74.6745 95.2602 74.6146 94.9425 74.5781V73.7188H100.364V74.5781C99.9633 74.6302 99.6743 74.7031 99.4972 74.7969C99.3253 74.8854 99.2394 75.0312 99.2394 75.2344C99.2446 75.4375 99.3019 75.7396 99.4112 76.1406L101.357 82.9141H101.216L103.13 76.0859C103.234 75.7005 103.284 75.4115 103.278 75.2188C103.278 75.0208 103.192 74.8776 103.021 74.7891C102.854 74.7005 102.573 74.6302 102.177 74.5781V73.7188H107.427V74.5781C107.026 74.6302 106.737 74.7031 106.56 74.7969C106.388 74.8854 106.302 75.0312 106.302 75.2344C106.302 75.4375 106.359 75.7396 106.474 76.1406L108.427 82.9141H108.278L110.192 76.0859C110.302 75.7005 110.354 75.4115 110.349 75.2188C110.344 75.0208 110.255 74.8776 110.083 74.7891C109.916 74.7005 109.638 74.6302 109.247 74.5781V73.7188H113.122V74.5781C112.799 74.6146 112.544 74.6745 112.357 74.7578C112.169 74.8411 112.015 74.987 111.896 75.1953C111.776 75.4036 111.648 75.7214 111.513 76.1484L108.724 85H106.388L103.778 76.2266H104.372L101.63 85H99.3487L96.5362 76.125ZM111.422 81.0703C111.422 80.2057 111.601 79.4557 111.961 78.8203C112.32 78.1797 112.817 77.6823 113.453 77.3281C114.088 76.974 114.817 76.7969 115.64 76.7969C116.411 76.7969 117.07 76.9401 117.617 77.2266C118.169 77.513 118.588 77.9219 118.875 78.4531C119.166 78.9792 119.312 79.6068 119.312 80.3359C119.312 80.4766 119.307 80.612 119.297 80.7422C119.291 80.8672 119.284 80.9688 119.273 81.0469H112.812V80.0781H117.226L117.007 80.3359C117.013 80.2839 117.015 80.2318 117.015 80.1797C117.021 80.1276 117.023 80.0547 117.023 79.9609C117.023 79.3099 116.903 78.8073 116.664 78.4531C116.424 78.0938 116.08 77.9141 115.632 77.9141C115.143 77.9141 114.752 78.1224 114.461 78.5391C114.169 78.9505 114.023 79.5625 114.023 80.375C114.023 81.0729 114.148 81.6745 114.398 82.1797C114.653 82.6797 115.018 83.0651 115.492 83.3359C115.966 83.6068 116.526 83.7422 117.172 83.7422C117.521 83.7422 117.869 83.6901 118.218 83.5859C118.573 83.4766 118.862 83.3255 119.086 83.1328V83.9922C118.757 84.3568 118.302 84.6484 117.718 84.8672C117.135 85.0807 116.476 85.1875 115.742 85.1875C114.94 85.1875 114.211 85.026 113.554 84.7031C112.903 84.375 112.385 83.9036 112 83.2891C111.614 82.6745 111.422 81.9349 111.422 81.0703ZM123.58 73.2656V83.3906C123.58 83.651 123.643 83.8281 123.768 83.9219C123.898 84.0156 124.198 84.0885 124.666 84.1406V85H119.916V84.1406C120.385 84.0885 120.682 84.0156 120.807 83.9219C120.932 83.8281 120.994 83.651 120.994 83.3906V75.3594C120.994 75.1354 120.963 74.9792 120.901 74.8906C120.843 74.7969 120.705 74.7214 120.487 74.6641L119.916 74.5156V73.7188L123.58 73.2656ZM128.677 73.2656V83.3906C128.677 83.651 128.739 83.8281 128.864 83.9219C128.994 84.0156 129.294 84.0885 129.762 84.1406V85H125.012V84.1406C125.481 84.0885 125.778 84.0156 125.903 83.9219C126.028 83.8281 126.091 83.651 126.091 83.3906V75.3594C126.091 75.1354 126.059 74.9792 125.997 74.8906C125.94 74.7969 125.802 74.7214 125.583 74.6641L125.012 74.5156V73.7188L128.677 73.2656ZM133.726 76.8594V78.2344C133.939 77.8385 134.288 77.5 134.773 77.2188C135.262 76.9323 135.861 76.7891 136.57 76.7891C137.403 76.7891 138.075 77.0182 138.585 77.4766C139.096 77.9349 139.351 78.5755 139.351 79.3984V83.3906C139.351 83.5625 139.377 83.6979 139.429 83.7969C139.481 83.8906 139.583 83.9635 139.734 84.0156C139.885 84.0625 140.117 84.1042 140.429 84.1406V85H135.867V84.1406C136.262 84.0938 136.51 84.0286 136.609 83.9453C136.713 83.8568 136.765 83.6849 136.765 83.4297V79.8125C136.765 79.3021 136.63 78.9115 136.359 78.6406C136.088 78.3698 135.716 78.2344 135.242 78.2344C134.887 78.2344 134.583 78.2995 134.327 78.4297C134.072 78.5599 133.887 78.7188 133.773 78.9062V83.4297C133.773 83.6849 133.825 83.8568 133.929 83.9453C134.033 84.0286 134.281 84.0938 134.671 84.1406V85H130.109V84.1406C130.577 84.0885 130.874 84.0156 130.999 83.9219C131.124 83.8281 131.187 83.651 131.187 83.3906V78.9531C131.187 78.724 131.156 78.5651 131.093 78.4766C131.036 78.388 130.898 78.3151 130.679 78.2578L130.109 78.1094V77.3125L133.726 76.8594ZM140.9 81.0703C140.9 80.2057 141.08 79.4557 141.439 78.8203C141.799 78.1797 142.296 77.6823 142.932 77.3281C143.567 76.974 144.296 76.7969 145.119 76.7969C145.89 76.7969 146.549 76.9401 147.096 77.2266C147.648 77.513 148.067 77.9219 148.353 78.4531C148.645 78.9792 148.791 79.6068 148.791 80.3359C148.791 80.4766 148.786 80.612 148.775 80.7422C148.77 80.8672 148.762 80.9688 148.752 81.0469H142.291V80.0781H146.705L146.486 80.3359C146.491 80.2839 146.494 80.2318 146.494 80.1797C146.499 80.1276 146.502 80.0547 146.502 79.9609C146.502 79.3099 146.382 78.8073 146.142 78.4531C145.903 78.0938 145.559 77.9141 145.111 77.9141C144.622 77.9141 144.231 78.1224 143.939 78.5391C143.648 78.9505 143.502 79.5625 143.502 80.375C143.502 81.0729 143.627 81.6745 143.877 82.1797C144.132 82.6797 144.497 83.0651 144.971 83.3359C145.445 83.6068 146.004 83.7422 146.65 83.7422C146.999 83.7422 147.348 83.6901 147.697 83.5859C148.051 83.4766 148.34 83.3255 148.564 83.1328V83.9922C148.236 84.3568 147.781 84.6484 147.197 84.8672C146.614 85.0807 145.955 85.1875 145.221 85.1875C144.419 85.1875 143.689 85.026 143.033 84.7031C142.382 84.375 141.864 83.9036 141.478 83.2891C141.093 82.6745 140.9 81.9349 140.9 81.0703ZM149.606 79.3516C149.606 78.8307 149.752 78.3802 150.043 78C150.34 77.6146 150.767 77.3177 151.325 77.1094C151.882 76.8958 152.551 76.7891 153.332 76.7891C153.984 76.7891 154.554 76.849 155.043 76.9688C155.538 77.0833 155.929 77.2161 156.215 77.3672L156.262 79.3906H155.45C155.319 78.9271 155.08 78.5651 154.731 78.3047C154.382 78.0443 153.939 77.9141 153.403 77.9141C152.965 77.9141 152.622 77.9948 152.372 78.1562C152.122 78.3125 151.997 78.5339 151.997 78.8203C151.997 79.0964 152.109 79.3125 152.332 79.4688C152.562 79.6198 152.898 79.7526 153.34 79.8672L154.106 80.0469C154.944 80.25 155.572 80.5521 155.989 80.9531C156.411 81.349 156.622 81.8854 156.622 82.5625C156.622 83.0885 156.465 83.5469 156.153 83.9375C155.84 84.3281 155.4 84.6328 154.832 84.8516C154.27 85.0651 153.606 85.1719 152.84 85.1719C152.174 85.1719 151.559 85.1016 150.997 84.9609C150.434 84.8203 149.971 84.6484 149.606 84.4453L149.559 82.375H150.364C150.452 82.6927 150.596 82.9792 150.793 83.2344C150.991 83.4844 151.252 83.6823 151.575 83.8281C151.898 83.974 152.283 84.0469 152.731 84.0469C153.21 84.0469 153.58 83.9557 153.84 83.7734C154.101 83.5911 154.231 83.3568 154.231 83.0703C154.231 82.8047 154.132 82.5938 153.934 82.4375C153.736 82.276 153.403 82.1328 152.934 82.0078L152.168 81.8281C151.403 81.6354 150.783 81.3464 150.309 80.9609C149.84 80.5755 149.606 80.0391 149.606 79.3516ZM157.374 79.3516C157.374 78.8307 157.52 78.3802 157.812 78C158.108 77.6146 158.536 77.3177 159.093 77.1094C159.65 76.8958 160.319 76.7891 161.101 76.7891C161.752 76.7891 162.322 76.849 162.812 76.9688C163.306 77.0833 163.697 77.2161 163.983 77.3672L164.03 79.3906H163.218C163.088 78.9271 162.848 78.5651 162.499 78.3047C162.15 78.0443 161.707 77.9141 161.171 77.9141C160.733 77.9141 160.39 77.9948 160.14 78.1562C159.89 78.3125 159.765 78.5339 159.765 78.8203C159.765 79.0964 159.877 79.3125 160.101 79.4688C160.33 79.6198 160.666 79.7526 161.108 79.8672L161.874 80.0469C162.713 80.25 163.34 80.5521 163.757 80.9531C164.179 81.349 164.39 81.8854 164.39 82.5625C164.39 83.0885 164.233 83.5469 163.921 83.9375C163.608 84.3281 163.168 84.6328 162.601 84.8516C162.038 85.0651 161.374 85.1719 160.608 85.1719C159.942 85.1719 159.327 85.1016 158.765 84.9609C158.202 84.8203 157.739 84.6484 157.374 84.4453L157.327 82.375H158.132C158.22 82.6927 158.364 82.9792 158.562 83.2344C158.759 83.4844 159.02 83.6823 159.343 83.8281C159.666 83.974 160.051 84.0469 160.499 84.0469C160.978 84.0469 161.348 83.9557 161.608 83.7734C161.869 83.5911 161.999 83.3568 161.999 83.0703C161.999 82.8047 161.9 82.5938 161.702 82.4375C161.504 82.276 161.171 82.1328 160.702 82.0078L159.937 81.8281C159.171 81.6354 158.551 81.3464 158.077 80.9609C157.608 80.5755 157.374 80.0391 157.374 79.3516Z" fill="#07235B"/>
<path d="M35.8393 93.1289L35.9076 95.7402H35.2855C35.199 95.3711 35.0987 95.0703 34.9848 94.8379C34.8754 94.6055 34.7341 94.4277 34.5609 94.3047C34.3923 94.1771 34.1758 94.0882 33.9115 94.0381C33.6472 93.988 33.3168 93.9561 32.9203 93.9424L31.3754 93.8877V97.6611H32.8998C33.0593 97.6611 33.1869 97.6315 33.2826 97.5723C33.3783 97.5085 33.4604 97.3809 33.5287 97.1895C33.6016 96.9935 33.6768 96.6973 33.7543 96.3008H34.3422V99.7871H33.7543C33.6905 99.3952 33.6221 99.1035 33.5492 98.9121C33.4809 98.7161 33.3965 98.5863 33.2963 98.5225C33.196 98.4587 33.0639 98.4268 32.8998 98.4268H31.3754V101.394C31.3754 101.612 31.4027 101.785 31.4574 101.913C31.5167 102.036 31.6352 102.127 31.8129 102.187C31.9906 102.246 32.2618 102.296 32.6264 102.337V103H28.1625V102.337C28.5134 102.3 28.7686 102.257 28.9281 102.207C29.0922 102.152 29.197 102.07 29.2426 101.961C29.2927 101.847 29.3178 101.69 29.3178 101.489V94.6396C29.3178 94.4346 29.2927 94.2773 29.2426 94.168C29.197 94.0586 29.0922 93.9788 28.9281 93.9287C28.7686 93.874 28.5134 93.8285 28.1625 93.792V93.1289H35.8393ZM39.5036 103.157C38.7881 103.157 38.1501 103.007 37.5895 102.706C37.0335 102.401 36.596 101.979 36.277 101.441C35.9626 100.899 35.8053 100.272 35.8053 99.5615C35.8053 98.8369 35.9694 98.1989 36.2975 97.6475C36.6257 97.096 37.0746 96.6654 37.6442 96.3555C38.2184 96.0456 38.8724 95.8906 39.6061 95.8906C40.3262 95.8906 40.9642 96.0433 41.5202 96.3486C42.0762 96.6494 42.5114 97.071 42.8259 97.6133C43.1449 98.151 43.3044 98.7754 43.3044 99.4863C43.3044 100.206 43.1403 100.844 42.8122 101.4C42.4841 101.952 42.0329 102.382 41.4587 102.692C40.889 103.002 40.2373 103.157 39.5036 103.157ZM39.6061 102.282C40.1439 102.282 40.5609 102.048 40.8571 101.578C41.1533 101.104 41.3014 100.45 41.3014 99.6162C41.3014 99.0329 41.224 98.5293 41.069 98.1055C40.9141 97.6771 40.7022 97.349 40.4333 97.1211C40.1644 96.8887 39.8545 96.7725 39.5036 96.7725C38.9658 96.7725 38.5488 97.0072 38.2526 97.4766C37.9609 97.946 37.8151 98.5977 37.8151 99.4316C37.8151 100.015 37.8903 100.521 38.0407 100.949C38.1956 101.373 38.4076 101.701 38.6764 101.934C38.9453 102.166 39.2552 102.282 39.6061 102.282ZM46.7705 95.959V100.498C46.7705 101.004 46.8958 101.389 47.1464 101.653C47.3971 101.918 47.748 102.05 48.1992 102.05C48.5136 102.05 48.7848 101.986 49.0127 101.858C49.2405 101.731 49.4091 101.576 49.5185 101.394V97.627C49.5185 97.4355 49.4912 97.3034 49.4365 97.2305C49.3864 97.153 49.2656 97.0915 49.0742 97.0459L48.5546 96.9092V96.3076L51.4326 95.959V101.428C51.4326 101.619 51.4599 101.754 51.5146 101.831C51.5693 101.904 51.6946 101.968 51.8906 102.022L52.4033 102.152V102.754L49.5527 103.089V101.954C49.3658 102.291 49.0719 102.576 48.6709 102.809C48.2744 103.041 47.789 103.157 47.2148 103.157C46.513 103.157 45.9456 102.957 45.5127 102.556C45.0797 102.155 44.8632 101.592 44.8632 100.867V97.627C44.8632 97.4355 44.8359 97.3034 44.7812 97.2305C44.7311 97.153 44.6103 97.0915 44.4189 97.0459L43.8994 96.9092V96.3076L46.7705 95.959ZM55.7737 95.959V97.0938C55.9651 96.7565 56.2659 96.4717 56.676 96.2393C57.0907 96.0068 57.5898 95.8906 58.1731 95.8906C58.8931 95.8906 59.4742 96.0889 59.9162 96.4854C60.3629 96.8773 60.5862 97.4287 60.5862 98.1396V101.701C60.5862 101.847 60.609 101.961 60.6545 102.043C60.7001 102.125 60.7912 102.187 60.928 102.228C61.0647 102.269 61.2743 102.305 61.5569 102.337V103H57.8313V102.337C58.205 102.296 58.4397 102.239 58.5354 102.166C58.6311 102.093 58.6789 101.952 58.6789 101.742V98.5088C58.6789 98.0166 58.5491 97.6429 58.2893 97.3877C58.0295 97.1279 57.6741 96.998 57.2229 96.998C56.8811 96.998 56.5871 97.0618 56.3411 97.1895C56.0995 97.3171 55.9241 97.472 55.8147 97.6543V101.742C55.8147 101.952 55.8625 102.093 55.9582 102.166C56.0539 102.239 56.2886 102.296 56.6623 102.337V103H52.9368V102.337C53.3606 102.291 53.6272 102.23 53.7366 102.152C53.8505 102.07 53.9075 101.92 53.9075 101.701V97.627C53.9075 97.4355 53.8801 97.3034 53.8254 97.2305C53.7753 97.153 53.6523 97.0915 53.4563 97.0459L52.9368 96.9092V96.3076L55.7737 95.959ZM62.2271 99.6162C62.2271 98.8597 62.3706 98.2035 62.6577 97.6475C62.9494 97.0869 63.3413 96.654 63.8335 96.3486C64.3257 96.0433 64.8726 95.8906 65.4741 95.8906C65.8524 95.8906 66.2079 95.9567 66.5405 96.0889C66.8732 96.221 67.1376 96.3896 67.3335 96.5947V94.4551C67.3335 94.2591 67.3062 94.1247 67.2515 94.0518C67.2014 93.9743 67.0783 93.9105 66.8823 93.8604L66.3628 93.7305V93.1289L69.2407 92.7734V101.428C69.2407 101.619 69.2681 101.754 69.3228 101.831C69.3775 101.904 69.5051 101.968 69.7056 102.022L70.2114 102.152V102.754L67.3677 103.089V101.913C67.1854 102.278 66.8846 102.576 66.4654 102.809C66.0506 103.041 65.5812 103.157 65.0571 103.157C64.5376 103.157 64.0637 103.016 63.6353 102.733C63.2069 102.451 62.8651 102.045 62.6099 101.517C62.3547 100.983 62.2271 100.35 62.2271 99.6162ZM64.2027 99.459C64.2027 100.279 64.3644 100.917 64.688 101.373C65.0161 101.824 65.4514 102.05 65.9937 102.05C66.299 102.05 66.5679 101.988 66.8003 101.865C67.0373 101.742 67.215 101.571 67.3335 101.353V97.4219C67.2378 97.2533 67.0737 97.1097 66.8413 96.9912C66.6135 96.8727 66.34 96.8135 66.021 96.8135C65.4878 96.8135 65.0503 97.0459 64.7085 97.5107C64.3713 97.971 64.2027 98.6204 64.2027 99.459ZM72.9461 103.157C72.3354 103.157 71.8364 102.991 71.449 102.658C71.0617 102.326 70.868 101.906 70.868 101.4C70.868 101.031 70.9591 100.705 71.1414 100.423C71.3283 100.14 71.6268 99.8942 72.0369 99.6846C72.4471 99.4749 72.9871 99.2995 73.657 99.1582L76.0291 98.6455V99.4043L74.4295 99.7529C73.8234 99.8851 73.3927 100.056 73.1375 100.266C72.8823 100.475 72.7547 100.746 72.7547 101.079C72.7547 101.416 72.8641 101.678 73.0828 101.865C73.3061 102.048 73.5841 102.139 73.9168 102.139C74.2039 102.139 74.4637 102.082 74.6961 101.968C74.9285 101.849 75.1085 101.697 75.2361 101.51V98.3516C75.2361 97.7682 75.0903 97.3581 74.7986 97.1211C74.507 96.8841 74.1219 96.7656 73.6434 96.7656C73.3471 96.7656 73.076 96.8044 72.8299 96.8818C72.5838 96.9593 72.3764 97.071 72.2078 97.2168C72.0392 97.3581 71.9207 97.5335 71.8523 97.7432H71.3875C71.3875 97.4652 71.4627 97.2282 71.6131 97.0322C71.768 96.8317 71.9572 96.7314 72.1805 96.7314C72.4083 96.7314 72.6043 96.8158 72.7684 96.9844C72.937 97.153 73.0213 97.3581 73.0213 97.5996C73.0213 97.8503 72.9301 98.0599 72.7478 98.2285C72.5701 98.3971 72.34 98.4814 72.0574 98.4814C71.784 98.4814 71.5561 98.4017 71.3738 98.2422C71.1961 98.0827 71.1072 97.8708 71.1072 97.6064C71.1072 97.2783 71.2417 96.9867 71.5105 96.7314C71.7794 96.4717 72.1486 96.2666 72.618 96.1162C73.0874 95.9658 73.6183 95.8906 74.2107 95.8906C75.1085 95.8906 75.8149 96.0798 76.3299 96.458C76.8494 96.8317 77.1092 97.4287 77.1092 98.249V101.387C77.1092 101.678 77.1798 101.886 77.3211 102.009C77.4624 102.127 77.6287 102.187 77.8201 102.187C77.9751 102.187 78.0958 102.168 78.1824 102.132V102.754C78.0457 102.85 77.8657 102.934 77.6424 103.007C77.4191 103.08 77.1661 103.116 76.8836 103.116C76.6238 103.116 76.3846 103.075 76.1658 102.993C75.9516 102.911 75.7693 102.795 75.6189 102.645C75.4686 102.49 75.3637 102.305 75.3045 102.091C75.0994 102.387 74.7895 102.64 74.3748 102.85C73.9601 103.055 73.4839 103.157 72.9461 103.157ZM79.379 100.888V96.9502H78.463V96.4102L80.8214 94.6055H81.2657V96.0957L83.337 96.0479V96.9502L81.2657 96.916V100.566C81.2657 101.141 81.3796 101.539 81.6075 101.763C81.8399 101.986 82.1407 102.098 82.5098 102.098C82.6921 102.098 82.8653 102.075 83.0294 102.029C83.1934 101.984 83.3324 101.927 83.4464 101.858V102.521C83.2686 102.699 83.002 102.85 82.6466 102.973C82.2956 103.096 81.9106 103.157 81.4913 103.157C81.113 103.157 80.7621 103.084 80.4386 102.938C80.1195 102.788 79.8621 102.547 79.6661 102.214C79.4747 101.881 79.379 101.439 79.379 100.888ZM86.6869 95.959V101.701C86.6869 101.92 86.7416 102.07 86.8509 102.152C86.9649 102.23 87.2315 102.291 87.6507 102.337V103H83.8089V102.337C84.2328 102.291 84.4994 102.23 84.6087 102.152C84.7227 102.07 84.7796 101.92 84.7796 101.701V97.627C84.7796 97.4355 84.7523 97.3034 84.6976 97.2305C84.6475 97.153 84.5244 97.0915 84.3285 97.0459L83.8089 96.9092V96.3076L86.6869 95.959ZM85.5726 94.749C85.2673 94.749 85.0052 94.6488 84.7865 94.4482C84.5723 94.2477 84.4652 93.9948 84.4652 93.6895C84.4652 93.3887 84.5723 93.1403 84.7865 92.9443C85.0052 92.7438 85.2673 92.6436 85.5726 92.6436C85.878 92.6436 86.1377 92.7438 86.3519 92.9443C86.5707 93.1403 86.68 93.3887 86.68 93.6895C86.68 93.9948 86.5707 94.2477 86.3519 94.4482C86.1377 94.6488 85.878 94.749 85.5726 94.749ZM92.0534 103.157C91.3379 103.157 90.6998 103.007 90.1393 102.706C89.5833 102.401 89.1458 101.979 88.8268 101.441C88.5123 100.899 88.3551 100.272 88.3551 99.5615C88.3551 98.8369 88.5192 98.1989 88.8473 97.6475C89.1754 97.096 89.6243 96.6654 90.194 96.3555C90.7682 96.0456 91.4222 95.8906 92.1559 95.8906C92.8759 95.8906 93.514 96.0433 94.07 96.3486C94.6259 96.6494 95.0612 97.071 95.3756 97.6133C95.6946 98.151 95.8541 98.7754 95.8541 99.4863C95.8541 100.206 95.6901 100.844 95.3619 101.4C95.0338 101.952 94.5827 102.382 94.0084 102.692C93.4388 103.002 92.7871 103.157 92.0534 103.157ZM92.1559 102.282C92.6937 102.282 93.1106 102.048 93.4069 101.578C93.7031 101.104 93.8512 100.45 93.8512 99.6162C93.8512 99.0329 93.7737 98.5293 93.6188 98.1055C93.4638 97.6771 93.2519 97.349 92.983 97.1211C92.7142 96.8887 92.4043 96.7725 92.0534 96.7725C91.5156 96.7725 91.0986 97.0072 90.8024 97.4766C90.5107 97.946 90.3649 98.5977 90.3649 99.4316C90.3649 100.015 90.4401 100.521 90.5905 100.949C90.7454 101.373 90.9573 101.701 91.2262 101.934C91.4951 102.166 91.805 102.282 92.1559 102.282ZM99.4843 95.959V97.0938C99.6757 96.7565 99.9765 96.4717 100.387 96.2393C100.801 96.0068 101.3 95.8906 101.884 95.8906C102.604 95.8906 103.185 96.0889 103.627 96.4854C104.073 96.8773 104.297 97.4287 104.297 98.1396V101.701C104.297 101.847 104.32 101.961 104.365 102.043C104.411 102.125 104.502 102.187 104.639 102.228C104.775 102.269 104.985 102.305 105.268 102.337V103H101.542V102.337C101.916 102.296 102.15 102.239 102.246 102.166C102.342 102.093 102.39 101.952 102.39 101.742V98.5088C102.39 98.0166 102.26 97.6429 102 97.3877C101.74 97.1279 101.385 96.998 100.934 96.998C100.592 96.998 100.298 97.0618 100.052 97.1895C99.8101 97.3171 99.6347 97.472 99.5253 97.6543V101.742C99.5253 101.952 99.5732 102.093 99.6689 102.166C99.7646 102.239 99.9993 102.296 100.373 102.337V103H96.6474V102.337C97.0712 102.291 97.3378 102.23 97.4472 102.152C97.5611 102.07 97.6181 101.92 97.6181 101.701V97.627C97.6181 97.4355 97.5907 97.3034 97.5361 97.2305C97.4859 97.153 97.3629 97.0915 97.1669 97.0459L96.6474 96.9092V96.3076L99.4843 95.959ZM106.143 105.051L105.986 104.463C106.327 104.399 106.621 104.253 106.867 104.025C107.118 103.798 107.243 103.531 107.243 103.226C107.243 102.957 107.139 102.738 106.929 102.569C106.724 102.401 106.455 102.31 106.122 102.296C106.122 102.036 106.168 101.797 106.259 101.578C106.355 101.359 106.489 101.182 106.662 101.045C106.84 100.908 107.054 100.84 107.305 100.84C107.669 100.84 107.968 100.99 108.2 101.291C108.433 101.587 108.549 101.97 108.549 102.439C108.549 102.795 108.481 103.121 108.344 103.417C108.207 103.713 108.025 103.975 107.797 104.203C107.569 104.431 107.312 104.616 107.025 104.757C106.737 104.903 106.444 105.001 106.143 105.051ZM115.885 101.489C115.885 101.69 115.907 101.847 115.953 101.961C116.003 102.07 116.11 102.152 116.274 102.207C116.443 102.257 116.7 102.3 117.047 102.337V103H112.672V102.337C113.023 102.3 113.278 102.257 113.437 102.207C113.601 102.152 113.706 102.07 113.752 101.961C113.802 101.847 113.827 101.69 113.827 101.489V94.6396C113.827 94.4346 113.802 94.2773 113.752 94.168C113.706 94.0586 113.601 93.9788 113.437 93.9287C113.278 93.874 113.023 93.8285 112.672 93.792V93.1289H117.047V93.792C116.7 93.8285 116.443 93.874 116.274 93.9287C116.11 93.9788 116.003 94.0586 115.953 94.168C115.907 94.2773 115.885 94.4346 115.885 94.6396V101.489ZM120.485 95.959V97.0938C120.677 96.7565 120.978 96.4717 121.388 96.2393C121.802 96.0068 122.301 95.8906 122.885 95.8906C123.605 95.8906 124.186 96.0889 124.628 96.4854C125.075 96.8773 125.298 97.4287 125.298 98.1396V101.701C125.298 101.847 125.321 101.961 125.366 102.043C125.412 102.125 125.503 102.187 125.64 102.228C125.776 102.269 125.986 102.305 126.269 102.337V103H122.543V102.337C122.917 102.296 123.151 102.239 123.247 102.166C123.343 102.093 123.391 101.952 123.391 101.742V98.5088C123.391 98.0166 123.261 97.6429 123.001 97.3877C122.741 97.1279 122.386 96.998 121.935 96.998C121.593 96.998 121.299 97.0618 121.053 97.1895C120.811 97.3171 120.636 97.472 120.526 97.6543V101.742C120.526 101.952 120.574 102.093 120.67 102.166C120.766 102.239 121 102.296 121.374 102.337V103H117.648V102.337C118.072 102.291 118.339 102.23 118.448 102.152C118.562 102.07 118.619 101.92 118.619 101.701V97.627C118.619 97.4355 118.592 97.3034 118.537 97.2305C118.487 97.153 118.364 97.0915 118.168 97.0459L117.648 96.9092V96.3076L120.485 95.959ZM130.528 103.157C129.862 103.157 129.258 103.014 128.716 102.727C128.174 102.439 127.741 102.029 127.417 101.496C127.098 100.958 126.939 100.323 126.939 99.5889C126.939 98.8141 127.112 98.151 127.458 97.5996C127.805 97.0482 128.26 96.6266 128.826 96.335C129.391 96.0387 130.008 95.8906 130.678 95.8906C131.535 95.8906 132.175 96.0684 132.599 96.4238C133.027 96.7793 133.242 97.2031 133.242 97.6953C133.242 97.9961 133.148 98.2376 132.961 98.4199C132.774 98.6022 132.547 98.6934 132.278 98.6934C132.004 98.6934 131.776 98.6045 131.594 98.4268C131.412 98.249 131.321 98.028 131.321 97.7637C131.321 97.5085 131.403 97.292 131.567 97.1143C131.735 96.932 131.94 96.8408 132.182 96.8408C132.41 96.8408 132.606 96.9274 132.77 97.1006C132.938 97.2738 133.023 97.4788 133.023 97.7158H132.469C132.355 97.3831 132.175 97.1439 131.929 96.998C131.683 96.8477 131.357 96.7725 130.951 96.7725C130.564 96.7725 130.218 96.8704 129.912 97.0664C129.612 97.2624 129.372 97.5449 129.195 97.9141C129.017 98.2832 128.928 98.7275 128.928 99.2471C128.928 99.8304 129.037 100.332 129.256 100.751C129.479 101.17 129.787 101.492 130.179 101.715C130.571 101.938 131.02 102.05 131.526 102.05C131.845 102.05 132.164 102 132.483 101.899C132.802 101.795 133.064 101.653 133.269 101.476V102.132C133.005 102.433 132.633 102.679 132.155 102.87C131.676 103.062 131.134 103.157 130.528 103.157ZM135.293 103.137C135.083 103.137 134.889 103.087 134.712 102.986C134.538 102.882 134.399 102.743 134.295 102.569C134.19 102.392 134.137 102.198 134.137 101.988C134.137 101.774 134.19 101.58 134.295 101.407C134.399 101.234 134.538 101.097 134.712 100.997C134.889 100.892 135.083 100.84 135.293 100.84C135.502 100.84 135.694 100.892 135.867 100.997C136.045 101.097 136.184 101.234 136.284 101.407C136.389 101.58 136.441 101.774 136.441 101.988C136.441 102.198 136.389 102.392 136.284 102.569C136.184 102.743 136.045 102.882 135.867 102.986C135.694 103.087 135.502 103.137 135.293 103.137Z" fill="#07235B"/>
</svg>
