<svg xmlns="http://www.w3.org/2000/svg" width="45" height="49" viewBox="0 0 45 49" fill="none">
<path fill-rule="evenodd" clip-rule="evenodd" d="M33.75 24.3767C33.75 25.3669 32.9945 26.1697 32.0625 26.1697H17.1272L21.9821 30.8538C22.6539 31.5401 22.6749 32.6752 22.0289 33.389C21.3829 34.1028 20.3147 34.125 19.6429 33.4387L11.7679 25.6691C11.437 25.3311 11.25 24.8644 11.25 24.3767C11.25 23.889 11.437 23.4223 11.7679 23.0843L19.6429 15.3147C20.3147 14.6284 21.3829 14.6507 22.0289 15.3645C22.6749 16.0782 22.6539 17.2133 21.9821 17.8996L17.1272 22.5837L32.0625 22.5837C32.9945 22.5837 33.75 23.3865 33.75 24.3767Z" fill="currentColor"/>
</svg>