<svg width="62" height="68" viewBox="0 0 62 68" fill="none" xmlns="http://www.w3.org/2000/svg">
    <g id="ic:round-plus">
        <rect x="0.726562" y="0.65332" width="60.3659" height="67.1384" rx="30.183" fill="#0D99FF"/>
        <path id="Vector" d="M46.0029 37.0142H33.4267V51.0014C33.4267 51.7433 33.1617 52.4548 32.69 52.9795C32.2183 53.5041 31.5785 53.7988 30.9114 53.7988C30.2443 53.7988 29.6046 53.5041 29.1329 52.9795C28.6612 52.4548 28.3962 51.7433 28.3962 51.0014V37.0142H15.8199C15.1528 37.0142 14.5131 36.7195 14.0414 36.1949C13.5697 35.6703 13.3047 34.9587 13.3047 34.2168C13.3047 33.4749 13.5697 32.7633 14.0414 32.2387C14.5131 31.7141 15.1528 31.4194 15.8199 31.4194H28.3962V17.4322C28.3962 16.6903 28.6612 15.9787 29.1329 15.4541C29.6046 14.9295 30.2443 14.6348 30.9114 14.6348C31.5785 14.6348 32.2183 14.9295 32.69 15.4541C33.1617 15.9787 33.4267 16.6903 33.4267 17.4322V31.4194H46.0029C46.67 31.4194 47.3098 31.7141 47.7815 32.2387C48.2532 32.7633 48.5182 33.4749 48.5182 34.2168C48.5182 34.9587 48.2532 35.6703 47.7815 36.1949C47.3098 36.7195 46.67 37.0142 46.0029 37.0142Z" fill="white"/>
    </g>
</svg>
