<svg xmlns="http://www.w3.org/2000/svg" width="30" height="30" viewBox="0 0 30 30" fill="none">
  <path d="M15 30C23.2843 30 30 23.2843 30 15C30 6.71573 23.2843 0 15 0C6.71573 0 0 6.71573 0 15C0 23.2843 6.71573 30 15 30Z" fill="#EEBD60"/>
  <path d="M15.0104 17.5005C11.9913 17.5005 9.98792 17.1489 7.51042 16.6672C6.94458 16.558 5.84375 16.6672 5.84375 18.3339C5.84375 21.6672 9.67292 25.8339 15.0104 25.8339C20.3471 25.8339 24.1771 21.6672 24.1771 18.3339C24.1771 16.6672 23.0763 16.5572 22.5104 16.6672C20.0329 17.1489 18.0296 17.5005 15.0104 17.5005Z" fill="#664500"/>
  <path d="M7.5 18.3281C7.5 18.3281 10 19.1615 15 19.1615C20 19.1615 22.5 18.3281 22.5 18.3281C22.5 18.3281 20.8333 21.6615 15 21.6615C9.16667 21.6615 7.5 18.3281 7.5 18.3281Z" fill="white"/>
  <path d="M10.0052 14.1732C11.1558 14.1732 12.0885 12.8673 12.0885 11.2565C12.0885 9.64568 11.1558 8.33984 10.0052 8.33984C8.85462 8.33984 7.92188 9.64568 7.92188 11.2565C7.92188 12.8673 8.85462 14.1732 10.0052 14.1732Z" fill="#664500"/>
  <path d="M20.0052 14.1732C21.1558 14.1732 22.0885 12.8673 22.0885 11.2565C22.0885 9.64568 21.1558 8.33984 20.0052 8.33984C18.8546 8.33984 17.9219 9.64568 17.9219 11.2565C17.9219 12.8673 18.8546 14.1732 20.0052 14.1732Z" fill="#664500"/>
</svg>