<svg xmlns="http://www.w3.org/2000/svg" width="13" height="12" viewBox="0 0 13 12" fill="none">
  <g clip-path="url(#clip0_10625_36252)">
    <path d="M3.35938 4C3.88981 4 4.39852 4.21071 4.77359 4.58579C5.14866 4.96086 5.35938 5.46957 5.35938 6C5.35938 6.53043 5.14866 7.03914 4.77359 7.41421C4.39852 7.78929 3.88981 8 3.35938 8C2.82894 8 2.32023 7.78929 1.94516 7.41421C1.57009 7.03914 1.35938 6.53043 1.35938 6C1.35938 5.46957 1.57009 4.96086 1.94516 4.58579C2.32023 4.21071 2.82894 4 3.35938 4ZM6.85938 0.5C7.38981 0.5 7.89852 0.710714 8.27359 1.08579C8.64866 1.46086 8.85938 1.96957 8.85938 2.5C8.85938 3.03043 8.64866 3.53914 8.27359 3.91421C7.89852 4.28929 7.38981 4.5 6.85938 4.5C6.32894 4.5 5.82023 4.28929 5.44516 3.91421C5.07009 3.53914 4.85938 3.03043 4.85938 2.5C4.85938 1.96957 5.07009 1.46086 5.44516 1.08579C5.82023 0.710714 6.32894 0.5 6.85938 0.5ZM6.85938 7.5C7.38981 7.5 7.89852 7.71071 8.27359 8.08579C8.64866 8.46086 8.85938 8.96957 8.85938 9.5C8.85938 10.0304 8.64866 10.5391 8.27359 10.9142C7.89852 11.2893 7.38981 11.5 6.85938 11.5C6.32894 11.5 5.82023 11.2893 5.44516 10.9142C5.07009 10.5391 4.85938 10.0304 4.85938 9.5C4.85938 8.96957 5.07009 8.46086 5.44516 8.08579C5.82023 7.71071 6.32894 7.5 6.85938 7.5ZM10.3594 4C10.8898 4 11.3985 4.21071 11.7736 4.58579C12.1487 4.96086 12.3594 5.46957 12.3594 6C12.3594 6.53043 12.1487 7.03914 11.7736 7.41421C11.3985 7.78929 10.8898 8 10.3594 8C9.82894 8 9.32023 7.78929 8.94516 7.41421C8.57009 7.03914 8.35938 6.53043 8.35938 6C8.35938 5.46957 8.57009 4.96086 8.94516 4.58579C9.32023 4.21071 9.82894 4 10.3594 4Z" fill="#07235B"/>
  </g>
  <defs>
    <clipPath id="clip0_10625_36252">
      <rect width="12" height="12" fill="white" transform="translate(0.859375)"/>
    </clipPath>
  </defs>
</svg>